<mxfile host="app.diagrams.net" agent="Mozilla/5.0 (Windows NT 10.0; Win64; x64; rv:133.0) Gecko/20100101 Firefox/133.0" version="25.0.3">
  <diagram name="Page-1" id="X886IC2I495EadjedaB-">
    <mxGraphModel dx="2848" dy="1739" grid="1" gridSize="10" guides="1" tooltips="1" connect="1" arrows="1" fold="1" page="1" pageScale="1" pageWidth="1654" pageHeight="1169" math="0" shadow="0">
      <root>
        <mxCell id="0" />
        <mxCell id="1" parent="0" />
        <UserObject label="" plantUmlData="{&#xa;  &quot;data&quot;: &quot;@startuml\n&#39; Roles class\nclass Roles {\n    + role_id: int\n    + role_name: string\n    + add_role()\n    + delete_role()\n}\n\n&#39; Addresses class\nclass Addresses {\n    + address_id: int\n    + first_street: string\n    + flat_number: string\n    + door_number: string\n    + city: string\n    + state: string\n    + postal_code: string\n    + google_maps_link: string\n    + add_address()\n    + modify_address()\n    + get_address()\n    + delete_address()\n    + get_google_maps_api()\n}\n\n&#39; Users class\nclass Users {\n    + user_id: int\n    + name: string\n    + email: string\n    + password: string\n    + address_id: int\n    + registration_date: datetime\n    + image_url: string\n    + register()\n    + login()\n    + update_profile()\n    + place_order()\n}\n\n&#39; UserRoles class\nclass UserRoles {\n    + user_id: int\n    + role_id: int\n}\n\n&#39; CuisineTypes class\nclass CuisineTypes {\n    + cuisine_type_id: int\n    + cuisine_name: string\n    + add_cuisine()\n    + delete_cuisine()\n}\n\n&#39; Restaurant class\nclass Restaurant {\n    + restaurant_id: int\n    + user_id: int\n    + status: string\n    + is_active: bool\n    + message: string\n    + restaurant_name: string\n    + description: string\n    + order_requirement: string\n    + image_url: string\n    + created_at: datetime\n    + address_id: int\n    + update_status()\n    + add_food()\n    + view_orders()\n}\n\n&#39; RestaurantCuisine class\nclass RestaurantCuisine {\n    + restaurant_id: int\n    + cuisine_type_id: int\n    + add_cuisine_restaurant()\n    + delete_cuisine_restaurant()\n}\n\n&#39; WorkingTime class\nclass WorkingTime {\n    + working_time_id: int\n    + restaurant_id: int\n    + day_of_week: string\n    + start_hour: string\n    + end_hour: string\n    + is_open: bool\n    + add_time()\n    + delete_time()\n    + modify()\n}\n\n&#39; Food class\nclass Food {\n    + food_id: int\n    + food_name: string\n    + description: string\n    + cuisine_type_id: int\n    + restaurant_id: int\n    + standard_price: float\n    + price_small: float\n    + price_medium: float\n    + price_large: float\n    + quantity: int\n    + initial_stock: int\n    + image_url: string\n    + preparation_time: string\n    + add_food()\n    + modify_food()\n    + delete_food()\n    + update_price()\n    + update_stock()\n}\n\n&#39; FoodCategory class\nclass FoodCategory {\n    + food_category_id: int\n    + category_name: string\n    + add_foodCategory()\n    + delete_food_category()\n}\n\n&#39; Menu class\nclass Menu {\n    + menu_id: int\n    + restaurant_id: int\n    + menu_name: string\n    + description: string\n    + created_at: datetime\n    + add_menu()\n    + delete_menu()\n    + modify_menu()\n}\n\n&#39; MenuFood class\nclass MenuFood {\n    + menufood_id: int\n    + menu_id: int\n    + food_id: int\n    + created_at: datetime\n    + add_food_to_menu()\n    + remove_food_from_menu()\n    + deactivate_food_in_menu()\n    + activate_food_in_menu()\n    + update_food_in_menu()\n}\n\n&#39; Offers class\nclass Offers {\n    + offer_id: int\n    + offer_type: string\n    + offer_value: float\n    + applicable_to: string\n    + food_id: int\n    + min_order_value: float\n    + offer_start_date: datetime\n    + offer_end_date: datetime\n    + apply_offer()\n    + validate_offer()\n}\n\n&#39; Basket class\nclass Basket {\n    + basket_id: int\n    + user_id: int\n    + food_id: int\n    + quantity: int\n    + restaurant_id: int\n    + add_item()\n    + remove_item()\n    + calculate_total()\n    + clear()\n    + checkout()\n}\n\n&#39; Payment class\nclass Payment {\n    + payment_id: int\n    + basket_id: int\n    + payment_date: datetime\n    + amount: float\n    + payment_status: string\n    + create_payment()\n    + mark_as_completed()\n}\n\n&#39; Order class\nclass Order {\n    + order_id: int\n    + payment_id: int\n    + order_date: datetime\n    + status: string\n    + create_order()\n    + add_order_details()\n    + update_order_status()\n}\n\n&#39; OrderDetails class\nclass OrderDetails {\n    + order_detail_id: int\n    + order_id: int\n    + food_id: int\n    + quantity: int\n    + price: float\n}\n\n&#39; BankInfo class\nclass BankInfo {\n    + bank_info_id: int\n    + restaurant_id: int\n    + bank_name: string\n    + account_number: string\n    + routing_number: string\n    + account_type: string\n    + iban: string\n    + add_bank_info()\n    + update_bank_info()\n    + delete_bank_info()\n}\n\n&#39; RestaurantDocs class\nclass RestaurantDocs {\n    + doc_id: int\n    + restaurant_id: int\n    + doc_type: string\n    + doc_url: string\n    + uploaded_at: datetime\n    + upload_document()\n    + delete_document()\n    + get_documents()\n}\n\n&#39; FoodFoodCategory class\nclass FoodFoodCategory {\n    + food_id: int\n    + food_category_id: int\n    + add_food_to_category()\n    + remove_food_from_category()\n}\n\n&#39; Relationships\nUsers \&quot;many\&quot; -- \&quot;many\&quot; Roles : UserRoles\nUsers \&quot;many\&quot; -- \&quot;many\&quot; UserRoles\nRoles \&quot;many\&quot; -- \&quot;many\&quot; UserRoles\nRestaurant \&quot;one\&quot; -- \&quot;one\&quot; Addresses : \&quot;has address\&quot;\nRestaurant \&quot;many\&quot; -- \&quot;many\&quot; CuisineTypes : RestaurantCuisine\nRestaurant \&quot;many\&quot; -- \&quot;many\&quot; Food : MenuFood\nFood \&quot;many\&quot; -- \&quot;many\&quot; FoodCategory : FoodFoodCategory\nMenu \&quot;many\&quot; -- \&quot;many\&quot; Food : MenuFood\nFood \&quot;many\&quot; -- \&quot;many\&quot; FoodCategory : FoodFoodCategory\nRestaurant \&quot;many\&quot; -- \&quot;many\&quot; WorkingTime : \&quot;has working time\&quot;\nRestaurant \&quot;one\&quot; -- \&quot;one\&quot; BankInfo : \&quot;has bank information\&quot;\nRestaurant \&quot;many\&quot; -- \&quot;many\&quot; RestaurantDocs : \&quot;has documents\&quot;\n\n@enduml\n&quot;,&#xa;  &quot;format&quot;: &quot;svg&quot;&#xa;}" id="E8oFCvGofcXJNzFRtnZZ-1">
          <mxCell style="shape=image;noLabel=1;verticalAlign=top;aspect=fixed;imageAspect=0;image=data:image/svg+xml,PD94bWwgdmVyc2lvbj0iMS4wIiBlbmNvZGluZz0idXMtYXNjaWkiIHN0YW5kYWxvbmU9Im5vIj8+PHN2ZyB4bWxucz0iaHR0cDovL3d3dy53My5vcmcvMjAwMC9zdmciIHhtbG5zOnhsaW5rPSJodHRwOi8vd3d3LnczLm9yZy8xOTk5L3hsaW5rIiBjb250ZW50U3R5bGVUeXBlPSJ0ZXh0L2NzcyIgaGVpZ2h0PSI4NjJweCIgcHJlc2VydmVBc3BlY3RSYXRpbz0ibm9uZSIgc3R5bGU9IndpZHRoOjIyMjdweDtoZWlnaHQ6ODYycHg7YmFja2dyb3VuZDojRkZGRkZGOyIgdmVyc2lvbj0iMS4xIiB2aWV3Qm94PSIwIDAgMjIyNyA4NjIiIHdpZHRoPSIyMjI3cHgiIHpvb21BbmRQYW49Im1hZ25pZnkiPjxkZWZzLz48Zz48IS0tY2xhc3MgUm9sZXMtLT48ZyBpZD0iZWxlbV9Sb2xlcyI+PHJlY3QgY29kZUxpbmU9IjIiIGZpbGw9IiNGMUYxRjEiIGhlaWdodD0iMTA3LjkzNzUiIGlkPSJSb2xlcyIgcng9IjIuNSIgcnk9IjIuNSIgc3R5bGU9InN0cm9rZTojMTgxODE4O3N0cm9rZS13aWR0aDowLjU7IiB3aWR0aD0iMTQ2IiB4PSI2NTQuNSIgeT0iNDQ1Ii8+PGVsbGlwc2UgY3g9IjcwNS43NSIgY3k9IjQ2MSIgZmlsbD0iI0FERDFCMiIgcng9IjExIiByeT0iMTEiIHN0eWxlPSJzdHJva2U6IzE4MTgxODtzdHJva2Utd2lkdGg6MS4wOyIvPjxwYXRoIGQ9Ik03MDMuMzc1LDQ2NS4yNSBMNzAzLjM3NSw0NjcgTDcwOC4zMTI1LDQ2NyBMNzA4LjMxMjUsNDY1LjI1IEw3MDMuMzc1LDQ2NS4yNSBaIE03MDQuMDYyNSw0NjUuOTM3NSBRNzA0LjA2MjUsNDY1LjkzNzUgNzA0LjA2MjUsNDU2Ljc1IEw3MDIuMzEyNSw0NTYuNzUgUTcwMi4zMTI1LDQ1Ni43NSA3MDIuMzEyNSw0NjUuOTM3NSBMNzA0LjA2MjUsNDY1LjkzNzUgWiBNNzA3LjYyNSw0NjUuOTM3NSBMNzA5LjM3NSw0NjUuOTM3NSBRNzA5LjM3NSw0NjUuOTM3NSA3MDkuMzc1LDQ2My4xMjUgTDcwNy42MjUsNDYzLjEyNSBRNzA3LjYyNSw0NjMuMTI1IDcwNy42MjUsNDY1LjkzNzUgWiBNNzA3LjYyNSw0NTYuNzUgUTcwNy42MjUsNDU2Ljc1IDcwNy42MjUsNDU5LjU2MjUgTDcwOS4zNzUsNDU5LjU2MjUgUTcwOS4zNzUsNDU5LjU2MjUgNzA5LjM3NSw0NTYuNzUgTDcwNy42MjUsNDU2Ljc1IFogTTcwMy4zNzUsNDU3LjQzNzUgTDcwOC4zMTI1LDQ1Ny40Mzc1IEw3MDguMzEyNSw0NTUuNjg3NSBMNzAzLjM3NSw0NTUuNjg3NSBMNzAzLjM3NSw0NTcuNDM3NSBaICIgZmlsbD0iIzAwMDAwMCIvPjx0ZXh0IGZpbGw9IiMwMDAwMDAiIGZvbnQtZmFtaWx5PSJzYW5zLXNlcmlmIiBmb250LXNpemU9IjE0IiBsZW5ndGhBZGp1c3Q9InNwYWNpbmciIHRleHRMZW5ndGg9IjM1IiB4PSI3MjYuMjUiIHk9IjQ2Ni43NDIyIj5Sb2xlczwvdGV4dD48bGluZSBzdHlsZT0ic3Ryb2tlOiMxODE4MTg7c3Ryb2tlLXdpZHRoOjAuNTsiIHgxPSI2NTUuNSIgeDI9Ijc5OS41IiB5MT0iNDc3IiB5Mj0iNDc3Ii8+PGVsbGlwc2UgY3g9IjY2NS41IiBjeT0iNDg5Ljk5MjIiIGZpbGw9Im5vbmUiIHJ4PSIzIiByeT0iMyIgc3R5bGU9InN0cm9rZTojMDM4MDQ4O3N0cm9rZS13aWR0aDoxLjA7Ii8+PHRleHQgZmlsbD0iIzAwMDAwMCIgZm9udC1mYW1pbHk9InNhbnMtc2VyaWYiIGZvbnQtc2l6ZT0iMTQiIGxlbmd0aEFkanVzdD0ic3BhY2luZyIgdGV4dExlbmd0aD0iODQiIHg9IjY3NC41IiB5PSI0OTQuMjM0NCI+cm9sZV9pZDogaW50PC90ZXh0PjxlbGxpcHNlIGN4PSI2NjUuNSIgY3k9IjUwNC45NzY2IiBmaWxsPSJub25lIiByeD0iMyIgcnk9IjMiIHN0eWxlPSJzdHJva2U6IzAzODA0ODtzdHJva2Utd2lkdGg6MS4wOyIvPjx0ZXh0IGZpbGw9IiMwMDAwMDAiIGZvbnQtZmFtaWx5PSJzYW5zLXNlcmlmIiBmb250LXNpemU9IjE0IiBsZW5ndGhBZGp1c3Q9InNwYWNpbmciIHRleHRMZW5ndGg9IjEyMCIgeD0iNjc0LjUiIHk9IjUwOS4yMTg4Ij5yb2xlX25hbWU6IHN0cmluZzwvdGV4dD48bGluZSBzdHlsZT0ic3Ryb2tlOiMxODE4MTg7c3Ryb2tlLXdpZHRoOjAuNTsiIHgxPSI2NTUuNSIgeDI9Ijc5OS41IiB5MT0iNTE0Ljk2ODgiIHkyPSI1MTQuOTY4OCIvPjxlbGxpcHNlIGN4PSI2NjUuNSIgY3k9IjUyNy45NjA5IiBmaWxsPSIjODRCRTg0IiByeD0iMyIgcnk9IjMiIHN0eWxlPSJzdHJva2U6IzAzODA0ODtzdHJva2Utd2lkdGg6MS4wOyIvPjx0ZXh0IGZpbGw9IiMwMDAwMDAiIGZvbnQtZmFtaWx5PSJzYW5zLXNlcmlmIiBmb250LXNpemU9IjE0IiBsZW5ndGhBZGp1c3Q9InNwYWNpbmciIHRleHRMZW5ndGg9IjcyIiB4PSI2NzQuNSIgeT0iNTMyLjIwMzEiPmFkZF9yb2xlKCk8L3RleHQ+PGVsbGlwc2UgY3g9IjY2NS41IiBjeT0iNTQyLjk0NTMiIGZpbGw9IiM4NEJFODQiIHJ4PSIzIiByeT0iMyIgc3R5bGU9InN0cm9rZTojMDM4MDQ4O3N0cm9rZS13aWR0aDoxLjA7Ii8+PHRleHQgZmlsbD0iIzAwMDAwMCIgZm9udC1mYW1pbHk9InNhbnMtc2VyaWYiIGZvbnQtc2l6ZT0iMTQiIGxlbmd0aEFkanVzdD0ic3BhY2luZyIgdGV4dExlbmd0aD0iOTMiIHg9IjY3NC41IiB5PSI1NDcuMTg3NSI+ZGVsZXRlX3JvbGUoKTwvdGV4dD48L2c+PCEtLWNsYXNzIEFkZHJlc3Nlcy0tPjxnIGlkPSJlbGVtX0FkZHJlc3NlcyI+PHJlY3QgY29kZUxpbmU9IjEwIiBmaWxsPSIjRjFGMUYxIiBoZWlnaHQ9IjI0Mi43OTY5IiBpZD0iQWRkcmVzc2VzIiByeD0iMi41IiByeT0iMi41IiBzdHlsZT0ic3Ryb2tlOiMxODE4MTg7c3Ryb2tlLXdpZHRoOjAuNTsiIHdpZHRoPSIxOTUiIHg9IjkwNyIgeT0iMzc3LjUiLz48ZWxsaXBzZSBjeD0iOTY4Ljc1IiBjeT0iMzkzLjUiIGZpbGw9IiNBREQxQjIiIHJ4PSIxMSIgcnk9IjExIiBzdHlsZT0ic3Ryb2tlOiMxODE4MTg7c3Ryb2tlLXdpZHRoOjEuMDsiLz48cGF0aCBkPSJNOTY2LjM3NSwzOTcuNzUgTDk2Ni4zNzUsMzk5LjUgTDk3MS4zMTI1LDM5OS41IEw5NzEuMzEyNSwzOTcuNzUgTDk2Ni4zNzUsMzk3Ljc1IFogTTk2Ny4wNjI1LDM5OC40Mzc1IFE5NjcuMDYyNSwzOTguNDM3NSA5NjcuMDYyNSwzODkuMjUgTDk2NS4zMTI1LDM4OS4yNSBROTY1LjMxMjUsMzg5LjI1IDk2NS4zMTI1LDM5OC40Mzc1IEw5NjcuMDYyNSwzOTguNDM3NSBaIE05NzAuNjI1LDM5OC40Mzc1IEw5NzIuMzc1LDM5OC40Mzc1IFE5NzIuMzc1LDM5OC40Mzc1IDk3Mi4zNzUsMzk1LjYyNSBMOTcwLjYyNSwzOTUuNjI1IFE5NzAuNjI1LDM5NS42MjUgOTcwLjYyNSwzOTguNDM3NSBaIE05NzAuNjI1LDM4OS4yNSBROTcwLjYyNSwzODkuMjUgOTcwLjYyNSwzOTIuMDYyNSBMOTcyLjM3NSwzOTIuMDYyNSBROTcyLjM3NSwzOTIuMDYyNSA5NzIuMzc1LDM4OS4yNSBMOTcwLjYyNSwzODkuMjUgWiBNOTY2LjM3NSwzODkuOTM3NSBMOTcxLjMxMjUsMzg5LjkzNzUgTDk3MS4zMTI1LDM4OC4xODc1IEw5NjYuMzc1LDM4OC4xODc1IEw5NjYuMzc1LDM4OS45Mzc1IFogIiBmaWxsPSIjMDAwMDAwIi8+PHRleHQgZmlsbD0iIzAwMDAwMCIgZm9udC1mYW1pbHk9InNhbnMtc2VyaWYiIGZvbnQtc2l6ZT0iMTQiIGxlbmd0aEFkanVzdD0ic3BhY2luZyIgdGV4dExlbmd0aD0iNjMiIHg9Ijk4OS4yNSIgeT0iMzk5LjI0MjIiPkFkZHJlc3NlczwvdGV4dD48bGluZSBzdHlsZT0ic3Ryb2tlOiMxODE4MTg7c3Ryb2tlLXdpZHRoOjAuNTsiIHgxPSI5MDgiIHgyPSIxMTAxIiB5MT0iNDA5LjUiIHkyPSI0MDkuNSIvPjxlbGxpcHNlIGN4PSI5MTgiIGN5PSI0MjIuNDkyMiIgZmlsbD0ibm9uZSIgcng9IjMiIHJ5PSIzIiBzdHlsZT0ic3Ryb2tlOiMwMzgwNDg7c3Ryb2tlLXdpZHRoOjEuMDsiLz48dGV4dCBmaWxsPSIjMDAwMDAwIiBmb250LWZhbWlseT0ic2Fucy1zZXJpZiIgZm9udC1zaXplPSIxNCIgbGVuZ3RoQWRqdXN0PSJzcGFjaW5nIiB0ZXh0TGVuZ3RoPSIxMDUiIHg9IjkyNyIgeT0iNDI2LjczNDQiPmFkZHJlc3NfaWQ6IGludDwvdGV4dD48ZWxsaXBzZSBjeD0iOTE4IiBjeT0iNDM3LjQ3NjYiIGZpbGw9Im5vbmUiIHJ4PSIzIiByeT0iMyIgc3R5bGU9InN0cm9rZTojMDM4MDQ4O3N0cm9rZS13aWR0aDoxLjA7Ii8+PHRleHQgZmlsbD0iIzAwMDAwMCIgZm9udC1mYW1pbHk9InNhbnMtc2VyaWYiIGZvbnQtc2l6ZT0iMTQiIGxlbmd0aEFkanVzdD0ic3BhY2luZyIgdGV4dExlbmd0aD0iMTQwIiB4PSI5MjciIHk9IjQ0MS43MTg4Ij5maXJzdF9zdHJlZXQ6IHN0cmluZzwvdGV4dD48ZWxsaXBzZSBjeD0iOTE4IiBjeT0iNDUyLjQ2MDkiIGZpbGw9Im5vbmUiIHJ4PSIzIiByeT0iMyIgc3R5bGU9InN0cm9rZTojMDM4MDQ4O3N0cm9rZS13aWR0aDoxLjA7Ii8+PHRleHQgZmlsbD0iIzAwMDAwMCIgZm9udC1mYW1pbHk9InNhbnMtc2VyaWYiIGZvbnQtc2l6ZT0iMTQiIGxlbmd0aEFkanVzdD0ic3BhY2luZyIgdGV4dExlbmd0aD0iMTM0IiB4PSI5MjciIHk9IjQ1Ni43MDMxIj5mbGF0X251bWJlcjogc3RyaW5nPC90ZXh0PjxlbGxpcHNlIGN4PSI5MTgiIGN5PSI0NjcuNDQ1MyIgZmlsbD0ibm9uZSIgcng9IjMiIHJ5PSIzIiBzdHlsZT0ic3Ryb2tlOiMwMzgwNDg7c3Ryb2tlLXdpZHRoOjEuMDsiLz48dGV4dCBmaWxsPSIjMDAwMDAwIiBmb250LWZhbWlseT0ic2Fucy1zZXJpZiIgZm9udC1zaXplPSIxNCIgbGVuZ3RoQWRqdXN0PSJzcGFjaW5nIiB0ZXh0TGVuZ3RoPSIxMzQiIHg9IjkyNyIgeT0iNDcxLjY4NzUiPmRvb3JfbnVtYmVyOiBzdHJpbmc8L3RleHQ+PGVsbGlwc2UgY3g9IjkxOCIgY3k9IjQ4Mi40Mjk3IiBmaWxsPSJub25lIiByeD0iMyIgcnk9IjMiIHN0eWxlPSJzdHJva2U6IzAzODA0ODtzdHJva2Utd2lkdGg6MS4wOyIvPjx0ZXh0IGZpbGw9IiMwMDAwMDAiIGZvbnQtZmFtaWx5PSJzYW5zLXNlcmlmIiBmb250LXNpemU9IjE0IiBsZW5ndGhBZGp1c3Q9InNwYWNpbmciIHRleHRMZW5ndGg9Ijg0IiB4PSI5MjciIHk9IjQ4Ni42NzE5Ij5jaXR5OiBzdHJpbmc8L3RleHQ+PGVsbGlwc2UgY3g9IjkxOCIgY3k9IjQ5Ny40MTQxIiBmaWxsPSJub25lIiByeD0iMyIgcnk9IjMiIHN0eWxlPSJzdHJva2U6IzAzODA0ODtzdHJva2Utd2lkdGg6MS4wOyIvPjx0ZXh0IGZpbGw9IiMwMDAwMDAiIGZvbnQtZmFtaWx5PSJzYW5zLXNlcmlmIiBmb250LXNpemU9IjE0IiBsZW5ndGhBZGp1c3Q9InNwYWNpbmciIHRleHRMZW5ndGg9IjkxIiB4PSI5MjciIHk9IjUwMS42NTYzIj5zdGF0ZTogc3RyaW5nPC90ZXh0PjxlbGxpcHNlIGN4PSI5MTgiIGN5PSI1MTIuMzk4NCIgZmlsbD0ibm9uZSIgcng9IjMiIHJ5PSIzIiBzdHlsZT0ic3Ryb2tlOiMwMzgwNDg7c3Ryb2tlLXdpZHRoOjEuMDsiLz48dGV4dCBmaWxsPSIjMDAwMDAwIiBmb250LWZhbWlseT0ic2Fucy1zZXJpZiIgZm9udC1zaXplPSIxNCIgbGVuZ3RoQWRqdXN0PSJzcGFjaW5nIiB0ZXh0TGVuZ3RoPSIxMzMiIHg9IjkyNyIgeT0iNTE2LjY0MDYiPnBvc3RhbF9jb2RlOiBzdHJpbmc8L3RleHQ+PGVsbGlwc2UgY3g9IjkxOCIgY3k9IjUyNy4zODI4IiBmaWxsPSJub25lIiByeD0iMyIgcnk9IjMiIHN0eWxlPSJzdHJva2U6IzAzODA0ODtzdHJva2Utd2lkdGg6MS4wOyIvPjx0ZXh0IGZpbGw9IiMwMDAwMDAiIGZvbnQtZmFtaWx5PSJzYW5zLXNlcmlmIiBmb250LXNpemU9IjE0IiBsZW5ndGhBZGp1c3Q9InNwYWNpbmciIHRleHRMZW5ndGg9IjE2OSIgeD0iOTI3IiB5PSI1MzEuNjI1Ij5nb29nbGVfbWFwc19saW5rOiBzdHJpbmc8L3RleHQ+PGxpbmUgc3R5bGU9InN0cm9rZTojMTgxODE4O3N0cm9rZS13aWR0aDowLjU7IiB4MT0iOTA4IiB4Mj0iMTEwMSIgeTE9IjUzNy4zNzUiIHkyPSI1MzcuMzc1Ii8+PGVsbGlwc2UgY3g9IjkxOCIgY3k9IjU1MC4zNjcyIiBmaWxsPSIjODRCRTg0IiByeD0iMyIgcnk9IjMiIHN0eWxlPSJzdHJva2U6IzAzODA0ODtzdHJva2Utd2lkdGg6MS4wOyIvPjx0ZXh0IGZpbGw9IiMwMDAwMDAiIGZvbnQtZmFtaWx5PSJzYW5zLXNlcmlmIiBmb250LXNpemU9IjE0IiBsZW5ndGhBZGp1c3Q9InNwYWNpbmciIHRleHRMZW5ndGg9IjkzIiB4PSI5MjciIHk9IjU1NC42MDk0Ij5hZGRfYWRkcmVzcygpPC90ZXh0PjxlbGxpcHNlIGN4PSI5MTgiIGN5PSI1NjUuMzUxNiIgZmlsbD0iIzg0QkU4NCIgcng9IjMiIHJ5PSIzIiBzdHlsZT0ic3Ryb2tlOiMwMzgwNDg7c3Ryb2tlLXdpZHRoOjEuMDsiLz48dGV4dCBmaWxsPSIjMDAwMDAwIiBmb250LWZhbWlseT0ic2Fucy1zZXJpZiIgZm9udC1zaXplPSIxNCIgbGVuZ3RoQWRqdXN0PSJzcGFjaW5nIiB0ZXh0TGVuZ3RoPSIxMTUiIHg9IjkyNyIgeT0iNTY5LjU5MzgiPm1vZGlmeV9hZGRyZXNzKCk8L3RleHQ+PGVsbGlwc2UgY3g9IjkxOCIgY3k9IjU4MC4zMzU5IiBmaWxsPSIjODRCRTg0IiByeD0iMyIgcnk9IjMiIHN0eWxlPSJzdHJva2U6IzAzODA0ODtzdHJva2Utd2lkdGg6MS4wOyIvPjx0ZXh0IGZpbGw9IiMwMDAwMDAiIGZvbnQtZmFtaWx5PSJzYW5zLXNlcmlmIiBmb250LXNpemU9IjE0IiBsZW5ndGhBZGp1c3Q9InNwYWNpbmciIHRleHRMZW5ndGg9IjkzIiB4PSI5MjciIHk9IjU4NC41NzgxIj5nZXRfYWRkcmVzcygpPC90ZXh0PjxlbGxpcHNlIGN4PSI5MTgiIGN5PSI1OTUuMzIwMyIgZmlsbD0iIzg0QkU4NCIgcng9IjMiIHJ5PSIzIiBzdHlsZT0ic3Ryb2tlOiMwMzgwNDg7c3Ryb2tlLXdpZHRoOjEuMDsiLz48dGV4dCBmaWxsPSIjMDAwMDAwIiBmb250LWZhbWlseT0ic2Fucy1zZXJpZiIgZm9udC1zaXplPSIxNCIgbGVuZ3RoQWRqdXN0PSJzcGFjaW5nIiB0ZXh0TGVuZ3RoPSIxMTQiIHg9IjkyNyIgeT0iNTk5LjU2MjUiPmRlbGV0ZV9hZGRyZXNzKCk8L3RleHQ+PGVsbGlwc2UgY3g9IjkxOCIgY3k9IjYxMC4zMDQ3IiBmaWxsPSIjODRCRTg0IiByeD0iMyIgcnk9IjMiIHN0eWxlPSJzdHJva2U6IzAzODA0ODtzdHJva2Utd2lkdGg6MS4wOyIvPjx0ZXh0IGZpbGw9IiMwMDAwMDAiIGZvbnQtZmFtaWx5PSJzYW5zLXNlcmlmIiBmb250LXNpemU9IjE0IiBsZW5ndGhBZGp1c3Q9InNwYWNpbmciIHRleHRMZW5ndGg9IjE1MCIgeD0iOTI3IiB5PSI2MTQuNTQ2OSI+Z2V0X2dvb2dsZV9tYXBzX2FwaSgpPC90ZXh0PjwvZz48IS0tY2xhc3MgVXNlcnMtLT48ZyBpZD0iZWxlbV9Vc2VycyI+PHJlY3QgY29kZUxpbmU9IjI3IiBmaWxsPSIjRjFGMUYxIiBoZWlnaHQ9IjIxMi44MjgxIiBpZD0iVXNlcnMiIHJ4PSIyLjUiIHJ5PSIyLjUiIHN0eWxlPSJzdHJva2U6IzE4MTgxODtzdHJva2Utd2lkdGg6MC41OyIgd2lkdGg9IjIxNiIgeD0iNzQ0LjUiIHk9IjI5LjUiLz48ZWxsaXBzZSBjeD0iODMwLjc1IiBjeT0iNDUuNSIgZmlsbD0iI0FERDFCMiIgcng9IjExIiByeT0iMTEiIHN0eWxlPSJzdHJva2U6IzE4MTgxODtzdHJva2Utd2lkdGg6MS4wOyIvPjxwYXRoIGQ9Ik04MjguMzc1LDQ5Ljc1IEw4MjguMzc1LDUxLjUgTDgzMy4zMTI1LDUxLjUgTDgzMy4zMTI1LDQ5Ljc1IEw4MjguMzc1LDQ5Ljc1IFogTTgyOS4wNjI1LDUwLjQzNzUgUTgyOS4wNjI1LDUwLjQzNzUgODI5LjA2MjUsNDEuMjUgTDgyNy4zMTI1LDQxLjI1IFE4MjcuMzEyNSw0MS4yNSA4MjcuMzEyNSw1MC40Mzc1IEw4MjkuMDYyNSw1MC40Mzc1IFogTTgzMi42MjUsNTAuNDM3NSBMODM0LjM3NSw1MC40Mzc1IFE4MzQuMzc1LDUwLjQzNzUgODM0LjM3NSw0Ny42MjUgTDgzMi42MjUsNDcuNjI1IFE4MzIuNjI1LDQ3LjYyNSA4MzIuNjI1LDUwLjQzNzUgWiBNODMyLjYyNSw0MS4yNSBRODMyLjYyNSw0MS4yNSA4MzIuNjI1LDQ0LjA2MjUgTDgzNC4zNzUsNDQuMDYyNSBRODM0LjM3NSw0NC4wNjI1IDgzNC4zNzUsNDEuMjUgTDgzMi42MjUsNDEuMjUgWiBNODI4LjM3NSw0MS45Mzc1IEw4MzMuMzEyNSw0MS45Mzc1IEw4MzMuMzEyNSw0MC4xODc1IEw4MjguMzc1LDQwLjE4NzUgTDgyOC4zNzUsNDEuOTM3NSBaICIgZmlsbD0iIzAwMDAwMCIvPjx0ZXh0IGZpbGw9IiMwMDAwMDAiIGZvbnQtZmFtaWx5PSJzYW5zLXNlcmlmIiBmb250LXNpemU9IjE0IiBsZW5ndGhBZGp1c3Q9InNwYWNpbmciIHRleHRMZW5ndGg9IjM1IiB4PSI4NTEuMjUiIHk9IjUxLjI0MjIiPlVzZXJzPC90ZXh0PjxsaW5lIHN0eWxlPSJzdHJva2U6IzE4MTgxODtzdHJva2Utd2lkdGg6MC41OyIgeDE9Ijc0NS41IiB4Mj0iOTU5LjUiIHkxPSI2MS41IiB5Mj0iNjEuNSIvPjxlbGxpcHNlIGN4PSI3NTUuNSIgY3k9Ijc0LjQ5MjIiIGZpbGw9Im5vbmUiIHJ4PSIzIiByeT0iMyIgc3R5bGU9InN0cm9rZTojMDM4MDQ4O3N0cm9rZS13aWR0aDoxLjA7Ii8+PHRleHQgZmlsbD0iIzAwMDAwMCIgZm9udC1mYW1pbHk9InNhbnMtc2VyaWYiIGZvbnQtc2l6ZT0iMTQiIGxlbmd0aEFkanVzdD0ic3BhY2luZyIgdGV4dExlbmd0aD0iODQiIHg9Ijc2NC41IiB5PSI3OC43MzQ0Ij51c2VyX2lkOiBpbnQ8L3RleHQ+PGVsbGlwc2UgY3g9Ijc1NS41IiBjeT0iODkuNDc2NiIgZmlsbD0ibm9uZSIgcng9IjMiIHJ5PSIzIiBzdHlsZT0ic3Ryb2tlOiMwMzgwNDg7c3Ryb2tlLXdpZHRoOjEuMDsiLz48dGV4dCBmaWxsPSIjMDAwMDAwIiBmb250LWZhbWlseT0ic2Fucy1zZXJpZiIgZm9udC1zaXplPSIxNCIgbGVuZ3RoQWRqdXN0PSJzcGFjaW5nIiB0ZXh0TGVuZ3RoPSI4NSIgeD0iNzY0LjUiIHk9IjkzLjcxODgiPm5hbWU6IHN0cmluZzwvdGV4dD48ZWxsaXBzZSBjeD0iNzU1LjUiIGN5PSIxMDQuNDYwOSIgZmlsbD0ibm9uZSIgcng9IjMiIHJ5PSIzIiBzdHlsZT0ic3Ryb2tlOiMwMzgwNDg7c3Ryb2tlLXdpZHRoOjEuMDsiLz48dGV4dCBmaWxsPSIjMDAwMDAwIiBmb250LWZhbWlseT0ic2Fucy1zZXJpZiIgZm9udC1zaXplPSIxNCIgbGVuZ3RoQWRqdXN0PSJzcGFjaW5nIiB0ZXh0TGVuZ3RoPSI5MiIgeD0iNzY0LjUiIHk9IjEwOC43MDMxIj5lbWFpbDogc3RyaW5nPC90ZXh0PjxlbGxpcHNlIGN4PSI3NTUuNSIgY3k9IjExOS40NDUzIiBmaWxsPSJub25lIiByeD0iMyIgcnk9IjMiIHN0eWxlPSJzdHJva2U6IzAzODA0ODtzdHJva2Utd2lkdGg6MS4wOyIvPjx0ZXh0IGZpbGw9IiMwMDAwMDAiIGZvbnQtZmFtaWx5PSJzYW5zLXNlcmlmIiBmb250LXNpemU9IjE0IiBsZW5ndGhBZGp1c3Q9InNwYWNpbmciIHRleHRMZW5ndGg9IjExMyIgeD0iNzY0LjUiIHk9IjEyMy42ODc1Ij5wYXNzd29yZDogc3RyaW5nPC90ZXh0PjxlbGxpcHNlIGN4PSI3NTUuNSIgY3k9IjEzNC40Mjk3IiBmaWxsPSJub25lIiByeD0iMyIgcnk9IjMiIHN0eWxlPSJzdHJva2U6IzAzODA0ODtzdHJva2Utd2lkdGg6MS4wOyIvPjx0ZXh0IGZpbGw9IiMwMDAwMDAiIGZvbnQtZmFtaWx5PSJzYW5zLXNlcmlmIiBmb250LXNpemU9IjE0IiBsZW5ndGhBZGp1c3Q9InNwYWNpbmciIHRleHRMZW5ndGg9IjEwNSIgeD0iNzY0LjUiIHk9IjEzOC42NzE5Ij5hZGRyZXNzX2lkOiBpbnQ8L3RleHQ+PGVsbGlwc2UgY3g9Ijc1NS41IiBjeT0iMTQ5LjQxNDEiIGZpbGw9Im5vbmUiIHJ4PSIzIiByeT0iMyIgc3R5bGU9InN0cm9rZTojMDM4MDQ4O3N0cm9rZS13aWR0aDoxLjA7Ii8+PHRleHQgZmlsbD0iIzAwMDAwMCIgZm9udC1mYW1pbHk9InNhbnMtc2VyaWYiIGZvbnQtc2l6ZT0iMTQiIGxlbmd0aEFkanVzdD0ic3BhY2luZyIgdGV4dExlbmd0aD0iMTkwIiB4PSI3NjQuNSIgeT0iMTUzLjY1NjMiPnJlZ2lzdHJhdGlvbl9kYXRlOiBkYXRldGltZTwvdGV4dD48ZWxsaXBzZSBjeD0iNzU1LjUiIGN5PSIxNjQuMzk4NCIgZmlsbD0ibm9uZSIgcng9IjMiIHJ5PSIzIiBzdHlsZT0ic3Ryb2tlOiMwMzgwNDg7c3Ryb2tlLXdpZHRoOjEuMDsiLz48dGV4dCBmaWxsPSIjMDAwMDAwIiBmb250LWZhbWlseT0ic2Fucy1zZXJpZiIgZm9udC1zaXplPSIxNCIgbGVuZ3RoQWRqdXN0PSJzcGFjaW5nIiB0ZXh0TGVuZ3RoPSIxMjAiIHg9Ijc2NC41IiB5PSIxNjguNjQwNiI+aW1hZ2VfdXJsOiBzdHJpbmc8L3RleHQ+PGxpbmUgc3R5bGU9InN0cm9rZTojMTgxODE4O3N0cm9rZS13aWR0aDowLjU7IiB4MT0iNzQ1LjUiIHgyPSI5NTkuNSIgeTE9IjE3NC4zOTA2IiB5Mj0iMTc0LjM5MDYiLz48ZWxsaXBzZSBjeD0iNzU1LjUiIGN5PSIxODcuMzgyOCIgZmlsbD0iIzg0QkU4NCIgcng9IjMiIHJ5PSIzIiBzdHlsZT0ic3Ryb2tlOiMwMzgwNDg7c3Ryb2tlLXdpZHRoOjEuMDsiLz48dGV4dCBmaWxsPSIjMDAwMDAwIiBmb250LWZhbWlseT0ic2Fucy1zZXJpZiIgZm9udC1zaXplPSIxNCIgbGVuZ3RoQWRqdXN0PSJzcGFjaW5nIiB0ZXh0TGVuZ3RoPSI3MiIgeD0iNzY0LjUiIHk9IjE5MS42MjUiPnJlZ2lzdGVyKCk8L3RleHQ+PGVsbGlwc2UgY3g9Ijc1NS41IiBjeT0iMjAyLjM2NzIiIGZpbGw9IiM4NEJFODQiIHJ4PSIzIiByeT0iMyIgc3R5bGU9InN0cm9rZTojMDM4MDQ4O3N0cm9rZS13aWR0aDoxLjA7Ii8+PHRleHQgZmlsbD0iIzAwMDAwMCIgZm9udC1mYW1pbHk9InNhbnMtc2VyaWYiIGZvbnQtc2l6ZT0iMTQiIGxlbmd0aEFkanVzdD0ic3BhY2luZyIgdGV4dExlbmd0aD0iNTEiIHg9Ijc2NC41IiB5PSIyMDYuNjA5NCI+bG9naW4oKTwvdGV4dD48ZWxsaXBzZSBjeD0iNzU1LjUiIGN5PSIyMTcuMzUxNiIgZmlsbD0iIzg0QkU4NCIgcng9IjMiIHJ5PSIzIiBzdHlsZT0ic3Ryb2tlOiMwMzgwNDg7c3Ryb2tlLXdpZHRoOjEuMDsiLz48dGV4dCBmaWxsPSIjMDAwMDAwIiBmb250LWZhbWlseT0ic2Fucy1zZXJpZiIgZm9udC1zaXplPSIxNCIgbGVuZ3RoQWRqdXN0PSJzcGFjaW5nIiB0ZXh0TGVuZ3RoPSIxMTQiIHg9Ijc2NC41IiB5PSIyMjEuNTkzOCI+dXBkYXRlX3Byb2ZpbGUoKTwvdGV4dD48ZWxsaXBzZSBjeD0iNzU1LjUiIGN5PSIyMzIuMzM1OSIgZmlsbD0iIzg0QkU4NCIgcng9IjMiIHJ5PSIzIiBzdHlsZT0ic3Ryb2tlOiMwMzgwNDg7c3Ryb2tlLXdpZHRoOjEuMDsiLz48dGV4dCBmaWxsPSIjMDAwMDAwIiBmb250LWZhbWlseT0ic2Fucy1zZXJpZiIgZm9udC1zaXplPSIxNCIgbGVuZ3RoQWRqdXN0PSJzcGFjaW5nIiB0ZXh0TGVuZ3RoPSI5MyIgeD0iNzY0LjUiIHk9IjIzNi41NzgxIj5wbGFjZV9vcmRlcigpPC90ZXh0PjwvZz48IS0tY2xhc3MgVXNlclJvbGVzLS0+PGcgaWQ9ImVsZW1fVXNlclJvbGVzIj48cmVjdCBjb2RlTGluZT0iNDIiIGZpbGw9IiNGMUYxRjEiIGhlaWdodD0iNzcuOTY4OCIgaWQ9IlVzZXJSb2xlcyIgcng9IjIuNSIgcnk9IjIuNSIgc3R5bGU9InN0cm9rZTojMTgxODE4O3N0cm9rZS13aWR0aDowLjU7IiB3aWR0aD0iMTEwIiB4PSI3NTYuNSIgeT0iNzU1LjUiLz48ZWxsaXBzZSBjeD0iNzc4LjI1IiBjeT0iNzcxLjUiIGZpbGw9IiNBREQxQjIiIHJ4PSIxMSIgcnk9IjExIiBzdHlsZT0ic3Ryb2tlOiMxODE4MTg7c3Ryb2tlLXdpZHRoOjEuMDsiLz48cGF0aCBkPSJNNzc1Ljg3NSw3NzUuNzUgTDc3NS44NzUsNzc3LjUgTDc4MC44MTI1LDc3Ny41IEw3ODAuODEyNSw3NzUuNzUgTDc3NS44NzUsNzc1Ljc1IFogTTc3Ni41NjI1LDc3Ni40Mzc1IFE3NzYuNTYyNSw3NzYuNDM3NSA3NzYuNTYyNSw3NjcuMjUgTDc3NC44MTI1LDc2Ny4yNSBRNzc0LjgxMjUsNzY3LjI1IDc3NC44MTI1LDc3Ni40Mzc1IEw3NzYuNTYyNSw3NzYuNDM3NSBaIE03ODAuMTI1LDc3Ni40Mzc1IEw3ODEuODc1LDc3Ni40Mzc1IFE3ODEuODc1LDc3Ni40Mzc1IDc4MS44NzUsNzczLjYyNSBMNzgwLjEyNSw3NzMuNjI1IFE3ODAuMTI1LDc3My42MjUgNzgwLjEyNSw3NzYuNDM3NSBaIE03ODAuMTI1LDc2Ny4yNSBRNzgwLjEyNSw3NjcuMjUgNzgwLjEyNSw3NzAuMDYyNSBMNzgxLjg3NSw3NzAuMDYyNSBRNzgxLjg3NSw3NzAuMDYyNSA3ODEuODc1LDc2Ny4yNSBMNzgwLjEyNSw3NjcuMjUgWiBNNzc1Ljg3NSw3NjcuOTM3NSBMNzgwLjgxMjUsNzY3LjkzNzUgTDc4MC44MTI1LDc2Ni4xODc1IEw3NzUuODc1LDc2Ni4xODc1IEw3NzUuODc1LDc2Ny45Mzc1IFogIiBmaWxsPSIjMDAwMDAwIi8+PHRleHQgZmlsbD0iIzAwMDAwMCIgZm9udC1mYW1pbHk9InNhbnMtc2VyaWYiIGZvbnQtc2l6ZT0iMTQiIGxlbmd0aEFkanVzdD0ic3BhY2luZyIgdGV4dExlbmd0aD0iNjMiIHg9Ijc5My43NSIgeT0iNzc3LjI0MjIiPlVzZXJSb2xlczwvdGV4dD48bGluZSBzdHlsZT0ic3Ryb2tlOiMxODE4MTg7c3Ryb2tlLXdpZHRoOjAuNTsiIHgxPSI3NTcuNSIgeDI9Ijg2NS41IiB5MT0iNzg3LjUiIHkyPSI3ODcuNSIvPjxlbGxpcHNlIGN4PSI3NjcuNSIgY3k9IjgwMC40OTIyIiBmaWxsPSJub25lIiByeD0iMyIgcnk9IjMiIHN0eWxlPSJzdHJva2U6IzAzODA0ODtzdHJva2Utd2lkdGg6MS4wOyIvPjx0ZXh0IGZpbGw9IiMwMDAwMDAiIGZvbnQtZmFtaWx5PSJzYW5zLXNlcmlmIiBmb250LXNpemU9IjE0IiBsZW5ndGhBZGp1c3Q9InNwYWNpbmciIHRleHRMZW5ndGg9Ijg0IiB4PSI3NzYuNSIgeT0iODA0LjczNDQiPnVzZXJfaWQ6IGludDwvdGV4dD48ZWxsaXBzZSBjeD0iNzY3LjUiIGN5PSI4MTUuNDc2NiIgZmlsbD0ibm9uZSIgcng9IjMiIHJ5PSIzIiBzdHlsZT0ic3Ryb2tlOiMwMzgwNDg7c3Ryb2tlLXdpZHRoOjEuMDsiLz48dGV4dCBmaWxsPSIjMDAwMDAwIiBmb250LWZhbWlseT0ic2Fucy1zZXJpZiIgZm9udC1zaXplPSIxNCIgbGVuZ3RoQWRqdXN0PSJzcGFjaW5nIiB0ZXh0TGVuZ3RoPSI4NCIgeD0iNzc2LjUiIHk9IjgxOS43MTg4Ij5yb2xlX2lkOiBpbnQ8L3RleHQ+PGxpbmUgc3R5bGU9InN0cm9rZTojMTgxODE4O3N0cm9rZS13aWR0aDowLjU7IiB4MT0iNzU3LjUiIHgyPSI4NjUuNSIgeTE9IjgyNS40Njg4IiB5Mj0iODI1LjQ2ODgiLz48L2c+PCEtLWNsYXNzIEN1aXNpbmVUeXBlcy0tPjxnIGlkPSJlbGVtX0N1aXNpbmVUeXBlcyI+PHJlY3QgY29kZUxpbmU9IjQ4IiBmaWxsPSIjRjFGMUYxIiBoZWlnaHQ9IjEwNy45Mzc1IiBpZD0iQ3Vpc2luZVR5cGVzIiByeD0iMi41IiByeT0iMi41IiBzdHlsZT0ic3Ryb2tlOiMxODE4MTg7c3Ryb2tlLXdpZHRoOjAuNTsiIHdpZHRoPSIxNjciIHg9IjExMzciIHk9IjQ0NSIvPjxlbGxpcHNlIGN4PSIxMTc0Ljk1IiBjeT0iNDYxIiBmaWxsPSIjQUREMUIyIiByeD0iMTEiIHJ5PSIxMSIgc3R5bGU9InN0cm9rZTojMTgxODE4O3N0cm9rZS13aWR0aDoxLjA7Ii8+PHBhdGggZD0iTTExNzIuNTc1LDQ2NS4yNSBMMTE3Mi41NzUsNDY3IEwxMTc3LjUxMjUsNDY3IEwxMTc3LjUxMjUsNDY1LjI1IEwxMTcyLjU3NSw0NjUuMjUgWiBNMTE3My4yNjI1LDQ2NS45Mzc1IFExMTczLjI2MjUsNDY1LjkzNzUgMTE3My4yNjI1LDQ1Ni43NSBMMTE3MS41MTI1LDQ1Ni43NSBRMTE3MS41MTI1LDQ1Ni43NSAxMTcxLjUxMjUsNDY1LjkzNzUgTDExNzMuMjYyNSw0NjUuOTM3NSBaIE0xMTc2LjgyNSw0NjUuOTM3NSBMMTE3OC41NzUsNDY1LjkzNzUgUTExNzguNTc1LDQ2NS45Mzc1IDExNzguNTc1LDQ2My4xMjUgTDExNzYuODI1LDQ2My4xMjUgUTExNzYuODI1LDQ2My4xMjUgMTE3Ni44MjUsNDY1LjkzNzUgWiBNMTE3Ni44MjUsNDU2Ljc1IFExMTc2LjgyNSw0NTYuNzUgMTE3Ni44MjUsNDU5LjU2MjUgTDExNzguNTc1LDQ1OS41NjI1IFExMTc4LjU3NSw0NTkuNTYyNSAxMTc4LjU3NSw0NTYuNzUgTDExNzYuODI1LDQ1Ni43NSBaIE0xMTcyLjU3NSw0NTcuNDM3NSBMMTE3Ny41MTI1LDQ1Ny40Mzc1IEwxMTc3LjUxMjUsNDU1LjY4NzUgTDExNzIuNTc1LDQ1NS42ODc1IEwxMTcyLjU3NSw0NTcuNDM3NSBaICIgZmlsbD0iIzAwMDAwMCIvPjx0ZXh0IGZpbGw9IiMwMDAwMDAiIGZvbnQtZmFtaWx5PSJzYW5zLXNlcmlmIiBmb250LXNpemU9IjE0IiBsZW5ndGhBZGp1c3Q9InNwYWNpbmciIHRleHRMZW5ndGg9Ijg0IiB4PSIxMTk0LjA1IiB5PSI0NjYuNzQyMiI+Q3Vpc2luZVR5cGVzPC90ZXh0PjxsaW5lIHN0eWxlPSJzdHJva2U6IzE4MTgxODtzdHJva2Utd2lkdGg6MC41OyIgeDE9IjExMzgiIHgyPSIxMzAzIiB5MT0iNDc3IiB5Mj0iNDc3Ii8+PGVsbGlwc2UgY3g9IjExNDgiIGN5PSI0ODkuOTkyMiIgZmlsbD0ibm9uZSIgcng9IjMiIHJ5PSIzIiBzdHlsZT0ic3Ryb2tlOiMwMzgwNDg7c3Ryb2tlLXdpZHRoOjEuMDsiLz48dGV4dCBmaWxsPSIjMDAwMDAwIiBmb250LWZhbWlseT0ic2Fucy1zZXJpZiIgZm9udC1zaXplPSIxNCIgbGVuZ3RoQWRqdXN0PSJzcGFjaW5nIiB0ZXh0TGVuZ3RoPSIxNDAiIHg9IjExNTciIHk9IjQ5NC4yMzQ0Ij5jdWlzaW5lX3R5cGVfaWQ6IGludDwvdGV4dD48ZWxsaXBzZSBjeD0iMTE0OCIgY3k9IjUwNC45NzY2IiBmaWxsPSJub25lIiByeD0iMyIgcnk9IjMiIHN0eWxlPSJzdHJva2U6IzAzODA0ODtzdHJva2Utd2lkdGg6MS4wOyIvPjx0ZXh0IGZpbGw9IiMwMDAwMDAiIGZvbnQtZmFtaWx5PSJzYW5zLXNlcmlmIiBmb250LXNpemU9IjE0IiBsZW5ndGhBZGp1c3Q9InNwYWNpbmciIHRleHRMZW5ndGg9IjE0MSIgeD0iMTE1NyIgeT0iNTA5LjIxODgiPmN1aXNpbmVfbmFtZTogc3RyaW5nPC90ZXh0PjxsaW5lIHN0eWxlPSJzdHJva2U6IzE4MTgxODtzdHJva2Utd2lkdGg6MC41OyIgeDE9IjExMzgiIHgyPSIxMzAzIiB5MT0iNTE0Ljk2ODgiIHkyPSI1MTQuOTY4OCIvPjxlbGxpcHNlIGN4PSIxMTQ4IiBjeT0iNTI3Ljk2MDkiIGZpbGw9IiM4NEJFODQiIHJ4PSIzIiByeT0iMyIgc3R5bGU9InN0cm9rZTojMDM4MDQ4O3N0cm9rZS13aWR0aDoxLjA7Ii8+PHRleHQgZmlsbD0iIzAwMDAwMCIgZm9udC1mYW1pbHk9InNhbnMtc2VyaWYiIGZvbnQtc2l6ZT0iMTQiIGxlbmd0aEFkanVzdD0ic3BhY2luZyIgdGV4dExlbmd0aD0iOTMiIHg9IjExNTciIHk9IjUzMi4yMDMxIj5hZGRfY3Vpc2luZSgpPC90ZXh0PjxlbGxpcHNlIGN4PSIxMTQ4IiBjeT0iNTQyLjk0NTMiIGZpbGw9IiM4NEJFODQiIHJ4PSIzIiByeT0iMyIgc3R5bGU9InN0cm9rZTojMDM4MDQ4O3N0cm9rZS13aWR0aDoxLjA7Ii8+PHRleHQgZmlsbD0iIzAwMDAwMCIgZm9udC1mYW1pbHk9InNhbnMtc2VyaWYiIGZvbnQtc2l6ZT0iMTQiIGxlbmd0aEFkanVzdD0ic3BhY2luZyIgdGV4dExlbmd0aD0iMTE0IiB4PSIxMTU3IiB5PSI1NDcuMTg3NSI+ZGVsZXRlX2N1aXNpbmUoKTwvdGV4dD48L2c+PCEtLWNsYXNzIFJlc3RhdXJhbnQtLT48ZyBpZD0iZWxlbV9SZXN0YXVyYW50Ij48cmVjdCBjb2RlTGluZT0iNTYiIGZpbGw9IiNGMUYxRjEiIGhlaWdodD0iMjU3Ljc4MTMiIGlkPSJSZXN0YXVyYW50IiByeD0iMi41IiByeT0iMi41IiBzdHlsZT0ic3Ryb2tlOiMxODE4MTg7c3Ryb2tlLXdpZHRoOjAuNTsiIHdpZHRoPSIyMDIiIHg9IjE0MjYuNSIgeT0iNyIvPjxlbGxpcHNlIGN4PSIxNDg4LjI1IiBjeT0iMjMiIGZpbGw9IiNBREQxQjIiIHJ4PSIxMSIgcnk9IjExIiBzdHlsZT0ic3Ryb2tlOiMxODE4MTg7c3Ryb2tlLXdpZHRoOjEuMDsiLz48cGF0aCBkPSJNMTQ4NS44NzUsMjcuMjUgTDE0ODUuODc1LDI5IEwxNDkwLjgxMjUsMjkgTDE0OTAuODEyNSwyNy4yNSBMMTQ4NS44NzUsMjcuMjUgWiBNMTQ4Ni41NjI1LDI3LjkzNzUgUTE0ODYuNTYyNSwyNy45Mzc1IDE0ODYuNTYyNSwxOC43NSBMMTQ4NC44MTI1LDE4Ljc1IFExNDg0LjgxMjUsMTguNzUgMTQ4NC44MTI1LDI3LjkzNzUgTDE0ODYuNTYyNSwyNy45Mzc1IFogTTE0OTAuMTI1LDI3LjkzNzUgTDE0OTEuODc1LDI3LjkzNzUgUTE0OTEuODc1LDI3LjkzNzUgMTQ5MS44NzUsMjUuMTI1IEwxNDkwLjEyNSwyNS4xMjUgUTE0OTAuMTI1LDI1LjEyNSAxNDkwLjEyNSwyNy45Mzc1IFogTTE0OTAuMTI1LDE4Ljc1IFExNDkwLjEyNSwxOC43NSAxNDkwLjEyNSwyMS41NjI1IEwxNDkxLjg3NSwyMS41NjI1IFExNDkxLjg3NSwyMS41NjI1IDE0OTEuODc1LDE4Ljc1IEwxNDkwLjEyNSwxOC43NSBaIE0xNDg1Ljg3NSwxOS40Mzc1IEwxNDkwLjgxMjUsMTkuNDM3NSBMMTQ5MC44MTI1LDE3LjY4NzUgTDE0ODUuODc1LDE3LjY4NzUgTDE0ODUuODc1LDE5LjQzNzUgWiAiIGZpbGw9IiMwMDAwMDAiLz48dGV4dCBmaWxsPSIjMDAwMDAwIiBmb250LWZhbWlseT0ic2Fucy1zZXJpZiIgZm9udC1zaXplPSIxNCIgbGVuZ3RoQWRqdXN0PSJzcGFjaW5nIiB0ZXh0TGVuZ3RoPSI3MCIgeD0iMTUwOC43NSIgeT0iMjguNzQyMiI+UmVzdGF1cmFudDwvdGV4dD48bGluZSBzdHlsZT0ic3Ryb2tlOiMxODE4MTg7c3Ryb2tlLXdpZHRoOjAuNTsiIHgxPSIxNDI3LjUiIHgyPSIxNjI3LjUiIHkxPSIzOSIgeTI9IjM5Ii8+PGVsbGlwc2UgY3g9IjE0MzcuNSIgY3k9IjUxLjk5MjIiIGZpbGw9Im5vbmUiIHJ4PSIzIiByeT0iMyIgc3R5bGU9InN0cm9rZTojMDM4MDQ4O3N0cm9rZS13aWR0aDoxLjA7Ii8+PHRleHQgZmlsbD0iIzAwMDAwMCIgZm9udC1mYW1pbHk9InNhbnMtc2VyaWYiIGZvbnQtc2l6ZT0iMTQiIGxlbmd0aEFkanVzdD0ic3BhY2luZyIgdGV4dExlbmd0aD0iMTI2IiB4PSIxNDQ2LjUiIHk9IjU2LjIzNDQiPnJlc3RhdXJhbnRfaWQ6IGludDwvdGV4dD48ZWxsaXBzZSBjeD0iMTQzNy41IiBjeT0iNjYuOTc2NiIgZmlsbD0ibm9uZSIgcng9IjMiIHJ5PSIzIiBzdHlsZT0ic3Ryb2tlOiMwMzgwNDg7c3Ryb2tlLXdpZHRoOjEuMDsiLz48dGV4dCBmaWxsPSIjMDAwMDAwIiBmb250LWZhbWlseT0ic2Fucy1zZXJpZiIgZm9udC1zaXplPSIxNCIgbGVuZ3RoQWRqdXN0PSJzcGFjaW5nIiB0ZXh0TGVuZ3RoPSI4NCIgeD0iMTQ0Ni41IiB5PSI3MS4yMTg4Ij51c2VyX2lkOiBpbnQ8L3RleHQ+PGVsbGlwc2UgY3g9IjE0MzcuNSIgY3k9IjgxLjk2MDkiIGZpbGw9Im5vbmUiIHJ4PSIzIiByeT0iMyIgc3R5bGU9InN0cm9rZTojMDM4MDQ4O3N0cm9rZS13aWR0aDoxLjA7Ii8+PHRleHQgZmlsbD0iIzAwMDAwMCIgZm9udC1mYW1pbHk9InNhbnMtc2VyaWYiIGZvbnQtc2l6ZT0iMTQiIGxlbmd0aEFkanVzdD0ic3BhY2luZyIgdGV4dExlbmd0aD0iOTgiIHg9IjE0NDYuNSIgeT0iODYuMjAzMSI+c3RhdHVzOiBzdHJpbmc8L3RleHQ+PGVsbGlwc2UgY3g9IjE0MzcuNSIgY3k9Ijk2Ljk0NTMiIGZpbGw9Im5vbmUiIHJ4PSIzIiByeT0iMyIgc3R5bGU9InN0cm9rZTojMDM4MDQ4O3N0cm9rZS13aWR0aDoxLjA7Ii8+PHRleHQgZmlsbD0iIzAwMDAwMCIgZm9udC1mYW1pbHk9InNhbnMtc2VyaWYiIGZvbnQtc2l6ZT0iMTQiIGxlbmd0aEFkanVzdD0ic3BhY2luZyIgdGV4dExlbmd0aD0iMTA1IiB4PSIxNDQ2LjUiIHk9IjEwMS4xODc1Ij5pc19hY3RpdmU6IGJvb2w8L3RleHQ+PGVsbGlwc2UgY3g9IjE0MzcuNSIgY3k9IjExMS45Mjk3IiBmaWxsPSJub25lIiByeD0iMyIgcnk9IjMiIHN0eWxlPSJzdHJva2U6IzAzODA0ODtzdHJva2Utd2lkdGg6MS4wOyIvPjx0ZXh0IGZpbGw9IiMwMDAwMDAiIGZvbnQtZmFtaWx5PSJzYW5zLXNlcmlmIiBmb250LXNpemU9IjE0IiBsZW5ndGhBZGp1c3Q9InNwYWNpbmciIHRleHRMZW5ndGg9IjEwNiIgeD0iMTQ0Ni41IiB5PSIxMTYuMTcxOSI+bWVzc2FnZTogc3RyaW5nPC90ZXh0PjxlbGxpcHNlIGN4PSIxNDM3LjUiIGN5PSIxMjYuOTE0MSIgZmlsbD0ibm9uZSIgcng9IjMiIHJ5PSIzIiBzdHlsZT0ic3Ryb2tlOiMwMzgwNDg7c3Ryb2tlLXdpZHRoOjEuMDsiLz48dGV4dCBmaWxsPSIjMDAwMDAwIiBmb250LWZhbWlseT0ic2Fucy1zZXJpZiIgZm9udC1zaXplPSIxNCIgbGVuZ3RoQWRqdXN0PSJzcGFjaW5nIiB0ZXh0TGVuZ3RoPSIxNjIiIHg9IjE0NDYuNSIgeT0iMTMxLjE1NjMiPnJlc3RhdXJhbnRfbmFtZTogc3RyaW5nPC90ZXh0PjxlbGxpcHNlIGN4PSIxNDM3LjUiIGN5PSIxNDEuODk4NCIgZmlsbD0ibm9uZSIgcng9IjMiIHJ5PSIzIiBzdHlsZT0ic3Ryb2tlOiMwMzgwNDg7c3Ryb2tlLXdpZHRoOjEuMDsiLz48dGV4dCBmaWxsPSIjMDAwMDAwIiBmb250LWZhbWlseT0ic2Fucy1zZXJpZiIgZm9udC1zaXplPSIxNCIgbGVuZ3RoQWRqdXN0PSJzcGFjaW5nIiB0ZXh0TGVuZ3RoPSIxMzMiIHg9IjE0NDYuNSIgeT0iMTQ2LjE0MDYiPmRlc2NyaXB0aW9uOiBzdHJpbmc8L3RleHQ+PGVsbGlwc2UgY3g9IjE0MzcuNSIgY3k9IjE1Ni44ODI4IiBmaWxsPSJub25lIiByeD0iMyIgcnk9IjMiIHN0eWxlPSJzdHJva2U6IzAzODA0ODtzdHJva2Utd2lkdGg6MS4wOyIvPjx0ZXh0IGZpbGw9IiMwMDAwMDAiIGZvbnQtZmFtaWx5PSJzYW5zLXNlcmlmIiBmb250LXNpemU9IjE0IiBsZW5ndGhBZGp1c3Q9InNwYWNpbmciIHRleHRMZW5ndGg9IjE3NiIgeD0iMTQ0Ni41IiB5PSIxNjEuMTI1Ij5vcmRlcl9yZXF1aXJlbWVudDogc3RyaW5nPC90ZXh0PjxlbGxpcHNlIGN4PSIxNDM3LjUiIGN5PSIxNzEuODY3MiIgZmlsbD0ibm9uZSIgcng9IjMiIHJ5PSIzIiBzdHlsZT0ic3Ryb2tlOiMwMzgwNDg7c3Ryb2tlLXdpZHRoOjEuMDsiLz48dGV4dCBmaWxsPSIjMDAwMDAwIiBmb250LWZhbWlseT0ic2Fucy1zZXJpZiIgZm9udC1zaXplPSIxNCIgbGVuZ3RoQWRqdXN0PSJzcGFjaW5nIiB0ZXh0TGVuZ3RoPSIxMjAiIHg9IjE0NDYuNSIgeT0iMTc2LjEwOTQiPmltYWdlX3VybDogc3RyaW5nPC90ZXh0PjxlbGxpcHNlIGN4PSIxNDM3LjUiIGN5PSIxODYuODUxNiIgZmlsbD0ibm9uZSIgcng9IjMiIHJ5PSIzIiBzdHlsZT0ic3Ryb2tlOiMwMzgwNDg7c3Ryb2tlLXdpZHRoOjEuMDsiLz48dGV4dCBmaWxsPSIjMDAwMDAwIiBmb250LWZhbWlseT0ic2Fucy1zZXJpZiIgZm9udC1zaXplPSIxNCIgbGVuZ3RoQWRqdXN0PSJzcGFjaW5nIiB0ZXh0TGVuZ3RoPSIxNDEiIHg9IjE0NDYuNSIgeT0iMTkxLjA5MzgiPmNyZWF0ZWRfYXQ6IGRhdGV0aW1lPC90ZXh0PjxlbGxpcHNlIGN4PSIxNDM3LjUiIGN5PSIyMDEuODM1OSIgZmlsbD0ibm9uZSIgcng9IjMiIHJ5PSIzIiBzdHlsZT0ic3Ryb2tlOiMwMzgwNDg7c3Ryb2tlLXdpZHRoOjEuMDsiLz48dGV4dCBmaWxsPSIjMDAwMDAwIiBmb250LWZhbWlseT0ic2Fucy1zZXJpZiIgZm9udC1zaXplPSIxNCIgbGVuZ3RoQWRqdXN0PSJzcGFjaW5nIiB0ZXh0TGVuZ3RoPSIxMDUiIHg9IjE0NDYuNSIgeT0iMjA2LjA3ODEiPmFkZHJlc3NfaWQ6IGludDwvdGV4dD48bGluZSBzdHlsZT0ic3Ryb2tlOiMxODE4MTg7c3Ryb2tlLXdpZHRoOjAuNTsiIHgxPSIxNDI3LjUiIHgyPSIxNjI3LjUiIHkxPSIyMTEuODI4MSIgeTI9IjIxMS44MjgxIi8+PGVsbGlwc2UgY3g9IjE0MzcuNSIgY3k9IjIyNC44MjAzIiBmaWxsPSIjODRCRTg0IiByeD0iMyIgcnk9IjMiIHN0eWxlPSJzdHJva2U6IzAzODA0ODtzdHJva2Utd2lkdGg6MS4wOyIvPjx0ZXh0IGZpbGw9IiMwMDAwMDAiIGZvbnQtZmFtaWx5PSJzYW5zLXNlcmlmIiBmb250LXNpemU9IjE0IiBsZW5ndGhBZGp1c3Q9InNwYWNpbmciIHRleHRMZW5ndGg9IjEwNyIgeD0iMTQ0Ni41IiB5PSIyMjkuMDYyNSI+dXBkYXRlX3N0YXR1cygpPC90ZXh0PjxlbGxpcHNlIGN4PSIxNDM3LjUiIGN5PSIyMzkuODA0NyIgZmlsbD0iIzg0QkU4NCIgcng9IjMiIHJ5PSIzIiBzdHlsZT0ic3Ryb2tlOiMwMzgwNDg7c3Ryb2tlLXdpZHRoOjEuMDsiLz48dGV4dCBmaWxsPSIjMDAwMDAwIiBmb250LWZhbWlseT0ic2Fucy1zZXJpZiIgZm9udC1zaXplPSIxNCIgbGVuZ3RoQWRqdXN0PSJzcGFjaW5nIiB0ZXh0TGVuZ3RoPSI3MiIgeD0iMTQ0Ni41IiB5PSIyNDQuMDQ2OSI+YWRkX2Zvb2QoKTwvdGV4dD48ZWxsaXBzZSBjeD0iMTQzNy41IiBjeT0iMjU0Ljc4OTEiIGZpbGw9IiM4NEJFODQiIHJ4PSIzIiByeT0iMyIgc3R5bGU9InN0cm9rZTojMDM4MDQ4O3N0cm9rZS13aWR0aDoxLjA7Ii8+PHRleHQgZmlsbD0iIzAwMDAwMCIgZm9udC1mYW1pbHk9InNhbnMtc2VyaWYiIGZvbnQtc2l6ZT0iMTQiIGxlbmd0aEFkanVzdD0ic3BhY2luZyIgdGV4dExlbmd0aD0iOTQiIHg9IjE0NDYuNSIgeT0iMjU5LjAzMTMiPnZpZXdfb3JkZXJzKCk8L3RleHQ+PC9nPjwhLS1jbGFzcyBSZXN0YXVyYW50Q3Vpc2luZS0tPjxnIGlkPSJlbGVtX1Jlc3RhdXJhbnRDdWlzaW5lIj48cmVjdCBjb2RlTGluZT0iNzQiIGZpbGw9IiNGMUYxRjEiIGhlaWdodD0iMTA3LjkzNzUiIGlkPSJSZXN0YXVyYW50Q3Vpc2luZSIgcng9IjIuNSIgcnk9IjIuNSIgc3R5bGU9InN0cm9rZTojMTgxODE4O3N0cm9rZS13aWR0aDowLjU7IiB3aWR0aD0iMjE3IiB4PSI3IiB5PSI4MiIvPjxlbGxpcHNlIGN4PSI1MS43NSIgY3k9Ijk4IiBmaWxsPSIjQUREMUIyIiByeD0iMTEiIHJ5PSIxMSIgc3R5bGU9InN0cm9rZTojMTgxODE4O3N0cm9rZS13aWR0aDoxLjA7Ii8+PHBhdGggZD0iTTQ5LjM3NSwxMDIuMjUgTDQ5LjM3NSwxMDQgTDU0LjMxMjUsMTA0IEw1NC4zMTI1LDEwMi4yNSBMNDkuMzc1LDEwMi4yNSBaIE01MC4wNjI1LDEwMi45Mzc1IFE1MC4wNjI1LDEwMi45Mzc1IDUwLjA2MjUsOTMuNzUgTDQ4LjMxMjUsOTMuNzUgUTQ4LjMxMjUsOTMuNzUgNDguMzEyNSwxMDIuOTM3NSBMNTAuMDYyNSwxMDIuOTM3NSBaIE01My42MjUsMTAyLjkzNzUgTDU1LjM3NSwxMDIuOTM3NSBRNTUuMzc1LDEwMi45Mzc1IDU1LjM3NSwxMDAuMTI1IEw1My42MjUsMTAwLjEyNSBRNTMuNjI1LDEwMC4xMjUgNTMuNjI1LDEwMi45Mzc1IFogTTUzLjYyNSw5My43NSBRNTMuNjI1LDkzLjc1IDUzLjYyNSw5Ni41NjI1IEw1NS4zNzUsOTYuNTYyNSBRNTUuMzc1LDk2LjU2MjUgNTUuMzc1LDkzLjc1IEw1My42MjUsOTMuNzUgWiBNNDkuMzc1LDk0LjQzNzUgTDU0LjMxMjUsOTQuNDM3NSBMNTQuMzEyNSw5Mi42ODc1IEw0OS4zNzUsOTIuNjg3NSBMNDkuMzc1LDk0LjQzNzUgWiAiIGZpbGw9IiMwMDAwMDAiLz48dGV4dCBmaWxsPSIjMDAwMDAwIiBmb250LWZhbWlseT0ic2Fucy1zZXJpZiIgZm9udC1zaXplPSIxNCIgbGVuZ3RoQWRqdXN0PSJzcGFjaW5nIiB0ZXh0TGVuZ3RoPSIxMTkiIHg9IjcyLjI1IiB5PSIxMDMuNzQyMiI+UmVzdGF1cmFudEN1aXNpbmU8L3RleHQ+PGxpbmUgc3R5bGU9InN0cm9rZTojMTgxODE4O3N0cm9rZS13aWR0aDowLjU7IiB4MT0iOCIgeDI9IjIyMyIgeTE9IjExNCIgeTI9IjExNCIvPjxlbGxpcHNlIGN4PSIxOCIgY3k9IjEyNi45OTIyIiBmaWxsPSJub25lIiByeD0iMyIgcnk9IjMiIHN0eWxlPSJzdHJva2U6IzAzODA0ODtzdHJva2Utd2lkdGg6MS4wOyIvPjx0ZXh0IGZpbGw9IiMwMDAwMDAiIGZvbnQtZmFtaWx5PSJzYW5zLXNlcmlmIiBmb250LXNpemU9IjE0IiBsZW5ndGhBZGp1c3Q9InNwYWNpbmciIHRleHRMZW5ndGg9IjEyNiIgeD0iMjciIHk9IjEzMS4yMzQ0Ij5yZXN0YXVyYW50X2lkOiBpbnQ8L3RleHQ+PGVsbGlwc2UgY3g9IjE4IiBjeT0iMTQxLjk3NjYiIGZpbGw9Im5vbmUiIHJ4PSIzIiByeT0iMyIgc3R5bGU9InN0cm9rZTojMDM4MDQ4O3N0cm9rZS13aWR0aDoxLjA7Ii8+PHRleHQgZmlsbD0iIzAwMDAwMCIgZm9udC1mYW1pbHk9InNhbnMtc2VyaWYiIGZvbnQtc2l6ZT0iMTQiIGxlbmd0aEFkanVzdD0ic3BhY2luZyIgdGV4dExlbmd0aD0iMTQwIiB4PSIyNyIgeT0iMTQ2LjIxODgiPmN1aXNpbmVfdHlwZV9pZDogaW50PC90ZXh0PjxsaW5lIHN0eWxlPSJzdHJva2U6IzE4MTgxODtzdHJva2Utd2lkdGg6MC41OyIgeDE9IjgiIHgyPSIyMjMiIHkxPSIxNTEuOTY4OCIgeTI9IjE1MS45Njg4Ii8+PGVsbGlwc2UgY3g9IjE4IiBjeT0iMTY0Ljk2MDkiIGZpbGw9IiM4NEJFODQiIHJ4PSIzIiByeT0iMyIgc3R5bGU9InN0cm9rZTojMDM4MDQ4O3N0cm9rZS13aWR0aDoxLjA7Ii8+PHRleHQgZmlsbD0iIzAwMDAwMCIgZm9udC1mYW1pbHk9InNhbnMtc2VyaWYiIGZvbnQtc2l6ZT0iMTQiIGxlbmd0aEFkanVzdD0ic3BhY2luZyIgdGV4dExlbmd0aD0iMTcwIiB4PSIyNyIgeT0iMTY5LjIwMzEiPmFkZF9jdWlzaW5lX3Jlc3RhdXJhbnQoKTwvdGV4dD48ZWxsaXBzZSBjeD0iMTgiIGN5PSIxNzkuOTQ1MyIgZmlsbD0iIzg0QkU4NCIgcng9IjMiIHJ5PSIzIiBzdHlsZT0ic3Ryb2tlOiMwMzgwNDg7c3Ryb2tlLXdpZHRoOjEuMDsiLz48dGV4dCBmaWxsPSIjMDAwMDAwIiBmb250LWZhbWlseT0ic2Fucy1zZXJpZiIgZm9udC1zaXplPSIxNCIgbGVuZ3RoQWRqdXN0PSJzcGFjaW5nIiB0ZXh0TGVuZ3RoPSIxOTEiIHg9IjI3IiB5PSIxODQuMTg3NSI+ZGVsZXRlX2N1aXNpbmVfcmVzdGF1cmFudCgpPC90ZXh0PjwvZz48IS0tY2xhc3MgV29ya2luZ1RpbWUtLT48ZyBpZD0iZWxlbV9Xb3JraW5nVGltZSI+PHJlY3QgY29kZUxpbmU9IjgyIiBmaWxsPSIjRjFGMUYxIiBoZWlnaHQ9IjE4Mi44NTk0IiBpZD0iV29ya2luZ1RpbWUiIHJ4PSIyLjUiIHJ5PSIyLjUiIHN0eWxlPSJzdHJva2U6IzE4MTgxODtzdHJva2Utd2lkdGg6MC41OyIgd2lkdGg9IjE2OCIgeD0iMTMzOC41IiB5PSI0MDcuNSIvPjxlbGxpcHNlIGN4PSIxMzc5LjYiIGN5PSI0MjMuNSIgZmlsbD0iI0FERDFCMiIgcng9IjExIiByeT0iMTEiIHN0eWxlPSJzdHJva2U6IzE4MTgxODtzdHJva2Utd2lkdGg6MS4wOyIvPjxwYXRoIGQ9Ik0xMzc3LjIyNSw0MjcuNzUgTDEzNzcuMjI1LDQyOS41IEwxMzgyLjE2MjUsNDI5LjUgTDEzODIuMTYyNSw0MjcuNzUgTDEzNzcuMjI1LDQyNy43NSBaIE0xMzc3LjkxMjUsNDI4LjQzNzUgUTEzNzcuOTEyNSw0MjguNDM3NSAxMzc3LjkxMjUsNDE5LjI1IEwxMzc2LjE2MjUsNDE5LjI1IFExMzc2LjE2MjUsNDE5LjI1IDEzNzYuMTYyNSw0MjguNDM3NSBMMTM3Ny45MTI1LDQyOC40Mzc1IFogTTEzODEuNDc1LDQyOC40Mzc1IEwxMzgzLjIyNSw0MjguNDM3NSBRMTM4My4yMjUsNDI4LjQzNzUgMTM4My4yMjUsNDI1LjYyNSBMMTM4MS40NzUsNDI1LjYyNSBRMTM4MS40NzUsNDI1LjYyNSAxMzgxLjQ3NSw0MjguNDM3NSBaIE0xMzgxLjQ3NSw0MTkuMjUgUTEzODEuNDc1LDQxOS4yNSAxMzgxLjQ3NSw0MjIuMDYyNSBMMTM4My4yMjUsNDIyLjA2MjUgUTEzODMuMjI1LDQyMi4wNjI1IDEzODMuMjI1LDQxOS4yNSBMMTM4MS40NzUsNDE5LjI1IFogTTEzNzcuMjI1LDQxOS45Mzc1IEwxMzgyLjE2MjUsNDE5LjkzNzUgTDEzODIuMTYyNSw0MTguMTg3NSBMMTM3Ny4yMjUsNDE4LjE4NzUgTDEzNzcuMjI1LDQxOS45Mzc1IFogIiBmaWxsPSIjMDAwMDAwIi8+PHRleHQgZmlsbD0iIzAwMDAwMCIgZm9udC1mYW1pbHk9InNhbnMtc2VyaWYiIGZvbnQtc2l6ZT0iMTQiIGxlbmd0aEFkanVzdD0ic3BhY2luZyIgdGV4dExlbmd0aD0iNzgiIHg9IjEzOTkuNCIgeT0iNDI5LjI0MjIiPldvcmtpbmdUaW1lPC90ZXh0PjxsaW5lIHN0eWxlPSJzdHJva2U6IzE4MTgxODtzdHJva2Utd2lkdGg6MC41OyIgeDE9IjEzMzkuNSIgeDI9IjE1MDUuNSIgeTE9IjQzOS41IiB5Mj0iNDM5LjUiLz48ZWxsaXBzZSBjeD0iMTM0OS41IiBjeT0iNDUyLjQ5MjIiIGZpbGw9Im5vbmUiIHJ4PSIzIiByeT0iMyIgc3R5bGU9InN0cm9rZTojMDM4MDQ4O3N0cm9rZS13aWR0aDoxLjA7Ii8+PHRleHQgZmlsbD0iIzAwMDAwMCIgZm9udC1mYW1pbHk9InNhbnMtc2VyaWYiIGZvbnQtc2l6ZT0iMTQiIGxlbmd0aEFkanVzdD0ic3BhY2luZyIgdGV4dExlbmd0aD0iMTQyIiB4PSIxMzU4LjUiIHk9IjQ1Ni43MzQ0Ij53b3JraW5nX3RpbWVfaWQ6IGludDwvdGV4dD48ZWxsaXBzZSBjeD0iMTM0OS41IiBjeT0iNDY3LjQ3NjYiIGZpbGw9Im5vbmUiIHJ4PSIzIiByeT0iMyIgc3R5bGU9InN0cm9rZTojMDM4MDQ4O3N0cm9rZS13aWR0aDoxLjA7Ii8+PHRleHQgZmlsbD0iIzAwMDAwMCIgZm9udC1mYW1pbHk9InNhbnMtc2VyaWYiIGZvbnQtc2l6ZT0iMTQiIGxlbmd0aEFkanVzdD0ic3BhY2luZyIgdGV4dExlbmd0aD0iMTI2IiB4PSIxMzU4LjUiIHk9IjQ3MS43MTg4Ij5yZXN0YXVyYW50X2lkOiBpbnQ8L3RleHQ+PGVsbGlwc2UgY3g9IjEzNDkuNSIgY3k9IjQ4Mi40NjA5IiBmaWxsPSJub25lIiByeD0iMyIgcnk9IjMiIHN0eWxlPSJzdHJva2U6IzAzODA0ODtzdHJva2Utd2lkdGg6MS4wOyIvPjx0ZXh0IGZpbGw9IiMwMDAwMDAiIGZvbnQtZmFtaWx5PSJzYW5zLXNlcmlmIiBmb250LXNpemU9IjE0IiBsZW5ndGhBZGp1c3Q9InNwYWNpbmciIHRleHRMZW5ndGg9IjEzNCIgeD0iMTM1OC41IiB5PSI0ODYuNzAzMSI+ZGF5X29mX3dlZWs6IHN0cmluZzwvdGV4dD48ZWxsaXBzZSBjeD0iMTM0OS41IiBjeT0iNDk3LjQ0NTMiIGZpbGw9Im5vbmUiIHJ4PSIzIiByeT0iMyIgc3R5bGU9InN0cm9rZTojMDM4MDQ4O3N0cm9rZS13aWR0aDoxLjA7Ii8+PHRleHQgZmlsbD0iIzAwMDAwMCIgZm9udC1mYW1pbHk9InNhbnMtc2VyaWYiIGZvbnQtc2l6ZT0iMTQiIGxlbmd0aEFkanVzdD0ic3BhY2luZyIgdGV4dExlbmd0aD0iMTI2IiB4PSIxMzU4LjUiIHk9IjUwMS42ODc1Ij5zdGFydF9ob3VyOiBzdHJpbmc8L3RleHQ+PGVsbGlwc2UgY3g9IjEzNDkuNSIgY3k9IjUxMi40Mjk3IiBmaWxsPSJub25lIiByeD0iMyIgcnk9IjMiIHN0eWxlPSJzdHJva2U6IzAzODA0ODtzdHJva2Utd2lkdGg6MS4wOyIvPjx0ZXh0IGZpbGw9IiMwMDAwMDAiIGZvbnQtZmFtaWx5PSJzYW5zLXNlcmlmIiBmb250LXNpemU9IjE0IiBsZW5ndGhBZGp1c3Q9InNwYWNpbmciIHRleHRMZW5ndGg9IjExMiIgeD0iMTM1OC41IiB5PSI1MTYuNjcxOSI+ZW5kX2hvdXI6IHN0cmluZzwvdGV4dD48ZWxsaXBzZSBjeD0iMTM0OS41IiBjeT0iNTI3LjQxNDEiIGZpbGw9Im5vbmUiIHJ4PSIzIiByeT0iMyIgc3R5bGU9InN0cm9rZTojMDM4MDQ4O3N0cm9rZS13aWR0aDoxLjA7Ii8+PHRleHQgZmlsbD0iIzAwMDAwMCIgZm9udC1mYW1pbHk9InNhbnMtc2VyaWYiIGZvbnQtc2l6ZT0iMTQiIGxlbmd0aEFkanVzdD0ic3BhY2luZyIgdGV4dExlbmd0aD0iOTEiIHg9IjEzNTguNSIgeT0iNTMxLjY1NjMiPmlzX29wZW46IGJvb2w8L3RleHQ+PGxpbmUgc3R5bGU9InN0cm9rZTojMTgxODE4O3N0cm9rZS13aWR0aDowLjU7IiB4MT0iMTMzOS41IiB4Mj0iMTUwNS41IiB5MT0iNTM3LjQwNjMiIHkyPSI1MzcuNDA2MyIvPjxlbGxpcHNlIGN4PSIxMzQ5LjUiIGN5PSI1NTAuMzk4NCIgZmlsbD0iIzg0QkU4NCIgcng9IjMiIHJ5PSIzIiBzdHlsZT0ic3Ryb2tlOiMwMzgwNDg7c3Ryb2tlLXdpZHRoOjEuMDsiLz48dGV4dCBmaWxsPSIjMDAwMDAwIiBmb250LWZhbWlseT0ic2Fucy1zZXJpZiIgZm9udC1zaXplPSIxNCIgbGVuZ3RoQWRqdXN0PSJzcGFjaW5nIiB0ZXh0TGVuZ3RoPSI3MyIgeD0iMTM1OC41IiB5PSI1NTQuNjQwNiI+YWRkX3RpbWUoKTwvdGV4dD48ZWxsaXBzZSBjeD0iMTM0OS41IiBjeT0iNTY1LjM4MjgiIGZpbGw9IiM4NEJFODQiIHJ4PSIzIiByeT0iMyIgc3R5bGU9InN0cm9rZTojMDM4MDQ4O3N0cm9rZS13aWR0aDoxLjA7Ii8+PHRleHQgZmlsbD0iIzAwMDAwMCIgZm9udC1mYW1pbHk9InNhbnMtc2VyaWYiIGZvbnQtc2l6ZT0iMTQiIGxlbmd0aEFkanVzdD0ic3BhY2luZyIgdGV4dExlbmd0aD0iOTQiIHg9IjEzNTguNSIgeT0iNTY5LjYyNSI+ZGVsZXRlX3RpbWUoKTwvdGV4dD48ZWxsaXBzZSBjeD0iMTM0OS41IiBjeT0iNTgwLjM2NzIiIGZpbGw9IiM4NEJFODQiIHJ4PSIzIiByeT0iMyIgc3R5bGU9InN0cm9rZTojMDM4MDQ4O3N0cm9rZS13aWR0aDoxLjA7Ii8+PHRleHQgZmlsbD0iIzAwMDAwMCIgZm9udC1mYW1pbHk9InNhbnMtc2VyaWYiIGZvbnQtc2l6ZT0iMTQiIGxlbmd0aEFkanVzdD0ic3BhY2luZyIgdGV4dExlbmd0aD0iNTkiIHg9IjEzNTguNSIgeT0iNTg0LjYwOTQiPm1vZGlmeSgpPC90ZXh0PjwvZz48IS0tY2xhc3MgRm9vZC0tPjxnIGlkPSJlbGVtX0Zvb2QiPjxyZWN0IGNvZGVMaW5lPSI5NSIgZmlsbD0iI0YxRjFGMSIgaGVpZ2h0PSIzMTcuNzE4OCIgaWQ9IkZvb2QiIHJ4PSIyLjUiIHJ5PSIyLjUiIHN0eWxlPSJzdHJva2U6IzE4MTgxODtzdHJva2Utd2lkdGg6MC41OyIgd2lkdGg9IjE5NSIgeD0iMTk3MiIgeT0iMzQwIi8+PGVsbGlwc2UgY3g9IjIwNTEuMjUiIGN5PSIzNTYiIGZpbGw9IiNBREQxQjIiIHJ4PSIxMSIgcnk9IjExIiBzdHlsZT0ic3Ryb2tlOiMxODE4MTg7c3Ryb2tlLXdpZHRoOjEuMDsiLz48cGF0aCBkPSJNMjA0OC44NzUsMzYwLjI1IEwyMDQ4Ljg3NSwzNjIgTDIwNTMuODEyNSwzNjIgTDIwNTMuODEyNSwzNjAuMjUgTDIwNDguODc1LDM2MC4yNSBaIE0yMDQ5LjU2MjUsMzYwLjkzNzUgUTIwNDkuNTYyNSwzNjAuOTM3NSAyMDQ5LjU2MjUsMzUxLjc1IEwyMDQ3LjgxMjUsMzUxLjc1IFEyMDQ3LjgxMjUsMzUxLjc1IDIwNDcuODEyNSwzNjAuOTM3NSBMMjA0OS41NjI1LDM2MC45Mzc1IFogTTIwNTMuMTI1LDM2MC45Mzc1IEwyMDU0Ljg3NSwzNjAuOTM3NSBRMjA1NC44NzUsMzYwLjkzNzUgMjA1NC44NzUsMzU4LjEyNSBMMjA1My4xMjUsMzU4LjEyNSBRMjA1My4xMjUsMzU4LjEyNSAyMDUzLjEyNSwzNjAuOTM3NSBaIE0yMDUzLjEyNSwzNTEuNzUgUTIwNTMuMTI1LDM1MS43NSAyMDUzLjEyNSwzNTQuNTYyNSBMMjA1NC44NzUsMzU0LjU2MjUgUTIwNTQuODc1LDM1NC41NjI1IDIwNTQuODc1LDM1MS43NSBMMjA1My4xMjUsMzUxLjc1IFogTTIwNDguODc1LDM1Mi40Mzc1IEwyMDUzLjgxMjUsMzUyLjQzNzUgTDIwNTMuODEyNSwzNTAuNjg3NSBMMjA0OC44NzUsMzUwLjY4NzUgTDIwNDguODc1LDM1Mi40Mzc1IFogIiBmaWxsPSIjMDAwMDAwIi8+PHRleHQgZmlsbD0iIzAwMDAwMCIgZm9udC1mYW1pbHk9InNhbnMtc2VyaWYiIGZvbnQtc2l6ZT0iMTQiIGxlbmd0aEFkanVzdD0ic3BhY2luZyIgdGV4dExlbmd0aD0iMjgiIHg9IjIwNzEuNzUiIHk9IjM2MS43NDIyIj5Gb29kPC90ZXh0PjxsaW5lIHN0eWxlPSJzdHJva2U6IzE4MTgxODtzdHJva2Utd2lkdGg6MC41OyIgeDE9IjE5NzMiIHgyPSIyMTY2IiB5MT0iMzcyIiB5Mj0iMzcyIi8+PGVsbGlwc2UgY3g9IjE5ODMiIGN5PSIzODQuOTkyMiIgZmlsbD0ibm9uZSIgcng9IjMiIHJ5PSIzIiBzdHlsZT0ic3Ryb2tlOiMwMzgwNDg7c3Ryb2tlLXdpZHRoOjEuMDsiLz48dGV4dCBmaWxsPSIjMDAwMDAwIiBmb250LWZhbWlseT0ic2Fucy1zZXJpZiIgZm9udC1zaXplPSIxNCIgbGVuZ3RoQWRqdXN0PSJzcGFjaW5nIiB0ZXh0TGVuZ3RoPSI4NCIgeD0iMTk5MiIgeT0iMzg5LjIzNDQiPmZvb2RfaWQ6IGludDwvdGV4dD48ZWxsaXBzZSBjeD0iMTk4MyIgY3k9IjM5OS45NzY2IiBmaWxsPSJub25lIiByeD0iMyIgcnk9IjMiIHN0eWxlPSJzdHJva2U6IzAzODA0ODtzdHJva2Utd2lkdGg6MS4wOyIvPjx0ZXh0IGZpbGw9IiMwMDAwMDAiIGZvbnQtZmFtaWx5PSJzYW5zLXNlcmlmIiBmb250LXNpemU9IjE0IiBsZW5ndGhBZGp1c3Q9InNwYWNpbmciIHRleHRMZW5ndGg9IjEyMCIgeD0iMTk5MiIgeT0iNDA0LjIxODgiPmZvb2RfbmFtZTogc3RyaW5nPC90ZXh0PjxlbGxpcHNlIGN4PSIxOTgzIiBjeT0iNDE0Ljk2MDkiIGZpbGw9Im5vbmUiIHJ4PSIzIiByeT0iMyIgc3R5bGU9InN0cm9rZTojMDM4MDQ4O3N0cm9rZS13aWR0aDoxLjA7Ii8+PHRleHQgZmlsbD0iIzAwMDAwMCIgZm9udC1mYW1pbHk9InNhbnMtc2VyaWYiIGZvbnQtc2l6ZT0iMTQiIGxlbmd0aEFkanVzdD0ic3BhY2luZyIgdGV4dExlbmd0aD0iMTMzIiB4PSIxOTkyIiB5PSI0MTkuMjAzMSI+ZGVzY3JpcHRpb246IHN0cmluZzwvdGV4dD48ZWxsaXBzZSBjeD0iMTk4MyIgY3k9IjQyOS45NDUzIiBmaWxsPSJub25lIiByeD0iMyIgcnk9IjMiIHN0eWxlPSJzdHJva2U6IzAzODA0ODtzdHJva2Utd2lkdGg6MS4wOyIvPjx0ZXh0IGZpbGw9IiMwMDAwMDAiIGZvbnQtZmFtaWx5PSJzYW5zLXNlcmlmIiBmb250LXNpemU9IjE0IiBsZW5ndGhBZGp1c3Q9InNwYWNpbmciIHRleHRMZW5ndGg9IjE0MCIgeD0iMTk5MiIgeT0iNDM0LjE4NzUiPmN1aXNpbmVfdHlwZV9pZDogaW50PC90ZXh0PjxlbGxpcHNlIGN4PSIxOTgzIiBjeT0iNDQ0LjkyOTciIGZpbGw9Im5vbmUiIHJ4PSIzIiByeT0iMyIgc3R5bGU9InN0cm9rZTojMDM4MDQ4O3N0cm9rZS13aWR0aDoxLjA7Ii8+PHRleHQgZmlsbD0iIzAwMDAwMCIgZm9udC1mYW1pbHk9InNhbnMtc2VyaWYiIGZvbnQtc2l6ZT0iMTQiIGxlbmd0aEFkanVzdD0ic3BhY2luZyIgdGV4dExlbmd0aD0iMTI2IiB4PSIxOTkyIiB5PSI0NDkuMTcxOSI+cmVzdGF1cmFudF9pZDogaW50PC90ZXh0PjxlbGxpcHNlIGN4PSIxOTgzIiBjeT0iNDU5LjkxNDEiIGZpbGw9Im5vbmUiIHJ4PSIzIiByeT0iMyIgc3R5bGU9InN0cm9rZTojMDM4MDQ4O3N0cm9rZS13aWR0aDoxLjA7Ii8+PHRleHQgZmlsbD0iIzAwMDAwMCIgZm9udC1mYW1pbHk9InNhbnMtc2VyaWYiIGZvbnQtc2l6ZT0iMTQiIGxlbmd0aEFkanVzdD0ic3BhY2luZyIgdGV4dExlbmd0aD0iMTQ3IiB4PSIxOTkyIiB5PSI0NjQuMTU2MyI+c3RhbmRhcmRfcHJpY2U6IGZsb2F0PC90ZXh0PjxlbGxpcHNlIGN4PSIxOTgzIiBjeT0iNDc0Ljg5ODQiIGZpbGw9Im5vbmUiIHJ4PSIzIiByeT0iMyIgc3R5bGU9InN0cm9rZTojMDM4MDQ4O3N0cm9rZS13aWR0aDoxLjA7Ii8+PHRleHQgZmlsbD0iIzAwMDAwMCIgZm9udC1mYW1pbHk9InNhbnMtc2VyaWYiIGZvbnQtc2l6ZT0iMTQiIGxlbmd0aEFkanVzdD0ic3BhY2luZyIgdGV4dExlbmd0aD0iMTI3IiB4PSIxOTkyIiB5PSI0NzkuMTQwNiI+cHJpY2Vfc21hbGw6IGZsb2F0PC90ZXh0PjxlbGxpcHNlIGN4PSIxOTgzIiBjeT0iNDg5Ljg4MjgiIGZpbGw9Im5vbmUiIHJ4PSIzIiByeT0iMyIgc3R5bGU9InN0cm9rZTojMDM4MDQ4O3N0cm9rZS13aWR0aDoxLjA7Ii8+PHRleHQgZmlsbD0iIzAwMDAwMCIgZm9udC1mYW1pbHk9InNhbnMtc2VyaWYiIGZvbnQtc2l6ZT0iMTQiIGxlbmd0aEFkanVzdD0ic3BhY2luZyIgdGV4dExlbmd0aD0iMTM1IiB4PSIxOTkyIiB5PSI0OTQuMTI1Ij5wcmljZV9tZWRpdW06IGZsb2F0PC90ZXh0PjxlbGxpcHNlIGN4PSIxOTgzIiBjeT0iNTA0Ljg2NzIiIGZpbGw9Im5vbmUiIHJ4PSIzIiByeT0iMyIgc3R5bGU9InN0cm9rZTojMDM4MDQ4O3N0cm9rZS13aWR0aDoxLjA7Ii8+PHRleHQgZmlsbD0iIzAwMDAwMCIgZm9udC1mYW1pbHk9InNhbnMtc2VyaWYiIGZvbnQtc2l6ZT0iMTQiIGxlbmd0aEFkanVzdD0ic3BhY2luZyIgdGV4dExlbmd0aD0iMTI2IiB4PSIxOTkyIiB5PSI1MDkuMTA5NCI+cHJpY2VfbGFyZ2U6IGZsb2F0PC90ZXh0PjxlbGxpcHNlIGN4PSIxOTgzIiBjeT0iNTE5Ljg1MTYiIGZpbGw9Im5vbmUiIHJ4PSIzIiByeT0iMyIgc3R5bGU9InN0cm9rZTojMDM4MDQ4O3N0cm9rZS13aWR0aDoxLjA7Ii8+PHRleHQgZmlsbD0iIzAwMDAwMCIgZm9udC1mYW1pbHk9InNhbnMtc2VyaWYiIGZvbnQtc2l6ZT0iMTQiIGxlbmd0aEFkanVzdD0ic3BhY2luZyIgdGV4dExlbmd0aD0iOTEiIHg9IjE5OTIiIHk9IjUyNC4wOTM4Ij5xdWFudGl0eTogaW50PC90ZXh0PjxlbGxpcHNlIGN4PSIxOTgzIiBjeT0iNTM0LjgzNTkiIGZpbGw9Im5vbmUiIHJ4PSIzIiByeT0iMyIgc3R5bGU9InN0cm9rZTojMDM4MDQ4O3N0cm9rZS13aWR0aDoxLjA7Ii8+PHRleHQgZmlsbD0iIzAwMDAwMCIgZm9udC1mYW1pbHk9InNhbnMtc2VyaWYiIGZvbnQtc2l6ZT0iMTQiIGxlbmd0aEFkanVzdD0ic3BhY2luZyIgdGV4dExlbmd0aD0iMTI2IiB4PSIxOTkyIiB5PSI1MzkuMDc4MSI+aW5pdGlhbF9zdG9jazogaW50PC90ZXh0PjxlbGxpcHNlIGN4PSIxOTgzIiBjeT0iNTQ5LjgyMDMiIGZpbGw9Im5vbmUiIHJ4PSIzIiByeT0iMyIgc3R5bGU9InN0cm9rZTojMDM4MDQ4O3N0cm9rZS13aWR0aDoxLjA7Ii8+PHRleHQgZmlsbD0iIzAwMDAwMCIgZm9udC1mYW1pbHk9InNhbnMtc2VyaWYiIGZvbnQtc2l6ZT0iMTQiIGxlbmd0aEFkanVzdD0ic3BhY2luZyIgdGV4dExlbmd0aD0iMTIwIiB4PSIxOTkyIiB5PSI1NTQuMDYyNSI+aW1hZ2VfdXJsOiBzdHJpbmc8L3RleHQ+PGVsbGlwc2UgY3g9IjE5ODMiIGN5PSI1NjQuODA0NyIgZmlsbD0ibm9uZSIgcng9IjMiIHJ5PSIzIiBzdHlsZT0ic3Ryb2tlOiMwMzgwNDg7c3Ryb2tlLXdpZHRoOjEuMDsiLz48dGV4dCBmaWxsPSIjMDAwMDAwIiBmb250LWZhbWlseT0ic2Fucy1zZXJpZiIgZm9udC1zaXplPSIxNCIgbGVuZ3RoQWRqdXN0PSJzcGFjaW5nIiB0ZXh0TGVuZ3RoPSIxNjkiIHg9IjE5OTIiIHk9IjU2OS4wNDY5Ij5wcmVwYXJhdGlvbl90aW1lOiBzdHJpbmc8L3RleHQ+PGxpbmUgc3R5bGU9InN0cm9rZTojMTgxODE4O3N0cm9rZS13aWR0aDowLjU7IiB4MT0iMTk3MyIgeDI9IjIxNjYiIHkxPSI1NzQuNzk2OSIgeTI9IjU3NC43OTY5Ii8+PGVsbGlwc2UgY3g9IjE5ODMiIGN5PSI1ODcuNzg5MSIgZmlsbD0iIzg0QkU4NCIgcng9IjMiIHJ5PSIzIiBzdHlsZT0ic3Ryb2tlOiMwMzgwNDg7c3Ryb2tlLXdpZHRoOjEuMDsiLz48dGV4dCBmaWxsPSIjMDAwMDAwIiBmb250LWZhbWlseT0ic2Fucy1zZXJpZiIgZm9udC1zaXplPSIxNCIgbGVuZ3RoQWRqdXN0PSJzcGFjaW5nIiB0ZXh0TGVuZ3RoPSI3MiIgeD0iMTk5MiIgeT0iNTkyLjAzMTMiPmFkZF9mb29kKCk8L3RleHQ+PGVsbGlwc2UgY3g9IjE5ODMiIGN5PSI2MDIuNzczNCIgZmlsbD0iIzg0QkU4NCIgcng9IjMiIHJ5PSIzIiBzdHlsZT0ic3Ryb2tlOiMwMzgwNDg7c3Ryb2tlLXdpZHRoOjEuMDsiLz48dGV4dCBmaWxsPSIjMDAwMDAwIiBmb250LWZhbWlseT0ic2Fucy1zZXJpZiIgZm9udC1zaXplPSIxNCIgbGVuZ3RoQWRqdXN0PSJzcGFjaW5nIiB0ZXh0TGVuZ3RoPSI5NCIgeD0iMTk5MiIgeT0iNjA3LjAxNTYiPm1vZGlmeV9mb29kKCk8L3RleHQ+PGVsbGlwc2UgY3g9IjE5ODMiIGN5PSI2MTcuNzU3OCIgZmlsbD0iIzg0QkU4NCIgcng9IjMiIHJ5PSIzIiBzdHlsZT0ic3Ryb2tlOiMwMzgwNDg7c3Ryb2tlLXdpZHRoOjEuMDsiLz48dGV4dCBmaWxsPSIjMDAwMDAwIiBmb250LWZhbWlseT0ic2Fucy1zZXJpZiIgZm9udC1zaXplPSIxNCIgbGVuZ3RoQWRqdXN0PSJzcGFjaW5nIiB0ZXh0TGVuZ3RoPSI5MyIgeD0iMTk5MiIgeT0iNjIyIj5kZWxldGVfZm9vZCgpPC90ZXh0PjxlbGxpcHNlIGN4PSIxOTgzIiBjeT0iNjMyLjc0MjIiIGZpbGw9IiM4NEJFODQiIHJ4PSIzIiByeT0iMyIgc3R5bGU9InN0cm9rZTojMDM4MDQ4O3N0cm9rZS13aWR0aDoxLjA7Ii8+PHRleHQgZmlsbD0iIzAwMDAwMCIgZm9udC1mYW1pbHk9InNhbnMtc2VyaWYiIGZvbnQtc2l6ZT0iMTQiIGxlbmd0aEFkanVzdD0ic3BhY2luZyIgdGV4dExlbmd0aD0iMTAwIiB4PSIxOTkyIiB5PSI2MzYuOTg0NCI+dXBkYXRlX3ByaWNlKCk8L3RleHQ+PGVsbGlwc2UgY3g9IjE5ODMiIGN5PSI2NDcuNzI2NiIgZmlsbD0iIzg0QkU4NCIgcng9IjMiIHJ5PSIzIiBzdHlsZT0ic3Ryb2tlOiMwMzgwNDg7c3Ryb2tlLXdpZHRoOjEuMDsiLz48dGV4dCBmaWxsPSIjMDAwMDAwIiBmb250LWZhbWlseT0ic2Fucy1zZXJpZiIgZm9udC1zaXplPSIxNCIgbGVuZ3RoQWRqdXN0PSJzcGFjaW5nIiB0ZXh0TGVuZ3RoPSIxMDAiIHg9IjE5OTIiIHk9IjY1MS45Njg4Ij51cGRhdGVfc3RvY2soKTwvdGV4dD48L2c+PCEtLWNsYXNzIEZvb2RDYXRlZ29yeS0tPjxnIGlkPSJlbGVtX0Zvb2RDYXRlZ29yeSI+PHJlY3QgY29kZUxpbmU9IjExNyIgZmlsbD0iI0YxRjFGMSIgaGVpZ2h0PSIxMDcuOTM3NSIgaWQ9IkZvb2RDYXRlZ29yeSIgcng9IjIuNSIgcnk9IjIuNSIgc3R5bGU9InN0cm9rZTojMTgxODE4O3N0cm9rZS13aWR0aDowLjU7IiB3aWR0aD0iMTgyIiB4PSIxOTc4LjUiIHk9Ijc0MC41Ii8+PGVsbGlwc2UgY3g9IjIwMjMuMjUiIGN5PSI3NTYuNSIgZmlsbD0iI0FERDFCMiIgcng9IjExIiByeT0iMTEiIHN0eWxlPSJzdHJva2U6IzE4MTgxODtzdHJva2Utd2lkdGg6MS4wOyIvPjxwYXRoIGQ9Ik0yMDIwLjg3NSw3NjAuNzUgTDIwMjAuODc1LDc2Mi41IEwyMDI1LjgxMjUsNzYyLjUgTDIwMjUuODEyNSw3NjAuNzUgTDIwMjAuODc1LDc2MC43NSBaIE0yMDIxLjU2MjUsNzYxLjQzNzUgUTIwMjEuNTYyNSw3NjEuNDM3NSAyMDIxLjU2MjUsNzUyLjI1IEwyMDE5LjgxMjUsNzUyLjI1IFEyMDE5LjgxMjUsNzUyLjI1IDIwMTkuODEyNSw3NjEuNDM3NSBMMjAyMS41NjI1LDc2MS40Mzc1IFogTTIwMjUuMTI1LDc2MS40Mzc1IEwyMDI2Ljg3NSw3NjEuNDM3NSBRMjAyNi44NzUsNzYxLjQzNzUgMjAyNi44NzUsNzU4LjYyNSBMMjAyNS4xMjUsNzU4LjYyNSBRMjAyNS4xMjUsNzU4LjYyNSAyMDI1LjEyNSw3NjEuNDM3NSBaIE0yMDI1LjEyNSw3NTIuMjUgUTIwMjUuMTI1LDc1Mi4yNSAyMDI1LjEyNSw3NTUuMDYyNSBMMjAyNi44NzUsNzU1LjA2MjUgUTIwMjYuODc1LDc1NS4wNjI1IDIwMjYuODc1LDc1Mi4yNSBMMjAyNS4xMjUsNzUyLjI1IFogTTIwMjAuODc1LDc1Mi45Mzc1IEwyMDI1LjgxMjUsNzUyLjkzNzUgTDIwMjUuODEyNSw3NTEuMTg3NSBMMjAyMC44NzUsNzUxLjE4NzUgTDIwMjAuODc1LDc1Mi45Mzc1IFogIiBmaWxsPSIjMDAwMDAwIi8+PHRleHQgZmlsbD0iIzAwMDAwMCIgZm9udC1mYW1pbHk9InNhbnMtc2VyaWYiIGZvbnQtc2l6ZT0iMTQiIGxlbmd0aEFkanVzdD0ic3BhY2luZyIgdGV4dExlbmd0aD0iODQiIHg9IjIwNDMuNzUiIHk9Ijc2Mi4yNDIyIj5Gb29kQ2F0ZWdvcnk8L3RleHQ+PGxpbmUgc3R5bGU9InN0cm9rZTojMTgxODE4O3N0cm9rZS13aWR0aDowLjU7IiB4MT0iMTk3OS41IiB4Mj0iMjE1OS41IiB5MT0iNzcyLjUiIHkyPSI3NzIuNSIvPjxlbGxpcHNlIGN4PSIxOTg5LjUiIGN5PSI3ODUuNDkyMiIgZmlsbD0ibm9uZSIgcng9IjMiIHJ5PSIzIiBzdHlsZT0ic3Ryb2tlOiMwMzgwNDg7c3Ryb2tlLXdpZHRoOjEuMDsiLz48dGV4dCBmaWxsPSIjMDAwMDAwIiBmb250LWZhbWlseT0ic2Fucy1zZXJpZiIgZm9udC1zaXplPSIxNCIgbGVuZ3RoQWRqdXN0PSJzcGFjaW5nIiB0ZXh0TGVuZ3RoPSIxNDciIHg9IjE5OTguNSIgeT0iNzg5LjczNDQiPmZvb2RfY2F0ZWdvcnlfaWQ6IGludDwvdGV4dD48ZWxsaXBzZSBjeD0iMTk4OS41IiBjeT0iODAwLjQ3NjYiIGZpbGw9Im5vbmUiIHJ4PSIzIiByeT0iMyIgc3R5bGU9InN0cm9rZTojMDM4MDQ4O3N0cm9rZS13aWR0aDoxLjA7Ii8+PHRleHQgZmlsbD0iIzAwMDAwMCIgZm9udC1mYW1pbHk9InNhbnMtc2VyaWYiIGZvbnQtc2l6ZT0iMTQiIGxlbmd0aEFkanVzdD0ic3BhY2luZyIgdGV4dExlbmd0aD0iMTQ4IiB4PSIxOTk4LjUiIHk9IjgwNC43MTg4Ij5jYXRlZ29yeV9uYW1lOiBzdHJpbmc8L3RleHQ+PGxpbmUgc3R5bGU9InN0cm9rZTojMTgxODE4O3N0cm9rZS13aWR0aDowLjU7IiB4MT0iMTk3OS41IiB4Mj0iMjE1OS41IiB5MT0iODEwLjQ2ODgiIHkyPSI4MTAuNDY4OCIvPjxlbGxpcHNlIGN4PSIxOTg5LjUiIGN5PSI4MjMuNDYwOSIgZmlsbD0iIzg0QkU4NCIgcng9IjMiIHJ5PSIzIiBzdHlsZT0ic3Ryb2tlOiMwMzgwNDg7c3Ryb2tlLXdpZHRoOjEuMDsiLz48dGV4dCBmaWxsPSIjMDAwMDAwIiBmb250LWZhbWlseT0ic2Fucy1zZXJpZiIgZm9udC1zaXplPSIxNCIgbGVuZ3RoQWRqdXN0PSJzcGFjaW5nIiB0ZXh0TGVuZ3RoPSIxMjgiIHg9IjE5OTguNSIgeT0iODI3LjcwMzEiPmFkZF9mb29kQ2F0ZWdvcnkoKTwvdGV4dD48ZWxsaXBzZSBjeD0iMTk4OS41IiBjeT0iODM4LjQ0NTMiIGZpbGw9IiM4NEJFODQiIHJ4PSIzIiByeT0iMyIgc3R5bGU9InN0cm9rZTojMDM4MDQ4O3N0cm9rZS13aWR0aDoxLjA7Ii8+PHRleHQgZmlsbD0iIzAwMDAwMCIgZm9udC1mYW1pbHk9InNhbnMtc2VyaWYiIGZvbnQtc2l6ZT0iMTQiIGxlbmd0aEFkanVzdD0ic3BhY2luZyIgdGV4dExlbmd0aD0iMTU2IiB4PSIxOTk4LjUiIHk9Ijg0Mi42ODc1Ij5kZWxldGVfZm9vZF9jYXRlZ29yeSgpPC90ZXh0PjwvZz48IS0tY2xhc3MgTWVudS0tPjxnIGlkPSJlbGVtX01lbnUiPjxyZWN0IGNvZGVMaW5lPSIxMjUiIGZpbGw9IiNGMUYxRjEiIGhlaWdodD0iMTY3Ljg3NSIgaWQ9Ik1lbnUiIHJ4PSIyLjUiIHJ5PSIyLjUiIHN0eWxlPSJzdHJva2U6IzE4MTgxODtzdHJva2Utd2lkdGg6MC41OyIgd2lkdGg9IjE2NyIgeD0iMTk4OCIgeT0iNTIiLz48ZWxsaXBzZSBjeD0iMjA1My4yNSIgY3k9IjY4IiBmaWxsPSIjQUREMUIyIiByeD0iMTEiIHJ5PSIxMSIgc3R5bGU9InN0cm9rZTojMTgxODE4O3N0cm9rZS13aWR0aDoxLjA7Ii8+PHBhdGggZD0iTTIwNTAuODc1LDcyLjI1IEwyMDUwLjg3NSw3NCBMMjA1NS44MTI1LDc0IEwyMDU1LjgxMjUsNzIuMjUgTDIwNTAuODc1LDcyLjI1IFogTTIwNTEuNTYyNSw3Mi45Mzc1IFEyMDUxLjU2MjUsNzIuOTM3NSAyMDUxLjU2MjUsNjMuNzUgTDIwNDkuODEyNSw2My43NSBRMjA0OS44MTI1LDYzLjc1IDIwNDkuODEyNSw3Mi45Mzc1IEwyMDUxLjU2MjUsNzIuOTM3NSBaIE0yMDU1LjEyNSw3Mi45Mzc1IEwyMDU2Ljg3NSw3Mi45Mzc1IFEyMDU2Ljg3NSw3Mi45Mzc1IDIwNTYuODc1LDcwLjEyNSBMMjA1NS4xMjUsNzAuMTI1IFEyMDU1LjEyNSw3MC4xMjUgMjA1NS4xMjUsNzIuOTM3NSBaIE0yMDU1LjEyNSw2My43NSBRMjA1NS4xMjUsNjMuNzUgMjA1NS4xMjUsNjYuNTYyNSBMMjA1Ni44NzUsNjYuNTYyNSBRMjA1Ni44NzUsNjYuNTYyNSAyMDU2Ljg3NSw2My43NSBMMjA1NS4xMjUsNjMuNzUgWiBNMjA1MC44NzUsNjQuNDM3NSBMMjA1NS44MTI1LDY0LjQzNzUgTDIwNTUuODEyNSw2Mi42ODc1IEwyMDUwLjg3NSw2Mi42ODc1IEwyMDUwLjg3NSw2NC40Mzc1IFogIiBmaWxsPSIjMDAwMDAwIi8+PHRleHQgZmlsbD0iIzAwMDAwMCIgZm9udC1mYW1pbHk9InNhbnMtc2VyaWYiIGZvbnQtc2l6ZT0iMTQiIGxlbmd0aEFkanVzdD0ic3BhY2luZyIgdGV4dExlbmd0aD0iMjgiIHg9IjIwNzMuNzUiIHk9IjczLjc0MjIiPk1lbnU8L3RleHQ+PGxpbmUgc3R5bGU9InN0cm9rZTojMTgxODE4O3N0cm9rZS13aWR0aDowLjU7IiB4MT0iMTk4OSIgeDI9IjIxNTQiIHkxPSI4NCIgeTI9Ijg0Ii8+PGVsbGlwc2UgY3g9IjE5OTkiIGN5PSI5Ni45OTIyIiBmaWxsPSJub25lIiByeD0iMyIgcnk9IjMiIHN0eWxlPSJzdHJva2U6IzAzODA0ODtzdHJva2Utd2lkdGg6MS4wOyIvPjx0ZXh0IGZpbGw9IiMwMDAwMDAiIGZvbnQtZmFtaWx5PSJzYW5zLXNlcmlmIiBmb250LXNpemU9IjE0IiBsZW5ndGhBZGp1c3Q9InNwYWNpbmciIHRleHRMZW5ndGg9Ijg1IiB4PSIyMDA4IiB5PSIxMDEuMjM0NCI+bWVudV9pZDogaW50PC90ZXh0PjxlbGxpcHNlIGN4PSIxOTk5IiBjeT0iMTExLjk3NjYiIGZpbGw9Im5vbmUiIHJ4PSIzIiByeT0iMyIgc3R5bGU9InN0cm9rZTojMDM4MDQ4O3N0cm9rZS13aWR0aDoxLjA7Ii8+PHRleHQgZmlsbD0iIzAwMDAwMCIgZm9udC1mYW1pbHk9InNhbnMtc2VyaWYiIGZvbnQtc2l6ZT0iMTQiIGxlbmd0aEFkanVzdD0ic3BhY2luZyIgdGV4dExlbmd0aD0iMTI2IiB4PSIyMDA4IiB5PSIxMTYuMjE4OCI+cmVzdGF1cmFudF9pZDogaW50PC90ZXh0PjxlbGxpcHNlIGN4PSIxOTk5IiBjeT0iMTI2Ljk2MDkiIGZpbGw9Im5vbmUiIHJ4PSIzIiByeT0iMyIgc3R5bGU9InN0cm9rZTojMDM4MDQ4O3N0cm9rZS13aWR0aDoxLjA7Ii8+PHRleHQgZmlsbD0iIzAwMDAwMCIgZm9udC1mYW1pbHk9InNhbnMtc2VyaWYiIGZvbnQtc2l6ZT0iMTQiIGxlbmd0aEFkanVzdD0ic3BhY2luZyIgdGV4dExlbmd0aD0iMTIxIiB4PSIyMDA4IiB5PSIxMzEuMjAzMSI+bWVudV9uYW1lOiBzdHJpbmc8L3RleHQ+PGVsbGlwc2UgY3g9IjE5OTkiIGN5PSIxNDEuOTQ1MyIgZmlsbD0ibm9uZSIgcng9IjMiIHJ5PSIzIiBzdHlsZT0ic3Ryb2tlOiMwMzgwNDg7c3Ryb2tlLXdpZHRoOjEuMDsiLz48dGV4dCBmaWxsPSIjMDAwMDAwIiBmb250LWZhbWlseT0ic2Fucy1zZXJpZiIgZm9udC1zaXplPSIxNCIgbGVuZ3RoQWRqdXN0PSJzcGFjaW5nIiB0ZXh0TGVuZ3RoPSIxMzMiIHg9IjIwMDgiIHk9IjE0Ni4xODc1Ij5kZXNjcmlwdGlvbjogc3RyaW5nPC90ZXh0PjxlbGxpcHNlIGN4PSIxOTk5IiBjeT0iMTU2LjkyOTciIGZpbGw9Im5vbmUiIHJ4PSIzIiByeT0iMyIgc3R5bGU9InN0cm9rZTojMDM4MDQ4O3N0cm9rZS13aWR0aDoxLjA7Ii8+PHRleHQgZmlsbD0iIzAwMDAwMCIgZm9udC1mYW1pbHk9InNhbnMtc2VyaWYiIGZvbnQtc2l6ZT0iMTQiIGxlbmd0aEFkanVzdD0ic3BhY2luZyIgdGV4dExlbmd0aD0iMTQxIiB4PSIyMDA4IiB5PSIxNjEuMTcxOSI+Y3JlYXRlZF9hdDogZGF0ZXRpbWU8L3RleHQ+PGxpbmUgc3R5bGU9InN0cm9rZTojMTgxODE4O3N0cm9rZS13aWR0aDowLjU7IiB4MT0iMTk4OSIgeDI9IjIxNTQiIHkxPSIxNjYuOTIxOSIgeTI9IjE2Ni45MjE5Ii8+PGVsbGlwc2UgY3g9IjE5OTkiIGN5PSIxNzkuOTE0MSIgZmlsbD0iIzg0QkU4NCIgcng9IjMiIHJ5PSIzIiBzdHlsZT0ic3Ryb2tlOiMwMzgwNDg7c3Ryb2tlLXdpZHRoOjEuMDsiLz48dGV4dCBmaWxsPSIjMDAwMDAwIiBmb250LWZhbWlseT0ic2Fucy1zZXJpZiIgZm9udC1zaXplPSIxNCIgbGVuZ3RoQWRqdXN0PSJzcGFjaW5nIiB0ZXh0TGVuZ3RoPSI3MyIgeD0iMjAwOCIgeT0iMTg0LjE1NjMiPmFkZF9tZW51KCk8L3RleHQ+PGVsbGlwc2UgY3g9IjE5OTkiIGN5PSIxOTQuODk4NCIgZmlsbD0iIzg0QkU4NCIgcng9IjMiIHJ5PSIzIiBzdHlsZT0ic3Ryb2tlOiMwMzgwNDg7c3Ryb2tlLXdpZHRoOjEuMDsiLz48dGV4dCBmaWxsPSIjMDAwMDAwIiBmb250LWZhbWlseT0ic2Fucy1zZXJpZiIgZm9udC1zaXplPSIxNCIgbGVuZ3RoQWRqdXN0PSJzcGFjaW5nIiB0ZXh0TGVuZ3RoPSI5NCIgeD0iMjAwOCIgeT0iMTk5LjE0MDYiPmRlbGV0ZV9tZW51KCk8L3RleHQ+PGVsbGlwc2UgY3g9IjE5OTkiIGN5PSIyMDkuODgyOCIgZmlsbD0iIzg0QkU4NCIgcng9IjMiIHJ5PSIzIiBzdHlsZT0ic3Ryb2tlOiMwMzgwNDg7c3Ryb2tlLXdpZHRoOjEuMDsiLz48dGV4dCBmaWxsPSIjMDAwMDAwIiBmb250LWZhbWlseT0ic2Fucy1zZXJpZiIgZm9udC1zaXplPSIxNCIgbGVuZ3RoQWRqdXN0PSJzcGFjaW5nIiB0ZXh0TGVuZ3RoPSI5NSIgeD0iMjAwOCIgeT0iMjE0LjEyNSI+bW9kaWZ5X21lbnUoKTwvdGV4dD48L2c+PCEtLWNsYXNzIE1lbnVGb29kLS0+PGcgaWQ9ImVsZW1fTWVudUZvb2QiPjxyZWN0IGNvZGVMaW5lPSIxMzciIGZpbGw9IiNGMUYxRjEiIGhlaWdodD0iMTgyLjg1OTQiIGlkPSJNZW51Rm9vZCIgcng9IjIuNSIgcnk9IjIuNSIgc3R5bGU9InN0cm9rZTojMTgxODE4O3N0cm9rZS13aWR0aDowLjU7IiB3aWR0aD0iMjA0IiB4PSIyNTkuNSIgeT0iNDQuNSIvPjxlbGxpcHNlIGN4PSIzMjkuMjUiIGN5PSI2MC41IiBmaWxsPSIjQUREMUIyIiByeD0iMTEiIHJ5PSIxMSIgc3R5bGU9InN0cm9rZTojMTgxODE4O3N0cm9rZS13aWR0aDoxLjA7Ii8+PHBhdGggZD0iTTMyNi44NzUsNjQuNzUgTDMyNi44NzUsNjYuNSBMMzMxLjgxMjUsNjYuNSBMMzMxLjgxMjUsNjQuNzUgTDMyNi44NzUsNjQuNzUgWiBNMzI3LjU2MjUsNjUuNDM3NSBRMzI3LjU2MjUsNjUuNDM3NSAzMjcuNTYyNSw1Ni4yNSBMMzI1LjgxMjUsNTYuMjUgUTMyNS44MTI1LDU2LjI1IDMyNS44MTI1LDY1LjQzNzUgTDMyNy41NjI1LDY1LjQzNzUgWiBNMzMxLjEyNSw2NS40Mzc1IEwzMzIuODc1LDY1LjQzNzUgUTMzMi44NzUsNjUuNDM3NSAzMzIuODc1LDYyLjYyNSBMMzMxLjEyNSw2Mi42MjUgUTMzMS4xMjUsNjIuNjI1IDMzMS4xMjUsNjUuNDM3NSBaIE0zMzEuMTI1LDU2LjI1IFEzMzEuMTI1LDU2LjI1IDMzMS4xMjUsNTkuMDYyNSBMMzMyLjg3NSw1OS4wNjI1IFEzMzIuODc1LDU5LjA2MjUgMzMyLjg3NSw1Ni4yNSBMMzMxLjEyNSw1Ni4yNSBaIE0zMjYuODc1LDU2LjkzNzUgTDMzMS44MTI1LDU2LjkzNzUgTDMzMS44MTI1LDU1LjE4NzUgTDMyNi44NzUsNTUuMTg3NSBMMzI2Ljg3NSw1Ni45Mzc1IFogIiBmaWxsPSIjMDAwMDAwIi8+PHRleHQgZmlsbD0iIzAwMDAwMCIgZm9udC1mYW1pbHk9InNhbnMtc2VyaWYiIGZvbnQtc2l6ZT0iMTQiIGxlbmd0aEFkanVzdD0ic3BhY2luZyIgdGV4dExlbmd0aD0iNTYiIHg9IjM0OS43NSIgeT0iNjYuMjQyMiI+TWVudUZvb2Q8L3RleHQ+PGxpbmUgc3R5bGU9InN0cm9rZTojMTgxODE4O3N0cm9rZS13aWR0aDowLjU7IiB4MT0iMjYwLjUiIHgyPSI0NjIuNSIgeTE9Ijc2LjUiIHkyPSI3Ni41Ii8+PGVsbGlwc2UgY3g9IjI3MC41IiBjeT0iODkuNDkyMiIgZmlsbD0ibm9uZSIgcng9IjMiIHJ5PSIzIiBzdHlsZT0ic3Ryb2tlOiMwMzgwNDg7c3Ryb2tlLXdpZHRoOjEuMDsiLz48dGV4dCBmaWxsPSIjMDAwMDAwIiBmb250LWZhbWlseT0ic2Fucy1zZXJpZiIgZm9udC1zaXplPSIxNCIgbGVuZ3RoQWRqdXN0PSJzcGFjaW5nIiB0ZXh0TGVuZ3RoPSIxMTMiIHg9IjI3OS41IiB5PSI5My43MzQ0Ij5tZW51Zm9vZF9pZDogaW50PC90ZXh0PjxlbGxpcHNlIGN4PSIyNzAuNSIgY3k9IjEwNC40NzY2IiBmaWxsPSJub25lIiByeD0iMyIgcnk9IjMiIHN0eWxlPSJzdHJva2U6IzAzODA0ODtzdHJva2Utd2lkdGg6MS4wOyIvPjx0ZXh0IGZpbGw9IiMwMDAwMDAiIGZvbnQtZmFtaWx5PSJzYW5zLXNlcmlmIiBmb250LXNpemU9IjE0IiBsZW5ndGhBZGp1c3Q9InNwYWNpbmciIHRleHRMZW5ndGg9Ijg1IiB4PSIyNzkuNSIgeT0iMTA4LjcxODgiPm1lbnVfaWQ6IGludDwvdGV4dD48ZWxsaXBzZSBjeD0iMjcwLjUiIGN5PSIxMTkuNDYwOSIgZmlsbD0ibm9uZSIgcng9IjMiIHJ5PSIzIiBzdHlsZT0ic3Ryb2tlOiMwMzgwNDg7c3Ryb2tlLXdpZHRoOjEuMDsiLz48dGV4dCBmaWxsPSIjMDAwMDAwIiBmb250LWZhbWlseT0ic2Fucy1zZXJpZiIgZm9udC1zaXplPSIxNCIgbGVuZ3RoQWRqdXN0PSJzcGFjaW5nIiB0ZXh0TGVuZ3RoPSI4NCIgeD0iMjc5LjUiIHk9IjEyMy43MDMxIj5mb29kX2lkOiBpbnQ8L3RleHQ+PGVsbGlwc2UgY3g9IjI3MC41IiBjeT0iMTM0LjQ0NTMiIGZpbGw9Im5vbmUiIHJ4PSIzIiByeT0iMyIgc3R5bGU9InN0cm9rZTojMDM4MDQ4O3N0cm9rZS13aWR0aDoxLjA7Ii8+PHRleHQgZmlsbD0iIzAwMDAwMCIgZm9udC1mYW1pbHk9InNhbnMtc2VyaWYiIGZvbnQtc2l6ZT0iMTQiIGxlbmd0aEFkanVzdD0ic3BhY2luZyIgdGV4dExlbmd0aD0iMTQxIiB4PSIyNzkuNSIgeT0iMTM4LjY4NzUiPmNyZWF0ZWRfYXQ6IGRhdGV0aW1lPC90ZXh0PjxsaW5lIHN0eWxlPSJzdHJva2U6IzE4MTgxODtzdHJva2Utd2lkdGg6MC41OyIgeDE9IjI2MC41IiB4Mj0iNDYyLjUiIHkxPSIxNDQuNDM3NSIgeTI9IjE0NC40Mzc1Ii8+PGVsbGlwc2UgY3g9IjI3MC41IiBjeT0iMTU3LjQyOTciIGZpbGw9IiM4NEJFODQiIHJ4PSIzIiByeT0iMyIgc3R5bGU9InN0cm9rZTojMDM4MDQ4O3N0cm9rZS13aWR0aDoxLjA7Ii8+PHRleHQgZmlsbD0iIzAwMDAwMCIgZm9udC1mYW1pbHk9InNhbnMtc2VyaWYiIGZvbnQtc2l6ZT0iMTQiIGxlbmd0aEFkanVzdD0ic3BhY2luZyIgdGV4dExlbmd0aD0iMTI5IiB4PSIyNzkuNSIgeT0iMTYxLjY3MTkiPmFkZF9mb29kX3RvX21lbnUoKTwvdGV4dD48ZWxsaXBzZSBjeD0iMjcwLjUiIGN5PSIxNzIuNDE0MSIgZmlsbD0iIzg0QkU4NCIgcng9IjMiIHJ5PSIzIiBzdHlsZT0ic3Ryb2tlOiMwMzgwNDg7c3Ryb2tlLXdpZHRoOjEuMDsiLz48dGV4dCBmaWxsPSIjMDAwMDAwIiBmb250LWZhbWlseT0ic2Fucy1zZXJpZiIgZm9udC1zaXplPSIxNCIgbGVuZ3RoQWRqdXN0PSJzcGFjaW5nIiB0ZXh0TGVuZ3RoPSIxNjYiIHg9IjI3OS41IiB5PSIxNzYuNjU2MyI+cmVtb3ZlX2Zvb2RfZnJvbV9tZW51KCk8L3RleHQ+PGVsbGlwc2UgY3g9IjI3MC41IiBjeT0iMTg3LjM5ODQiIGZpbGw9IiM4NEJFODQiIHJ4PSIzIiByeT0iMyIgc3R5bGU9InN0cm9rZTojMDM4MDQ4O3N0cm9rZS13aWR0aDoxLjA7Ii8+PHRleHQgZmlsbD0iIzAwMDAwMCIgZm9udC1mYW1pbHk9InNhbnMtc2VyaWYiIGZvbnQtc2l6ZT0iMTQiIGxlbmd0aEFkanVzdD0ic3BhY2luZyIgdGV4dExlbmd0aD0iMTc4IiB4PSIyNzkuNSIgeT0iMTkxLjY0MDYiPmRlYWN0aXZhdGVfZm9vZF9pbl9tZW51KCk8L3RleHQ+PGVsbGlwc2UgY3g9IjI3MC41IiBjeT0iMjAyLjM4MjgiIGZpbGw9IiM4NEJFODQiIHJ4PSIzIiByeT0iMyIgc3R5bGU9InN0cm9rZTojMDM4MDQ4O3N0cm9rZS13aWR0aDoxLjA7Ii8+PHRleHQgZmlsbD0iIzAwMDAwMCIgZm9udC1mYW1pbHk9InNhbnMtc2VyaWYiIGZvbnQtc2l6ZT0iMTQiIGxlbmd0aEFkanVzdD0ic3BhY2luZyIgdGV4dExlbmd0aD0iMTY0IiB4PSIyNzkuNSIgeT0iMjA2LjYyNSI+YWN0aXZhdGVfZm9vZF9pbl9tZW51KCk8L3RleHQ+PGVsbGlwc2UgY3g9IjI3MC41IiBjeT0iMjE3LjM2NzIiIGZpbGw9IiM4NEJFODQiIHJ4PSIzIiByeT0iMyIgc3R5bGU9InN0cm9rZTojMDM4MDQ4O3N0cm9rZS13aWR0aDoxLjA7Ii8+PHRleHQgZmlsbD0iIzAwMDAwMCIgZm9udC1mYW1pbHk9InNhbnMtc2VyaWYiIGZvbnQtc2l6ZT0iMTQiIGxlbmd0aEFkanVzdD0ic3BhY2luZyIgdGV4dExlbmd0aD0iMTUwIiB4PSIyNzkuNSIgeT0iMjIxLjYwOTQiPnVwZGF0ZV9mb29kX2luX21lbnUoKTwvdGV4dD48L2c+PCEtLWNsYXNzIE9mZmVycy0tPjxnIGlkPSJlbGVtX09mZmVycyI+PHJlY3QgY29kZUxpbmU9IjE1MCIgZmlsbD0iI0YxRjFGMSIgaGVpZ2h0PSIxOTcuODQzOCIgaWQ9Ik9mZmVycyIgcng9IjIuNSIgcnk9IjIuNSIgc3R5bGU9InN0cm9rZTojMTgxODE4O3N0cm9rZS13aWR0aDowLjU7IiB3aWR0aD0iMjA5IiB4PSI0OTkiIHk9IjM3Ii8+PGVsbGlwc2UgY3g9IjU3OC4yNSIgY3k9IjUzIiBmaWxsPSIjQUREMUIyIiByeD0iMTEiIHJ5PSIxMSIgc3R5bGU9InN0cm9rZTojMTgxODE4O3N0cm9rZS13aWR0aDoxLjA7Ii8+PHBhdGggZD0iTTU3NS44NzUsNTcuMjUgTDU3NS44NzUsNTkgTDU4MC44MTI1LDU5IEw1ODAuODEyNSw1Ny4yNSBMNTc1Ljg3NSw1Ny4yNSBaIE01NzYuNTYyNSw1Ny45Mzc1IFE1NzYuNTYyNSw1Ny45Mzc1IDU3Ni41NjI1LDQ4Ljc1IEw1NzQuODEyNSw0OC43NSBRNTc0LjgxMjUsNDguNzUgNTc0LjgxMjUsNTcuOTM3NSBMNTc2LjU2MjUsNTcuOTM3NSBaIE01ODAuMTI1LDU3LjkzNzUgTDU4MS44NzUsNTcuOTM3NSBRNTgxLjg3NSw1Ny45Mzc1IDU4MS44NzUsNTUuMTI1IEw1ODAuMTI1LDU1LjEyNSBRNTgwLjEyNSw1NS4xMjUgNTgwLjEyNSw1Ny45Mzc1IFogTTU4MC4xMjUsNDguNzUgUTU4MC4xMjUsNDguNzUgNTgwLjEyNSw1MS41NjI1IEw1ODEuODc1LDUxLjU2MjUgUTU4MS44NzUsNTEuNTYyNSA1ODEuODc1LDQ4Ljc1IEw1ODAuMTI1LDQ4Ljc1IFogTTU3NS44NzUsNDkuNDM3NSBMNTgwLjgxMjUsNDkuNDM3NSBMNTgwLjgxMjUsNDcuNjg3NSBMNTc1Ljg3NSw0Ny42ODc1IEw1NzUuODc1LDQ5LjQzNzUgWiAiIGZpbGw9IiMwMDAwMDAiLz48dGV4dCBmaWxsPSIjMDAwMDAwIiBmb250LWZhbWlseT0ic2Fucy1zZXJpZiIgZm9udC1zaXplPSIxNCIgbGVuZ3RoQWRqdXN0PSJzcGFjaW5nIiB0ZXh0TGVuZ3RoPSI0MiIgeD0iNTk4Ljc1IiB5PSI1OC43NDIyIj5PZmZlcnM8L3RleHQ+PGxpbmUgc3R5bGU9InN0cm9rZTojMTgxODE4O3N0cm9rZS13aWR0aDowLjU7IiB4MT0iNTAwIiB4Mj0iNzA3IiB5MT0iNjkiIHkyPSI2OSIvPjxlbGxpcHNlIGN4PSI1MTAiIGN5PSI4MS45OTIyIiBmaWxsPSJub25lIiByeD0iMyIgcnk9IjMiIHN0eWxlPSJzdHJva2U6IzAzODA0ODtzdHJva2Utd2lkdGg6MS4wOyIvPjx0ZXh0IGZpbGw9IiMwMDAwMDAiIGZvbnQtZmFtaWx5PSJzYW5zLXNlcmlmIiBmb250LXNpemU9IjE0IiBsZW5ndGhBZGp1c3Q9InNwYWNpbmciIHRleHRMZW5ndGg9IjkxIiB4PSI1MTkiIHk9Ijg2LjIzNDQiPm9mZmVyX2lkOiBpbnQ8L3RleHQ+PGVsbGlwc2UgY3g9IjUxMCIgY3k9Ijk2Ljk3NjYiIGZpbGw9Im5vbmUiIHJ4PSIzIiByeT0iMyIgc3R5bGU9InN0cm9rZTojMDM4MDQ4O3N0cm9rZS13aWR0aDoxLjA7Ii8+PHRleHQgZmlsbD0iIzAwMDAwMCIgZm9udC1mYW1pbHk9InNhbnMtc2VyaWYiIGZvbnQtc2l6ZT0iMTQiIGxlbmd0aEFkanVzdD0ic3BhY2luZyIgdGV4dExlbmd0aD0iMTI2IiB4PSI1MTkiIHk9IjEwMS4yMTg4Ij5vZmZlcl90eXBlOiBzdHJpbmc8L3RleHQ+PGVsbGlwc2UgY3g9IjUxMCIgY3k9IjExMS45NjA5IiBmaWxsPSJub25lIiByeD0iMyIgcnk9IjMiIHN0eWxlPSJzdHJva2U6IzAzODA0ODtzdHJva2Utd2lkdGg6MS4wOyIvPjx0ZXh0IGZpbGw9IiMwMDAwMDAiIGZvbnQtZmFtaWx5PSJzYW5zLXNlcmlmIiBmb250LXNpemU9IjE0IiBsZW5ndGhBZGp1c3Q9InNwYWNpbmciIHRleHRMZW5ndGg9IjEyNiIgeD0iNTE5IiB5PSIxMTYuMjAzMSI+b2ZmZXJfdmFsdWU6IGZsb2F0PC90ZXh0PjxlbGxpcHNlIGN4PSI1MTAiIGN5PSIxMjYuOTQ1MyIgZmlsbD0ibm9uZSIgcng9IjMiIHJ5PSIzIiBzdHlsZT0ic3Ryb2tlOiMwMzgwNDg7c3Ryb2tlLXdpZHRoOjEuMDsiLz48dGV4dCBmaWxsPSIjMDAwMDAwIiBmb250LWZhbWlseT0ic2Fucy1zZXJpZiIgZm9udC1zaXplPSIxNCIgbGVuZ3RoQWRqdXN0PSJzcGFjaW5nIiB0ZXh0TGVuZ3RoPSIxNDciIHg9IjUxOSIgeT0iMTMxLjE4NzUiPmFwcGxpY2FibGVfdG86IHN0cmluZzwvdGV4dD48ZWxsaXBzZSBjeD0iNTEwIiBjeT0iMTQxLjkyOTciIGZpbGw9Im5vbmUiIHJ4PSIzIiByeT0iMyIgc3R5bGU9InN0cm9rZTojMDM4MDQ4O3N0cm9rZS13aWR0aDoxLjA7Ii8+PHRleHQgZmlsbD0iIzAwMDAwMCIgZm9udC1mYW1pbHk9InNhbnMtc2VyaWYiIGZvbnQtc2l6ZT0iMTQiIGxlbmd0aEFkanVzdD0ic3BhY2luZyIgdGV4dExlbmd0aD0iODQiIHg9IjUxOSIgeT0iMTQ2LjE3MTkiPmZvb2RfaWQ6IGludDwvdGV4dD48ZWxsaXBzZSBjeD0iNTEwIiBjeT0iMTU2LjkxNDEiIGZpbGw9Im5vbmUiIHJ4PSIzIiByeT0iMyIgc3R5bGU9InN0cm9rZTojMDM4MDQ4O3N0cm9rZS13aWR0aDoxLjA7Ii8+PHRleHQgZmlsbD0iIzAwMDAwMCIgZm9udC1mYW1pbHk9InNhbnMtc2VyaWYiIGZvbnQtc2l6ZT0iMTQiIGxlbmd0aEFkanVzdD0ic3BhY2luZyIgdGV4dExlbmd0aD0iMTU1IiB4PSI1MTkiIHk9IjE2MS4xNTYzIj5taW5fb3JkZXJfdmFsdWU6IGZsb2F0PC90ZXh0PjxlbGxpcHNlIGN4PSI1MTAiIGN5PSIxNzEuODk4NCIgZmlsbD0ibm9uZSIgcng9IjMiIHJ5PSIzIiBzdHlsZT0ic3Ryb2tlOiMwMzgwNDg7c3Ryb2tlLXdpZHRoOjEuMDsiLz48dGV4dCBmaWxsPSIjMDAwMDAwIiBmb250LWZhbWlseT0ic2Fucy1zZXJpZiIgZm9udC1zaXplPSIxNCIgbGVuZ3RoQWRqdXN0PSJzcGFjaW5nIiB0ZXh0TGVuZ3RoPSIxODMiIHg9IjUxOSIgeT0iMTc2LjE0MDYiPm9mZmVyX3N0YXJ0X2RhdGU6IGRhdGV0aW1lPC90ZXh0PjxlbGxpcHNlIGN4PSI1MTAiIGN5PSIxODYuODgyOCIgZmlsbD0ibm9uZSIgcng9IjMiIHJ5PSIzIiBzdHlsZT0ic3Ryb2tlOiMwMzgwNDg7c3Ryb2tlLXdpZHRoOjEuMDsiLz48dGV4dCBmaWxsPSIjMDAwMDAwIiBmb250LWZhbWlseT0ic2Fucy1zZXJpZiIgZm9udC1zaXplPSIxNCIgbGVuZ3RoQWRqdXN0PSJzcGFjaW5nIiB0ZXh0TGVuZ3RoPSIxNjkiIHg9IjUxOSIgeT0iMTkxLjEyNSI+b2ZmZXJfZW5kX2RhdGU6IGRhdGV0aW1lPC90ZXh0PjxsaW5lIHN0eWxlPSJzdHJva2U6IzE4MTgxODtzdHJva2Utd2lkdGg6MC41OyIgeDE9IjUwMCIgeDI9IjcwNyIgeTE9IjE5Ni44NzUiIHkyPSIxOTYuODc1Ii8+PGVsbGlwc2UgY3g9IjUxMCIgY3k9IjIwOS44NjcyIiBmaWxsPSIjODRCRTg0IiByeD0iMyIgcnk9IjMiIHN0eWxlPSJzdHJva2U6IzAzODA0ODtzdHJva2Utd2lkdGg6MS4wOyIvPjx0ZXh0IGZpbGw9IiMwMDAwMDAiIGZvbnQtZmFtaWx5PSJzYW5zLXNlcmlmIiBmb250LXNpemU9IjE0IiBsZW5ndGhBZGp1c3Q9InNwYWNpbmciIHRleHRMZW5ndGg9IjkzIiB4PSI1MTkiIHk9IjIxNC4xMDk0Ij5hcHBseV9vZmZlcigpPC90ZXh0PjxlbGxpcHNlIGN4PSI1MTAiIGN5PSIyMjQuODUxNiIgZmlsbD0iIzg0QkU4NCIgcng9IjMiIHJ5PSIzIiBzdHlsZT0ic3Ryb2tlOiMwMzgwNDg7c3Ryb2tlLXdpZHRoOjEuMDsiLz48dGV4dCBmaWxsPSIjMDAwMDAwIiBmb250LWZhbWlseT0ic2Fucy1zZXJpZiIgZm9udC1zaXplPSIxNCIgbGVuZ3RoQWRqdXN0PSJzcGFjaW5nIiB0ZXh0TGVuZ3RoPSIxMTQiIHg9IjUxOSIgeT0iMjI5LjA5MzgiPnZhbGlkYXRlX29mZmVyKCk8L3RleHQ+PC9nPjwhLS1jbGFzcyBCYXNrZXQtLT48ZyBpZD0iZWxlbV9CYXNrZXQiPjxyZWN0IGNvZGVMaW5lPSIxNjQiIGZpbGw9IiNGMUYxRjEiIGhlaWdodD0iMTk3Ljg0MzgiIGlkPSJCYXNrZXQiIHJ4PSIyLjUiIHJ5PSIyLjUiIHN0eWxlPSJzdHJva2U6IzE4MTgxODtzdHJva2Utd2lkdGg6MC41OyIgd2lkdGg9IjE1MiIgeD0iMzkuNSIgeT0iNDAwIi8+PGVsbGlwc2UgY3g9IjkwLjI1IiBjeT0iNDE2IiBmaWxsPSIjQUREMUIyIiByeD0iMTEiIHJ5PSIxMSIgc3R5bGU9InN0cm9rZTojMTgxODE4O3N0cm9rZS13aWR0aDoxLjA7Ii8+PHBhdGggZD0iTTg3Ljg3NSw0MjAuMjUgTDg3Ljg3NSw0MjIgTDkyLjgxMjUsNDIyIEw5Mi44MTI1LDQyMC4yNSBMODcuODc1LDQyMC4yNSBaIE04OC41NjI1LDQyMC45Mzc1IFE4OC41NjI1LDQyMC45Mzc1IDg4LjU2MjUsNDExLjc1IEw4Ni44MTI1LDQxMS43NSBRODYuODEyNSw0MTEuNzUgODYuODEyNSw0MjAuOTM3NSBMODguNTYyNSw0MjAuOTM3NSBaIE05Mi4xMjUsNDIwLjkzNzUgTDkzLjg3NSw0MjAuOTM3NSBROTMuODc1LDQyMC45Mzc1IDkzLjg3NSw0MTguMTI1IEw5Mi4xMjUsNDE4LjEyNSBROTIuMTI1LDQxOC4xMjUgOTIuMTI1LDQyMC45Mzc1IFogTTkyLjEyNSw0MTEuNzUgUTkyLjEyNSw0MTEuNzUgOTIuMTI1LDQxNC41NjI1IEw5My44NzUsNDE0LjU2MjUgUTkzLjg3NSw0MTQuNTYyNSA5My44NzUsNDExLjc1IEw5Mi4xMjUsNDExLjc1IFogTTg3Ljg3NSw0MTIuNDM3NSBMOTIuODEyNSw0MTIuNDM3NSBMOTIuODEyNSw0MTAuNjg3NSBMODcuODc1LDQxMC42ODc1IEw4Ny44NzUsNDEyLjQzNzUgWiAiIGZpbGw9IiMwMDAwMDAiLz48dGV4dCBmaWxsPSIjMDAwMDAwIiBmb250LWZhbWlseT0ic2Fucy1zZXJpZiIgZm9udC1zaXplPSIxNCIgbGVuZ3RoQWRqdXN0PSJzcGFjaW5nIiB0ZXh0TGVuZ3RoPSI0MiIgeD0iMTEwLjc1IiB5PSI0MjEuNzQyMiI+QmFza2V0PC90ZXh0PjxsaW5lIHN0eWxlPSJzdHJva2U6IzE4MTgxODtzdHJva2Utd2lkdGg6MC41OyIgeDE9IjQwLjUiIHgyPSIxOTAuNSIgeTE9IjQzMiIgeTI9IjQzMiIvPjxlbGxpcHNlIGN4PSI1MC41IiBjeT0iNDQ0Ljk5MjIiIGZpbGw9Im5vbmUiIHJ4PSIzIiByeT0iMyIgc3R5bGU9InN0cm9rZTojMDM4MDQ4O3N0cm9rZS13aWR0aDoxLjA7Ii8+PHRleHQgZmlsbD0iIzAwMDAwMCIgZm9udC1mYW1pbHk9InNhbnMtc2VyaWYiIGZvbnQtc2l6ZT0iMTQiIGxlbmd0aEFkanVzdD0ic3BhY2luZyIgdGV4dExlbmd0aD0iOTgiIHg9IjU5LjUiIHk9IjQ0OS4yMzQ0Ij5iYXNrZXRfaWQ6IGludDwvdGV4dD48ZWxsaXBzZSBjeD0iNTAuNSIgY3k9IjQ1OS45NzY2IiBmaWxsPSJub25lIiByeD0iMyIgcnk9IjMiIHN0eWxlPSJzdHJva2U6IzAzODA0ODtzdHJva2Utd2lkdGg6MS4wOyIvPjx0ZXh0IGZpbGw9IiMwMDAwMDAiIGZvbnQtZmFtaWx5PSJzYW5zLXNlcmlmIiBmb250LXNpemU9IjE0IiBsZW5ndGhBZGp1c3Q9InNwYWNpbmciIHRleHRMZW5ndGg9Ijg0IiB4PSI1OS41IiB5PSI0NjQuMjE4OCI+dXNlcl9pZDogaW50PC90ZXh0PjxlbGxpcHNlIGN4PSI1MC41IiBjeT0iNDc0Ljk2MDkiIGZpbGw9Im5vbmUiIHJ4PSIzIiByeT0iMyIgc3R5bGU9InN0cm9rZTojMDM4MDQ4O3N0cm9rZS13aWR0aDoxLjA7Ii8+PHRleHQgZmlsbD0iIzAwMDAwMCIgZm9udC1mYW1pbHk9InNhbnMtc2VyaWYiIGZvbnQtc2l6ZT0iMTQiIGxlbmd0aEFkanVzdD0ic3BhY2luZyIgdGV4dExlbmd0aD0iODQiIHg9IjU5LjUiIHk9IjQ3OS4yMDMxIj5mb29kX2lkOiBpbnQ8L3RleHQ+PGVsbGlwc2UgY3g9IjUwLjUiIGN5PSI0ODkuOTQ1MyIgZmlsbD0ibm9uZSIgcng9IjMiIHJ5PSIzIiBzdHlsZT0ic3Ryb2tlOiMwMzgwNDg7c3Ryb2tlLXdpZHRoOjEuMDsiLz48dGV4dCBmaWxsPSIjMDAwMDAwIiBmb250LWZhbWlseT0ic2Fucy1zZXJpZiIgZm9udC1zaXplPSIxNCIgbGVuZ3RoQWRqdXN0PSJzcGFjaW5nIiB0ZXh0TGVuZ3RoPSI5MSIgeD0iNTkuNSIgeT0iNDk0LjE4NzUiPnF1YW50aXR5OiBpbnQ8L3RleHQ+PGVsbGlwc2UgY3g9IjUwLjUiIGN5PSI1MDQuOTI5NyIgZmlsbD0ibm9uZSIgcng9IjMiIHJ5PSIzIiBzdHlsZT0ic3Ryb2tlOiMwMzgwNDg7c3Ryb2tlLXdpZHRoOjEuMDsiLz48dGV4dCBmaWxsPSIjMDAwMDAwIiBmb250LWZhbWlseT0ic2Fucy1zZXJpZiIgZm9udC1zaXplPSIxNCIgbGVuZ3RoQWRqdXN0PSJzcGFjaW5nIiB0ZXh0TGVuZ3RoPSIxMjYiIHg9IjU5LjUiIHk9IjUwOS4xNzE5Ij5yZXN0YXVyYW50X2lkOiBpbnQ8L3RleHQ+PGxpbmUgc3R5bGU9InN0cm9rZTojMTgxODE4O3N0cm9rZS13aWR0aDowLjU7IiB4MT0iNDAuNSIgeDI9IjE5MC41IiB5MT0iNTE0LjkyMTkiIHkyPSI1MTQuOTIxOSIvPjxlbGxpcHNlIGN4PSI1MC41IiBjeT0iNTI3LjkxNDEiIGZpbGw9IiM4NEJFODQiIHJ4PSIzIiByeT0iMyIgc3R5bGU9InN0cm9rZTojMDM4MDQ4O3N0cm9rZS13aWR0aDoxLjA7Ii8+PHRleHQgZmlsbD0iIzAwMDAwMCIgZm9udC1mYW1pbHk9InNhbnMtc2VyaWYiIGZvbnQtc2l6ZT0iMTQiIGxlbmd0aEFkanVzdD0ic3BhY2luZyIgdGV4dExlbmd0aD0iNzMiIHg9IjU5LjUiIHk9IjUzMi4xNTYzIj5hZGRfaXRlbSgpPC90ZXh0PjxlbGxpcHNlIGN4PSI1MC41IiBjeT0iNTQyLjg5ODQiIGZpbGw9IiM4NEJFODQiIHJ4PSIzIiByeT0iMyIgc3R5bGU9InN0cm9rZTojMDM4MDQ4O3N0cm9rZS13aWR0aDoxLjA7Ii8+PHRleHQgZmlsbD0iIzAwMDAwMCIgZm9udC1mYW1pbHk9InNhbnMtc2VyaWYiIGZvbnQtc2l6ZT0iMTQiIGxlbmd0aEFkanVzdD0ic3BhY2luZyIgdGV4dExlbmd0aD0iOTUiIHg9IjU5LjUiIHk9IjU0Ny4xNDA2Ij5yZW1vdmVfaXRlbSgpPC90ZXh0PjxlbGxpcHNlIGN4PSI1MC41IiBjeT0iNTU3Ljg4MjgiIGZpbGw9IiM4NEJFODQiIHJ4PSIzIiByeT0iMyIgc3R5bGU9InN0cm9rZTojMDM4MDQ4O3N0cm9rZS13aWR0aDoxLjA7Ii8+PHRleHQgZmlsbD0iIzAwMDAwMCIgZm9udC1mYW1pbHk9InNhbnMtc2VyaWYiIGZvbnQtc2l6ZT0iMTQiIGxlbmd0aEFkanVzdD0ic3BhY2luZyIgdGV4dExlbmd0aD0iMTIxIiB4PSI1OS41IiB5PSI1NjIuMTI1Ij5jYWxjdWxhdGVfdG90YWwoKTwvdGV4dD48ZWxsaXBzZSBjeD0iNTAuNSIgY3k9IjU3Mi44NjcyIiBmaWxsPSIjODRCRTg0IiByeD0iMyIgcnk9IjMiIHN0eWxlPSJzdHJva2U6IzAzODA0ODtzdHJva2Utd2lkdGg6MS4wOyIvPjx0ZXh0IGZpbGw9IiMwMDAwMDAiIGZvbnQtZmFtaWx5PSJzYW5zLXNlcmlmIiBmb250LXNpemU9IjE0IiBsZW5ndGhBZGp1c3Q9InNwYWNpbmciIHRleHRMZW5ndGg9IjUxIiB4PSI1OS41IiB5PSI1NzcuMTA5NCI+Y2xlYXIoKTwvdGV4dD48ZWxsaXBzZSBjeD0iNTAuNSIgY3k9IjU4Ny44NTE2IiBmaWxsPSIjODRCRTg0IiByeD0iMyIgcnk9IjMiIHN0eWxlPSJzdHJva2U6IzAzODA0ODtzdHJva2Utd2lkdGg6MS4wOyIvPjx0ZXh0IGZpbGw9IiMwMDAwMDAiIGZvbnQtZmFtaWx5PSJzYW5zLXNlcmlmIiBmb250LXNpemU9IjE0IiBsZW5ndGhBZGp1c3Q9InNwYWNpbmciIHRleHRMZW5ndGg9IjcyIiB4PSI1OS41IiB5PSI1OTIuMDkzOCI+Y2hlY2tvdXQoKTwvdGV4dD48L2c+PCEtLWNsYXNzIFBheW1lbnQtLT48ZyBpZD0iZWxlbV9QYXltZW50Ij48cmVjdCBjb2RlTGluZT0iMTc4IiBmaWxsPSIjRjFGMUYxIiBoZWlnaHQ9IjE1Mi44OTA2IiBpZD0iUGF5bWVudCIgcng9IjIuNSIgcnk9IjIuNSIgc3R5bGU9InN0cm9rZTojMTgxODE4O3N0cm9rZS13aWR0aDowLjU7IiB3aWR0aD0iMTgyIiB4PSIyMjYuNSIgeT0iNDIyLjUiLz48ZWxsaXBzZSBjeD0iMjg4LjI1IiBjeT0iNDM4LjUiIGZpbGw9IiNBREQxQjIiIHJ4PSIxMSIgcnk9IjExIiBzdHlsZT0ic3Ryb2tlOiMxODE4MTg7c3Ryb2tlLXdpZHRoOjEuMDsiLz48cGF0aCBkPSJNMjg1Ljg3NSw0NDIuNzUgTDI4NS44NzUsNDQ0LjUgTDI5MC44MTI1LDQ0NC41IEwyOTAuODEyNSw0NDIuNzUgTDI4NS44NzUsNDQyLjc1IFogTTI4Ni41NjI1LDQ0My40Mzc1IFEyODYuNTYyNSw0NDMuNDM3NSAyODYuNTYyNSw0MzQuMjUgTDI4NC44MTI1LDQzNC4yNSBRMjg0LjgxMjUsNDM0LjI1IDI4NC44MTI1LDQ0My40Mzc1IEwyODYuNTYyNSw0NDMuNDM3NSBaIE0yOTAuMTI1LDQ0My40Mzc1IEwyOTEuODc1LDQ0My40Mzc1IFEyOTEuODc1LDQ0My40Mzc1IDI5MS44NzUsNDQwLjYyNSBMMjkwLjEyNSw0NDAuNjI1IFEyOTAuMTI1LDQ0MC42MjUgMjkwLjEyNSw0NDMuNDM3NSBaIE0yOTAuMTI1LDQzNC4yNSBRMjkwLjEyNSw0MzQuMjUgMjkwLjEyNSw0MzcuMDYyNSBMMjkxLjg3NSw0MzcuMDYyNSBRMjkxLjg3NSw0MzcuMDYyNSAyOTEuODc1LDQzNC4yNSBMMjkwLjEyNSw0MzQuMjUgWiBNMjg1Ljg3NSw0MzQuOTM3NSBMMjkwLjgxMjUsNDM0LjkzNzUgTDI5MC44MTI1LDQzMy4xODc1IEwyODUuODc1LDQzMy4xODc1IEwyODUuODc1LDQzNC45Mzc1IFogIiBmaWxsPSIjMDAwMDAwIi8+PHRleHQgZmlsbD0iIzAwMDAwMCIgZm9udC1mYW1pbHk9InNhbnMtc2VyaWYiIGZvbnQtc2l6ZT0iMTQiIGxlbmd0aEFkanVzdD0ic3BhY2luZyIgdGV4dExlbmd0aD0iNTAiIHg9IjMwOC43NSIgeT0iNDQ0LjI0MjIiPlBheW1lbnQ8L3RleHQ+PGxpbmUgc3R5bGU9InN0cm9rZTojMTgxODE4O3N0cm9rZS13aWR0aDowLjU7IiB4MT0iMjI3LjUiIHgyPSI0MDcuNSIgeTE9IjQ1NC41IiB5Mj0iNDU0LjUiLz48ZWxsaXBzZSBjeD0iMjM3LjUiIGN5PSI0NjcuNDkyMiIgZmlsbD0ibm9uZSIgcng9IjMiIHJ5PSIzIiBzdHlsZT0ic3Ryb2tlOiMwMzgwNDg7c3Ryb2tlLXdpZHRoOjEuMDsiLz48dGV4dCBmaWxsPSIjMDAwMDAwIiBmb250LWZhbWlseT0ic2Fucy1zZXJpZiIgZm9udC1zaXplPSIxNCIgbGVuZ3RoQWRqdXN0PSJzcGFjaW5nIiB0ZXh0TGVuZ3RoPSIxMDYiIHg9IjI0Ni41IiB5PSI0NzEuNzM0NCI+cGF5bWVudF9pZDogaW50PC90ZXh0PjxlbGxpcHNlIGN4PSIyMzcuNSIgY3k9IjQ4Mi40NzY2IiBmaWxsPSJub25lIiByeD0iMyIgcnk9IjMiIHN0eWxlPSJzdHJva2U6IzAzODA0ODtzdHJva2Utd2lkdGg6MS4wOyIvPjx0ZXh0IGZpbGw9IiMwMDAwMDAiIGZvbnQtZmFtaWx5PSJzYW5zLXNlcmlmIiBmb250LXNpemU9IjE0IiBsZW5ndGhBZGp1c3Q9InNwYWNpbmciIHRleHRMZW5ndGg9Ijk4IiB4PSIyNDYuNSIgeT0iNDg2LjcxODgiPmJhc2tldF9pZDogaW50PC90ZXh0PjxlbGxpcHNlIGN4PSIyMzcuNSIgY3k9IjQ5Ny40NjA5IiBmaWxsPSJub25lIiByeD0iMyIgcnk9IjMiIHN0eWxlPSJzdHJva2U6IzAzODA0ODtzdHJva2Utd2lkdGg6MS4wOyIvPjx0ZXh0IGZpbGw9IiMwMDAwMDAiIGZvbnQtZmFtaWx5PSJzYW5zLXNlcmlmIiBmb250LXNpemU9IjE0IiBsZW5ndGhBZGp1c3Q9InNwYWNpbmciIHRleHRMZW5ndGg9IjE1NiIgeD0iMjQ2LjUiIHk9IjUwMS43MDMxIj5wYXltZW50X2RhdGU6IGRhdGV0aW1lPC90ZXh0PjxlbGxpcHNlIGN4PSIyMzcuNSIgY3k9IjUxMi40NDUzIiBmaWxsPSJub25lIiByeD0iMyIgcnk9IjMiIHN0eWxlPSJzdHJva2U6IzAzODA0ODtzdHJva2Utd2lkdGg6MS4wOyIvPjx0ZXh0IGZpbGw9IiMwMDAwMDAiIGZvbnQtZmFtaWx5PSJzYW5zLXNlcmlmIiBmb250LXNpemU9IjE0IiBsZW5ndGhBZGp1c3Q9InNwYWNpbmciIHRleHRMZW5ndGg9IjkyIiB4PSIyNDYuNSIgeT0iNTE2LjY4NzUiPmFtb3VudDogZmxvYXQ8L3RleHQ+PGVsbGlwc2UgY3g9IjIzNy41IiBjeT0iNTI3LjQyOTciIGZpbGw9Im5vbmUiIHJ4PSIzIiByeT0iMyIgc3R5bGU9InN0cm9rZTojMDM4MDQ4O3N0cm9rZS13aWR0aDoxLjA7Ii8+PHRleHQgZmlsbD0iIzAwMDAwMCIgZm9udC1mYW1pbHk9InNhbnMtc2VyaWYiIGZvbnQtc2l6ZT0iMTQiIGxlbmd0aEFkanVzdD0ic3BhY2luZyIgdGV4dExlbmd0aD0iMTU1IiB4PSIyNDYuNSIgeT0iNTMxLjY3MTkiPnBheW1lbnRfc3RhdHVzOiBzdHJpbmc8L3RleHQ+PGxpbmUgc3R5bGU9InN0cm9rZTojMTgxODE4O3N0cm9rZS13aWR0aDowLjU7IiB4MT0iMjI3LjUiIHgyPSI0MDcuNSIgeTE9IjUzNy40MjE5IiB5Mj0iNTM3LjQyMTkiLz48ZWxsaXBzZSBjeD0iMjM3LjUiIGN5PSI1NTAuNDE0MSIgZmlsbD0iIzg0QkU4NCIgcng9IjMiIHJ5PSIzIiBzdHlsZT0ic3Ryb2tlOiMwMzgwNDg7c3Ryb2tlLXdpZHRoOjEuMDsiLz48dGV4dCBmaWxsPSIjMDAwMDAwIiBmb250LWZhbWlseT0ic2Fucy1zZXJpZiIgZm9udC1zaXplPSIxNCIgbGVuZ3RoQWRqdXN0PSJzcGFjaW5nIiB0ZXh0TGVuZ3RoPSIxMTUiIHg9IjI0Ni41IiB5PSI1NTQuNjU2MyI+Y3JlYXRlX3BheW1lbnQoKTwvdGV4dD48ZWxsaXBzZSBjeD0iMjM3LjUiIGN5PSI1NjUuMzk4NCIgZmlsbD0iIzg0QkU4NCIgcng9IjMiIHJ5PSIzIiBzdHlsZT0ic3Ryb2tlOiMwMzgwNDg7c3Ryb2tlLXdpZHRoOjEuMDsiLz48dGV4dCBmaWxsPSIjMDAwMDAwIiBmb250LWZhbWlseT0ic2Fucy1zZXJpZiIgZm9udC1zaXplPSIxNCIgbGVuZ3RoQWRqdXN0PSJzcGFjaW5nIiB0ZXh0TGVuZ3RoPSIxMzciIHg9IjI0Ni41IiB5PSI1NjkuNjQwNiI+bWFya19hc19jb21wbGV0ZWQoKTwvdGV4dD48L2c+PCEtLWNsYXNzIE9yZGVyLS0+PGcgaWQ9ImVsZW1fT3JkZXIiPjxyZWN0IGNvZGVMaW5lPSIxODkiIGZpbGw9IiNGMUYxRjEiIGhlaWdodD0iMTUyLjg5MDYiIGlkPSJPcmRlciIgcng9IjIuNSIgcnk9IjIuNSIgc3R5bGU9InN0cm9rZTojMTgxODE4O3N0cm9rZS13aWR0aDowLjU7IiB3aWR0aD0iMTc1IiB4PSI0NDQiIHk9IjQyMi41Ii8+PGVsbGlwc2UgY3g9IjUwOS43NSIgY3k9IjQzOC41IiBmaWxsPSIjQUREMUIyIiByeD0iMTEiIHJ5PSIxMSIgc3R5bGU9InN0cm9rZTojMTgxODE4O3N0cm9rZS13aWR0aDoxLjA7Ii8+PHBhdGggZD0iTTUwNy4zNzUsNDQyLjc1IEw1MDcuMzc1LDQ0NC41IEw1MTIuMzEyNSw0NDQuNSBMNTEyLjMxMjUsNDQyLjc1IEw1MDcuMzc1LDQ0Mi43NSBaIE01MDguMDYyNSw0NDMuNDM3NSBRNTA4LjA2MjUsNDQzLjQzNzUgNTA4LjA2MjUsNDM0LjI1IEw1MDYuMzEyNSw0MzQuMjUgUTUwNi4zMTI1LDQzNC4yNSA1MDYuMzEyNSw0NDMuNDM3NSBMNTA4LjA2MjUsNDQzLjQzNzUgWiBNNTExLjYyNSw0NDMuNDM3NSBMNTEzLjM3NSw0NDMuNDM3NSBRNTEzLjM3NSw0NDMuNDM3NSA1MTMuMzc1LDQ0MC42MjUgTDUxMS42MjUsNDQwLjYyNSBRNTExLjYyNSw0NDAuNjI1IDUxMS42MjUsNDQzLjQzNzUgWiBNNTExLjYyNSw0MzQuMjUgUTUxMS42MjUsNDM0LjI1IDUxMS42MjUsNDM3LjA2MjUgTDUxMy4zNzUsNDM3LjA2MjUgUTUxMy4zNzUsNDM3LjA2MjUgNTEzLjM3NSw0MzQuMjUgTDUxMS42MjUsNDM0LjI1IFogTTUwNy4zNzUsNDM0LjkzNzUgTDUxMi4zMTI1LDQzNC45Mzc1IEw1MTIuMzEyNSw0MzMuMTg3NSBMNTA3LjM3NSw0MzMuMTg3NSBMNTA3LjM3NSw0MzQuOTM3NSBaICIgZmlsbD0iIzAwMDAwMCIvPjx0ZXh0IGZpbGw9IiMwMDAwMDAiIGZvbnQtZmFtaWx5PSJzYW5zLXNlcmlmIiBmb250LXNpemU9IjE0IiBsZW5ndGhBZGp1c3Q9InNwYWNpbmciIHRleHRMZW5ndGg9IjM1IiB4PSI1MzAuMjUiIHk9IjQ0NC4yNDIyIj5PcmRlcjwvdGV4dD48bGluZSBzdHlsZT0ic3Ryb2tlOiMxODE4MTg7c3Ryb2tlLXdpZHRoOjAuNTsiIHgxPSI0NDUiIHgyPSI2MTgiIHkxPSI0NTQuNSIgeTI9IjQ1NC41Ii8+PGVsbGlwc2UgY3g9IjQ1NSIgY3k9IjQ2Ny40OTIyIiBmaWxsPSJub25lIiByeD0iMyIgcnk9IjMiIHN0eWxlPSJzdHJva2U6IzAzODA0ODtzdHJva2Utd2lkdGg6MS4wOyIvPjx0ZXh0IGZpbGw9IiMwMDAwMDAiIGZvbnQtZmFtaWx5PSJzYW5zLXNlcmlmIiBmb250LXNpemU9IjE0IiBsZW5ndGhBZGp1c3Q9InNwYWNpbmciIHRleHRMZW5ndGg9IjkxIiB4PSI0NjQiIHk9IjQ3MS43MzQ0Ij5vcmRlcl9pZDogaW50PC90ZXh0PjxlbGxpcHNlIGN4PSI0NTUiIGN5PSI0ODIuNDc2NiIgZmlsbD0ibm9uZSIgcng9IjMiIHJ5PSIzIiBzdHlsZT0ic3Ryb2tlOiMwMzgwNDg7c3Ryb2tlLXdpZHRoOjEuMDsiLz48dGV4dCBmaWxsPSIjMDAwMDAwIiBmb250LWZhbWlseT0ic2Fucy1zZXJpZiIgZm9udC1zaXplPSIxNCIgbGVuZ3RoQWRqdXN0PSJzcGFjaW5nIiB0ZXh0TGVuZ3RoPSIxMDYiIHg9IjQ2NCIgeT0iNDg2LjcxODgiPnBheW1lbnRfaWQ6IGludDwvdGV4dD48ZWxsaXBzZSBjeD0iNDU1IiBjeT0iNDk3LjQ2MDkiIGZpbGw9Im5vbmUiIHJ4PSIzIiByeT0iMyIgc3R5bGU9InN0cm9rZTojMDM4MDQ4O3N0cm9rZS13aWR0aDoxLjA7Ii8+PHRleHQgZmlsbD0iIzAwMDAwMCIgZm9udC1mYW1pbHk9InNhbnMtc2VyaWYiIGZvbnQtc2l6ZT0iMTQiIGxlbmd0aEFkanVzdD0ic3BhY2luZyIgdGV4dExlbmd0aD0iMTQxIiB4PSI0NjQiIHk9IjUwMS43MDMxIj5vcmRlcl9kYXRlOiBkYXRldGltZTwvdGV4dD48ZWxsaXBzZSBjeD0iNDU1IiBjeT0iNTEyLjQ0NTMiIGZpbGw9Im5vbmUiIHJ4PSIzIiByeT0iMyIgc3R5bGU9InN0cm9rZTojMDM4MDQ4O3N0cm9rZS13aWR0aDoxLjA7Ii8+PHRleHQgZmlsbD0iIzAwMDAwMCIgZm9udC1mYW1pbHk9InNhbnMtc2VyaWYiIGZvbnQtc2l6ZT0iMTQiIGxlbmd0aEFkanVzdD0ic3BhY2luZyIgdGV4dExlbmd0aD0iOTgiIHg9IjQ2NCIgeT0iNTE2LjY4NzUiPnN0YXR1czogc3RyaW5nPC90ZXh0PjxsaW5lIHN0eWxlPSJzdHJva2U6IzE4MTgxODtzdHJva2Utd2lkdGg6MC41OyIgeDE9IjQ0NSIgeDI9IjYxOCIgeTE9IjUyMi40Mzc1IiB5Mj0iNTIyLjQzNzUiLz48ZWxsaXBzZSBjeD0iNDU1IiBjeT0iNTM1LjQyOTciIGZpbGw9IiM4NEJFODQiIHJ4PSIzIiByeT0iMyIgc3R5bGU9InN0cm9rZTojMDM4MDQ4O3N0cm9rZS13aWR0aDoxLjA7Ii8+PHRleHQgZmlsbD0iIzAwMDAwMCIgZm9udC1mYW1pbHk9InNhbnMtc2VyaWYiIGZvbnQtc2l6ZT0iMTQiIGxlbmd0aEFkanVzdD0ic3BhY2luZyIgdGV4dExlbmd0aD0iMTAwIiB4PSI0NjQiIHk9IjUzOS42NzE5Ij5jcmVhdGVfb3JkZXIoKTwvdGV4dD48ZWxsaXBzZSBjeD0iNDU1IiBjeT0iNTUwLjQxNDEiIGZpbGw9IiM4NEJFODQiIHJ4PSIzIiByeT0iMyIgc3R5bGU9InN0cm9rZTojMDM4MDQ4O3N0cm9rZS13aWR0aDoxLjA7Ii8+PHRleHQgZmlsbD0iIzAwMDAwMCIgZm9udC1mYW1pbHk9InNhbnMtc2VyaWYiIGZvbnQtc2l6ZT0iMTQiIGxlbmd0aEFkanVzdD0ic3BhY2luZyIgdGV4dExlbmd0aD0iMTM1IiB4PSI0NjQiIHk9IjU1NC42NTYzIj5hZGRfb3JkZXJfZGV0YWlscygpPC90ZXh0PjxlbGxpcHNlIGN4PSI0NTUiIGN5PSI1NjUuMzk4NCIgZmlsbD0iIzg0QkU4NCIgcng9IjMiIHJ5PSIzIiBzdHlsZT0ic3Ryb2tlOiMwMzgwNDg7c3Ryb2tlLXdpZHRoOjEuMDsiLz48dGV4dCBmaWxsPSIjMDAwMDAwIiBmb250LWZhbWlseT0ic2Fucy1zZXJpZiIgZm9udC1zaXplPSIxNCIgbGVuZ3RoQWRqdXN0PSJzcGFjaW5nIiB0ZXh0TGVuZ3RoPSIxNDkiIHg9IjQ2NCIgeT0iNTY5LjY0MDYiPnVwZGF0ZV9vcmRlcl9zdGF0dXMoKTwvdGV4dD48L2c+PCEtLWNsYXNzIE9yZGVyRGV0YWlscy0tPjxnIGlkPSJlbGVtX09yZGVyRGV0YWlscyI+PHJlY3QgY29kZUxpbmU9IjIwMCIgZmlsbD0iI0YxRjFGMSIgaGVpZ2h0PSIxMjIuOTIxOSIgaWQ9Ik9yZGVyRGV0YWlscyIgcng9IjIuNSIgcnk9IjIuNSIgc3R5bGU9InN0cm9rZTojMTgxODE4O3N0cm9rZS13aWR0aDowLjU7IiB3aWR0aD0iMTY2IiB4PSIzMi41IiB5PSI3MzMiLz48ZWxsaXBzZSBjeD0iNzAiIGN5PSI3NDkiIGZpbGw9IiNBREQxQjIiIHJ4PSIxMSIgcnk9IjExIiBzdHlsZT0ic3Ryb2tlOiMxODE4MTg7c3Ryb2tlLXdpZHRoOjEuMDsiLz48cGF0aCBkPSJNNjcuNjI1LDc1My4yNSBMNjcuNjI1LDc1NSBMNzIuNTYyNSw3NTUgTDcyLjU2MjUsNzUzLjI1IEw2Ny42MjUsNzUzLjI1IFogTTY4LjMxMjUsNzUzLjkzNzUgUTY4LjMxMjUsNzUzLjkzNzUgNjguMzEyNSw3NDQuNzUgTDY2LjU2MjUsNzQ0Ljc1IFE2Ni41NjI1LDc0NC43NSA2Ni41NjI1LDc1My45Mzc1IEw2OC4zMTI1LDc1My45Mzc1IFogTTcxLjg3NSw3NTMuOTM3NSBMNzMuNjI1LDc1My45Mzc1IFE3My42MjUsNzUzLjkzNzUgNzMuNjI1LDc1MS4xMjUgTDcxLjg3NSw3NTEuMTI1IFE3MS44NzUsNzUxLjEyNSA3MS44NzUsNzUzLjkzNzUgWiBNNzEuODc1LDc0NC43NSBRNzEuODc1LDc0NC43NSA3MS44NzUsNzQ3LjU2MjUgTDczLjYyNSw3NDcuNTYyNSBRNzMuNjI1LDc0Ny41NjI1IDczLjYyNSw3NDQuNzUgTDcxLjg3NSw3NDQuNzUgWiBNNjcuNjI1LDc0NS40Mzc1IEw3Mi41NjI1LDc0NS40Mzc1IEw3Mi41NjI1LDc0My42ODc1IEw2Ny42MjUsNzQzLjY4NzUgTDY3LjYyNSw3NDUuNDM3NSBaICIgZmlsbD0iIzAwMDAwMCIvPjx0ZXh0IGZpbGw9IiMwMDAwMDAiIGZvbnQtZmFtaWx5PSJzYW5zLXNlcmlmIiBmb250LXNpemU9IjE0IiBsZW5ndGhBZGp1c3Q9InNwYWNpbmciIHRleHRMZW5ndGg9Ijg0IiB4PSI4OSIgeT0iNzU0Ljc0MjIiPk9yZGVyRGV0YWlsczwvdGV4dD48bGluZSBzdHlsZT0ic3Ryb2tlOiMxODE4MTg7c3Ryb2tlLXdpZHRoOjAuNTsiIHgxPSIzMy41IiB4Mj0iMTk3LjUiIHkxPSI3NjUiIHkyPSI3NjUiLz48ZWxsaXBzZSBjeD0iNDMuNSIgY3k9Ijc3Ny45OTIyIiBmaWxsPSJub25lIiByeD0iMyIgcnk9IjMiIHN0eWxlPSJzdHJva2U6IzAzODA0ODtzdHJva2Utd2lkdGg6MS4wOyIvPjx0ZXh0IGZpbGw9IiMwMDAwMDAiIGZvbnQtZmFtaWx5PSJzYW5zLXNlcmlmIiBmb250LXNpemU9IjE0IiBsZW5ndGhBZGp1c3Q9InNwYWNpbmciIHRleHRMZW5ndGg9IjE0MCIgeD0iNTIuNSIgeT0iNzgyLjIzNDQiPm9yZGVyX2RldGFpbF9pZDogaW50PC90ZXh0PjxlbGxpcHNlIGN4PSI0My41IiBjeT0iNzkyLjk3NjYiIGZpbGw9Im5vbmUiIHJ4PSIzIiByeT0iMyIgc3R5bGU9InN0cm9rZTojMDM4MDQ4O3N0cm9rZS13aWR0aDoxLjA7Ii8+PHRleHQgZmlsbD0iIzAwMDAwMCIgZm9udC1mYW1pbHk9InNhbnMtc2VyaWYiIGZvbnQtc2l6ZT0iMTQiIGxlbmd0aEFkanVzdD0ic3BhY2luZyIgdGV4dExlbmd0aD0iOTEiIHg9IjUyLjUiIHk9Ijc5Ny4yMTg4Ij5vcmRlcl9pZDogaW50PC90ZXh0PjxlbGxpcHNlIGN4PSI0My41IiBjeT0iODA3Ljk2MDkiIGZpbGw9Im5vbmUiIHJ4PSIzIiByeT0iMyIgc3R5bGU9InN0cm9rZTojMDM4MDQ4O3N0cm9rZS13aWR0aDoxLjA7Ii8+PHRleHQgZmlsbD0iIzAwMDAwMCIgZm9udC1mYW1pbHk9InNhbnMtc2VyaWYiIGZvbnQtc2l6ZT0iMTQiIGxlbmd0aEFkanVzdD0ic3BhY2luZyIgdGV4dExlbmd0aD0iODQiIHg9IjUyLjUiIHk9IjgxMi4yMDMxIj5mb29kX2lkOiBpbnQ8L3RleHQ+PGVsbGlwc2UgY3g9IjQzLjUiIGN5PSI4MjIuOTQ1MyIgZmlsbD0ibm9uZSIgcng9IjMiIHJ5PSIzIiBzdHlsZT0ic3Ryb2tlOiMwMzgwNDg7c3Ryb2tlLXdpZHRoOjEuMDsiLz48dGV4dCBmaWxsPSIjMDAwMDAwIiBmb250LWZhbWlseT0ic2Fucy1zZXJpZiIgZm9udC1zaXplPSIxNCIgbGVuZ3RoQWRqdXN0PSJzcGFjaW5nIiB0ZXh0TGVuZ3RoPSI5MSIgeD0iNTIuNSIgeT0iODI3LjE4NzUiPnF1YW50aXR5OiBpbnQ8L3RleHQ+PGVsbGlwc2UgY3g9IjQzLjUiIGN5PSI4MzcuOTI5NyIgZmlsbD0ibm9uZSIgcng9IjMiIHJ5PSIzIiBzdHlsZT0ic3Ryb2tlOiMwMzgwNDg7c3Ryb2tlLXdpZHRoOjEuMDsiLz48dGV4dCBmaWxsPSIjMDAwMDAwIiBmb250LWZhbWlseT0ic2Fucy1zZXJpZiIgZm9udC1zaXplPSIxNCIgbGVuZ3RoQWRqdXN0PSJzcGFjaW5nIiB0ZXh0TGVuZ3RoPSI4NCIgeD0iNTIuNSIgeT0iODQyLjE3MTkiPnByaWNlOiBmbG9hdDwvdGV4dD48bGluZSBzdHlsZT0ic3Ryb2tlOiMxODE4MTg7c3Ryb2tlLXdpZHRoOjAuNTsiIHgxPSIzMy41IiB4Mj0iMTk3LjUiIHkxPSI4NDcuOTIxOSIgeTI9Ijg0Ny45MjE5Ii8+PC9nPjwhLS1jbGFzcyBCYW5rSW5mby0tPjxnIGlkPSJlbGVtX0JhbmtJbmZvIj48cmVjdCBjb2RlTGluZT0iMjA5IiBmaWxsPSIjRjFGMUYxIiBoZWlnaHQ9IjE5Ny44NDM4IiBpZD0iQmFua0luZm8iIHJ4PSIyLjUiIHJ5PSIyLjUiIHN0eWxlPSJzdHJva2U6IzE4MTgxODtzdHJva2Utd2lkdGg6MC41OyIgd2lkdGg9IjE4MSIgeD0iMTU0MiIgeT0iNDAwIi8+PGVsbGlwc2UgY3g9IjE2MDAuMjUiIGN5PSI0MTYiIGZpbGw9IiNBREQxQjIiIHJ4PSIxMSIgcnk9IjExIiBzdHlsZT0ic3Ryb2tlOiMxODE4MTg7c3Ryb2tlLXdpZHRoOjEuMDsiLz48cGF0aCBkPSJNMTU5Ny44NzUsNDIwLjI1IEwxNTk3Ljg3NSw0MjIgTDE2MDIuODEyNSw0MjIgTDE2MDIuODEyNSw0MjAuMjUgTDE1OTcuODc1LDQyMC4yNSBaIE0xNTk4LjU2MjUsNDIwLjkzNzUgUTE1OTguNTYyNSw0MjAuOTM3NSAxNTk4LjU2MjUsNDExLjc1IEwxNTk2LjgxMjUsNDExLjc1IFExNTk2LjgxMjUsNDExLjc1IDE1OTYuODEyNSw0MjAuOTM3NSBMMTU5OC41NjI1LDQyMC45Mzc1IFogTTE2MDIuMTI1LDQyMC45Mzc1IEwxNjAzLjg3NSw0MjAuOTM3NSBRMTYwMy44NzUsNDIwLjkzNzUgMTYwMy44NzUsNDE4LjEyNSBMMTYwMi4xMjUsNDE4LjEyNSBRMTYwMi4xMjUsNDE4LjEyNSAxNjAyLjEyNSw0MjAuOTM3NSBaIE0xNjAyLjEyNSw0MTEuNzUgUTE2MDIuMTI1LDQxMS43NSAxNjAyLjEyNSw0MTQuNTYyNSBMMTYwMy44NzUsNDE0LjU2MjUgUTE2MDMuODc1LDQxNC41NjI1IDE2MDMuODc1LDQxMS43NSBMMTYwMi4xMjUsNDExLjc1IFogTTE1OTcuODc1LDQxMi40Mzc1IEwxNjAyLjgxMjUsNDEyLjQzNzUgTDE2MDIuODEyNSw0MTAuNjg3NSBMMTU5Ny44NzUsNDEwLjY4NzUgTDE1OTcuODc1LDQxMi40Mzc1IFogIiBmaWxsPSIjMDAwMDAwIi8+PHRleHQgZmlsbD0iIzAwMDAwMCIgZm9udC1mYW1pbHk9InNhbnMtc2VyaWYiIGZvbnQtc2l6ZT0iMTQiIGxlbmd0aEFkanVzdD0ic3BhY2luZyIgdGV4dExlbmd0aD0iNTYiIHg9IjE2MjAuNzUiIHk9IjQyMS43NDIyIj5CYW5rSW5mbzwvdGV4dD48bGluZSBzdHlsZT0ic3Ryb2tlOiMxODE4MTg7c3Ryb2tlLXdpZHRoOjAuNTsiIHgxPSIxNTQzIiB4Mj0iMTcyMiIgeTE9IjQzMiIgeTI9IjQzMiIvPjxlbGxpcHNlIGN4PSIxNTUzIiBjeT0iNDQ0Ljk5MjIiIGZpbGw9Im5vbmUiIHJ4PSIzIiByeT0iMyIgc3R5bGU9InN0cm9rZTojMDM4MDQ4O3N0cm9rZS13aWR0aDoxLjA7Ii8+PHRleHQgZmlsbD0iIzAwMDAwMCIgZm9udC1mYW1pbHk9InNhbnMtc2VyaWYiIGZvbnQtc2l6ZT0iMTQiIGxlbmd0aEFkanVzdD0ic3BhY2luZyIgdGV4dExlbmd0aD0iMTE5IiB4PSIxNTYyIiB5PSI0NDkuMjM0NCI+YmFua19pbmZvX2lkOiBpbnQ8L3RleHQ+PGVsbGlwc2UgY3g9IjE1NTMiIGN5PSI0NTkuOTc2NiIgZmlsbD0ibm9uZSIgcng9IjMiIHJ5PSIzIiBzdHlsZT0ic3Ryb2tlOiMwMzgwNDg7c3Ryb2tlLXdpZHRoOjEuMDsiLz48dGV4dCBmaWxsPSIjMDAwMDAwIiBmb250LWZhbWlseT0ic2Fucy1zZXJpZiIgZm9udC1zaXplPSIxNCIgbGVuZ3RoQWRqdXN0PSJzcGFjaW5nIiB0ZXh0TGVuZ3RoPSIxMjYiIHg9IjE1NjIiIHk9IjQ2NC4yMTg4Ij5yZXN0YXVyYW50X2lkOiBpbnQ8L3RleHQ+PGVsbGlwc2UgY3g9IjE1NTMiIGN5PSI0NzQuOTYwOSIgZmlsbD0ibm9uZSIgcng9IjMiIHJ5PSIzIiBzdHlsZT0ic3Ryb2tlOiMwMzgwNDg7c3Ryb2tlLXdpZHRoOjEuMDsiLz48dGV4dCBmaWxsPSIjMDAwMDAwIiBmb250LWZhbWlseT0ic2Fucy1zZXJpZiIgZm9udC1zaXplPSIxNCIgbGVuZ3RoQWRqdXN0PSJzcGFjaW5nIiB0ZXh0TGVuZ3RoPSIxMjAiIHg9IjE1NjIiIHk9IjQ3OS4yMDMxIj5iYW5rX25hbWU6IHN0cmluZzwvdGV4dD48ZWxsaXBzZSBjeD0iMTU1MyIgY3k9IjQ4OS45NDUzIiBmaWxsPSJub25lIiByeD0iMyIgcnk9IjMiIHN0eWxlPSJzdHJva2U6IzAzODA0ODtzdHJva2Utd2lkdGg6MS4wOyIvPjx0ZXh0IGZpbGw9IiMwMDAwMDAiIGZvbnQtZmFtaWx5PSJzYW5zLXNlcmlmIiBmb250LXNpemU9IjE0IiBsZW5ndGhBZGp1c3Q9InNwYWNpbmciIHRleHRMZW5ndGg9IjE1NSIgeD0iMTU2MiIgeT0iNDk0LjE4NzUiPmFjY291bnRfbnVtYmVyOiBzdHJpbmc8L3RleHQ+PGVsbGlwc2UgY3g9IjE1NTMiIGN5PSI1MDQuOTI5NyIgZmlsbD0ibm9uZSIgcng9IjMiIHJ5PSIzIiBzdHlsZT0ic3Ryb2tlOiMwMzgwNDg7c3Ryb2tlLXdpZHRoOjEuMDsiLz48dGV4dCBmaWxsPSIjMDAwMDAwIiBmb250LWZhbWlseT0ic2Fucy1zZXJpZiIgZm9udC1zaXplPSIxNCIgbGVuZ3RoQWRqdXN0PSJzcGFjaW5nIiB0ZXh0TGVuZ3RoPSIxNTUiIHg9IjE1NjIiIHk9IjUwOS4xNzE5Ij5yb3V0aW5nX251bWJlcjogc3RyaW5nPC90ZXh0PjxlbGxpcHNlIGN4PSIxNTUzIiBjeT0iNTE5LjkxNDEiIGZpbGw9Im5vbmUiIHJ4PSIzIiByeT0iMyIgc3R5bGU9InN0cm9rZTojMDM4MDQ4O3N0cm9rZS13aWR0aDoxLjA7Ii8+PHRleHQgZmlsbD0iIzAwMDAwMCIgZm9udC1mYW1pbHk9InNhbnMtc2VyaWYiIGZvbnQtc2l6ZT0iMTQiIGxlbmd0aEFkanVzdD0ic3BhY2luZyIgdGV4dExlbmd0aD0iMTQwIiB4PSIxNTYyIiB5PSI1MjQuMTU2MyI+YWNjb3VudF90eXBlOiBzdHJpbmc8L3RleHQ+PGVsbGlwc2UgY3g9IjE1NTMiIGN5PSI1MzQuODk4NCIgZmlsbD0ibm9uZSIgcng9IjMiIHJ5PSIzIiBzdHlsZT0ic3Ryb2tlOiMwMzgwNDg7c3Ryb2tlLXdpZHRoOjEuMDsiLz48dGV4dCBmaWxsPSIjMDAwMDAwIiBmb250LWZhbWlseT0ic2Fucy1zZXJpZiIgZm9udC1zaXplPSIxNCIgbGVuZ3RoQWRqdXN0PSJzcGFjaW5nIiB0ZXh0TGVuZ3RoPSI4NCIgeD0iMTU2MiIgeT0iNTM5LjE0MDYiPmliYW46IHN0cmluZzwvdGV4dD48bGluZSBzdHlsZT0ic3Ryb2tlOiMxODE4MTg7c3Ryb2tlLXdpZHRoOjAuNTsiIHgxPSIxNTQzIiB4Mj0iMTcyMiIgeTE9IjU0NC44OTA2IiB5Mj0iNTQ0Ljg5MDYiLz48ZWxsaXBzZSBjeD0iMTU1MyIgY3k9IjU1Ny44ODI4IiBmaWxsPSIjODRCRTg0IiByeD0iMyIgcnk9IjMiIHN0eWxlPSJzdHJva2U6IzAzODA0ODtzdHJva2Utd2lkdGg6MS4wOyIvPjx0ZXh0IGZpbGw9IiMwMDAwMDAiIGZvbnQtZmFtaWx5PSJzYW5zLXNlcmlmIiBmb250LXNpemU9IjE0IiBsZW5ndGhBZGp1c3Q9InNwYWNpbmciIHRleHRMZW5ndGg9IjEwNyIgeD0iMTU2MiIgeT0iNTYyLjEyNSI+YWRkX2JhbmtfaW5mbygpPC90ZXh0PjxlbGxpcHNlIGN4PSIxNTUzIiBjeT0iNTcyLjg2NzIiIGZpbGw9IiM4NEJFODQiIHJ4PSIzIiByeT0iMyIgc3R5bGU9InN0cm9rZTojMDM4MDQ4O3N0cm9rZS13aWR0aDoxLjA7Ii8+PHRleHQgZmlsbD0iIzAwMDAwMCIgZm9udC1mYW1pbHk9InNhbnMtc2VyaWYiIGZvbnQtc2l6ZT0iMTQiIGxlbmd0aEFkanVzdD0ic3BhY2luZyIgdGV4dExlbmd0aD0iMTI4IiB4PSIxNTYyIiB5PSI1NzcuMTA5NCI+dXBkYXRlX2JhbmtfaW5mbygpPC90ZXh0PjxlbGxpcHNlIGN4PSIxNTUzIiBjeT0iNTg3Ljg1MTYiIGZpbGw9IiM4NEJFODQiIHJ4PSIzIiByeT0iMyIgc3R5bGU9InN0cm9rZTojMDM4MDQ4O3N0cm9rZS13aWR0aDoxLjA7Ii8+PHRleHQgZmlsbD0iIzAwMDAwMCIgZm9udC1mYW1pbHk9InNhbnMtc2VyaWYiIGZvbnQtc2l6ZT0iMTQiIGxlbmd0aEFkanVzdD0ic3BhY2luZyIgdGV4dExlbmd0aD0iMTI4IiB4PSIxNTYyIiB5PSI1OTIuMDkzOCI+ZGVsZXRlX2JhbmtfaW5mbygpPC90ZXh0PjwvZz48IS0tY2xhc3MgUmVzdGF1cmFudERvY3MtLT48ZyBpZD0iZWxlbV9SZXN0YXVyYW50RG9jcyI+PHJlY3QgY29kZUxpbmU9IjIyMyIgZmlsbD0iI0YxRjFGMSIgaGVpZ2h0PSIxNjcuODc1IiBpZD0iUmVzdGF1cmFudERvY3MiIHJ4PSIyLjUiIHJ5PSIyLjUiIHN0eWxlPSJzdHJva2U6IzE4MTgxODtzdHJva2Utd2lkdGg6MC41OyIgd2lkdGg9IjE3NCIgeD0iMTc1OC41IiB5PSI0MTUiLz48ZWxsaXBzZSBjeD0iMTc5My4zIiBjeT0iNDMxIiBmaWxsPSIjQUREMUIyIiByeD0iMTEiIHJ5PSIxMSIgc3R5bGU9InN0cm9rZTojMTgxODE4O3N0cm9rZS13aWR0aDoxLjA7Ii8+PHBhdGggZD0iTTE3OTAuOTI1LDQzNS4yNSBMMTc5MC45MjUsNDM3IEwxNzk1Ljg2MjUsNDM3IEwxNzk1Ljg2MjUsNDM1LjI1IEwxNzkwLjkyNSw0MzUuMjUgWiBNMTc5MS42MTI1LDQzNS45Mzc1IFExNzkxLjYxMjUsNDM1LjkzNzUgMTc5MS42MTI1LDQyNi43NSBMMTc4OS44NjI1LDQyNi43NSBRMTc4OS44NjI1LDQyNi43NSAxNzg5Ljg2MjUsNDM1LjkzNzUgTDE3OTEuNjEyNSw0MzUuOTM3NSBaIE0xNzk1LjE3NSw0MzUuOTM3NSBMMTc5Ni45MjUsNDM1LjkzNzUgUTE3OTYuOTI1LDQzNS45Mzc1IDE3OTYuOTI1LDQzMy4xMjUgTDE3OTUuMTc1LDQzMy4xMjUgUTE3OTUuMTc1LDQzMy4xMjUgMTc5NS4xNzUsNDM1LjkzNzUgWiBNMTc5NS4xNzUsNDI2Ljc1IFExNzk1LjE3NSw0MjYuNzUgMTc5NS4xNzUsNDI5LjU2MjUgTDE3OTYuOTI1LDQyOS41NjI1IFExNzk2LjkyNSw0MjkuNTYyNSAxNzk2LjkyNSw0MjYuNzUgTDE3OTUuMTc1LDQyNi43NSBaIE0xNzkwLjkyNSw0MjcuNDM3NSBMMTc5NS44NjI1LDQyNy40Mzc1IEwxNzk1Ljg2MjUsNDI1LjY4NzUgTDE3OTAuOTI1LDQyNS42ODc1IEwxNzkwLjkyNSw0MjcuNDM3NSBaICIgZmlsbD0iIzAwMDAwMCIvPjx0ZXh0IGZpbGw9IiMwMDAwMDAiIGZvbnQtZmFtaWx5PSJzYW5zLXNlcmlmIiBmb250LXNpemU9IjE0IiBsZW5ndGhBZGp1c3Q9InNwYWNpbmciIHRleHRMZW5ndGg9Ijk4IiB4PSIxODExLjciIHk9IjQzNi43NDIyIj5SZXN0YXVyYW50RG9jczwvdGV4dD48bGluZSBzdHlsZT0ic3Ryb2tlOiMxODE4MTg7c3Ryb2tlLXdpZHRoOjAuNTsiIHgxPSIxNzU5LjUiIHgyPSIxOTMxLjUiIHkxPSI0NDciIHkyPSI0NDciLz48ZWxsaXBzZSBjeD0iMTc2OS41IiBjeT0iNDU5Ljk5MjIiIGZpbGw9Im5vbmUiIHJ4PSIzIiByeT0iMyIgc3R5bGU9InN0cm9rZTojMDM4MDQ4O3N0cm9rZS13aWR0aDoxLjA7Ii8+PHRleHQgZmlsbD0iIzAwMDAwMCIgZm9udC1mYW1pbHk9InNhbnMtc2VyaWYiIGZvbnQtc2l6ZT0iMTQiIGxlbmd0aEFkanVzdD0ic3BhY2luZyIgdGV4dExlbmd0aD0iNzciIHg9IjE3NzguNSIgeT0iNDY0LjIzNDQiPmRvY19pZDogaW50PC90ZXh0PjxlbGxpcHNlIGN4PSIxNzY5LjUiIGN5PSI0NzQuOTc2NiIgZmlsbD0ibm9uZSIgcng9IjMiIHJ5PSIzIiBzdHlsZT0ic3Ryb2tlOiMwMzgwNDg7c3Ryb2tlLXdpZHRoOjEuMDsiLz48dGV4dCBmaWxsPSIjMDAwMDAwIiBmb250LWZhbWlseT0ic2Fucy1zZXJpZiIgZm9udC1zaXplPSIxNCIgbGVuZ3RoQWRqdXN0PSJzcGFjaW5nIiB0ZXh0TGVuZ3RoPSIxMjYiIHg9IjE3NzguNSIgeT0iNDc5LjIxODgiPnJlc3RhdXJhbnRfaWQ6IGludDwvdGV4dD48ZWxsaXBzZSBjeD0iMTc2OS41IiBjeT0iNDg5Ljk2MDkiIGZpbGw9Im5vbmUiIHJ4PSIzIiByeT0iMyIgc3R5bGU9InN0cm9rZTojMDM4MDQ4O3N0cm9rZS13aWR0aDoxLjA7Ii8+PHRleHQgZmlsbD0iIzAwMDAwMCIgZm9udC1mYW1pbHk9InNhbnMtc2VyaWYiIGZvbnQtc2l6ZT0iMTQiIGxlbmd0aEFkanVzdD0ic3BhY2luZyIgdGV4dExlbmd0aD0iMTEyIiB4PSIxNzc4LjUiIHk9IjQ5NC4yMDMxIj5kb2NfdHlwZTogc3RyaW5nPC90ZXh0PjxlbGxpcHNlIGN4PSIxNzY5LjUiIGN5PSI1MDQuOTQ1MyIgZmlsbD0ibm9uZSIgcng9IjMiIHJ5PSIzIiBzdHlsZT0ic3Ryb2tlOiMwMzgwNDg7c3Ryb2tlLXdpZHRoOjEuMDsiLz48dGV4dCBmaWxsPSIjMDAwMDAwIiBmb250LWZhbWlseT0ic2Fucy1zZXJpZiIgZm9udC1zaXplPSIxNCIgbGVuZ3RoQWRqdXN0PSJzcGFjaW5nIiB0ZXh0TGVuZ3RoPSIxMDUiIHg9IjE3NzguNSIgeT0iNTA5LjE4NzUiPmRvY191cmw6IHN0cmluZzwvdGV4dD48ZWxsaXBzZSBjeD0iMTc2OS41IiBjeT0iNTE5LjkyOTciIGZpbGw9Im5vbmUiIHJ4PSIzIiByeT0iMyIgc3R5bGU9InN0cm9rZTojMDM4MDQ4O3N0cm9rZS13aWR0aDoxLjA7Ii8+PHRleHQgZmlsbD0iIzAwMDAwMCIgZm9udC1mYW1pbHk9InNhbnMtc2VyaWYiIGZvbnQtc2l6ZT0iMTQiIGxlbmd0aEFkanVzdD0ic3BhY2luZyIgdGV4dExlbmd0aD0iMTQ4IiB4PSIxNzc4LjUiIHk9IjUyNC4xNzE5Ij51cGxvYWRlZF9hdDogZGF0ZXRpbWU8L3RleHQ+PGxpbmUgc3R5bGU9InN0cm9rZTojMTgxODE4O3N0cm9rZS13aWR0aDowLjU7IiB4MT0iMTc1OS41IiB4Mj0iMTkzMS41IiB5MT0iNTI5LjkyMTkiIHkyPSI1MjkuOTIxOSIvPjxlbGxpcHNlIGN4PSIxNzY5LjUiIGN5PSI1NDIuOTE0MSIgZmlsbD0iIzg0QkU4NCIgcng9IjMiIHJ5PSIzIiBzdHlsZT0ic3Ryb2tlOiMwMzgwNDg7c3Ryb2tlLXdpZHRoOjEuMDsiLz48dGV4dCBmaWxsPSIjMDAwMDAwIiBmb250LWZhbWlseT0ic2Fucy1zZXJpZiIgZm9udC1zaXplPSIxNCIgbGVuZ3RoQWRqdXN0PSJzcGFjaW5nIiB0ZXh0TGVuZ3RoPSIxMjIiIHg9IjE3NzguNSIgeT0iNTQ3LjE1NjMiPnVwbG9hZF9kb2N1bWVudCgpPC90ZXh0PjxlbGxpcHNlIGN4PSIxNzY5LjUiIGN5PSI1NTcuODk4NCIgZmlsbD0iIzg0QkU4NCIgcng9IjMiIHJ5PSIzIiBzdHlsZT0ic3Ryb2tlOiMwMzgwNDg7c3Ryb2tlLXdpZHRoOjEuMDsiLz48dGV4dCBmaWxsPSIjMDAwMDAwIiBmb250LWZhbWlseT0ic2Fucy1zZXJpZiIgZm9udC1zaXplPSIxNCIgbGVuZ3RoQWRqdXN0PSJzcGFjaW5nIiB0ZXh0TGVuZ3RoPSIxMjIiIHg9IjE3NzguNSIgeT0iNTYyLjE0MDYiPmRlbGV0ZV9kb2N1bWVudCgpPC90ZXh0PjxlbGxpcHNlIGN4PSIxNzY5LjUiIGN5PSI1NzIuODgyOCIgZmlsbD0iIzg0QkU4NCIgcng9IjMiIHJ5PSIzIiBzdHlsZT0ic3Ryb2tlOiMwMzgwNDg7c3Ryb2tlLXdpZHRoOjEuMDsiLz48dGV4dCBmaWxsPSIjMDAwMDAwIiBmb250LWZhbWlseT0ic2Fucy1zZXJpZiIgZm9udC1zaXplPSIxNCIgbGVuZ3RoQWRqdXN0PSJzcGFjaW5nIiB0ZXh0TGVuZ3RoPSIxMDgiIHg9IjE3NzguNSIgeT0iNTc3LjEyNSI+Z2V0X2RvY3VtZW50cygpPC90ZXh0PjwvZz48IS0tY2xhc3MgRm9vZEZvb2RDYXRlZ29yeS0tPjxnIGlkPSJlbGVtX0Zvb2RGb29kQ2F0ZWdvcnkiPjxyZWN0IGNvZGVMaW5lPSIyMzUiIGZpbGw9IiNGMUYxRjEiIGhlaWdodD0iMTA3LjkzNzUiIGlkPSJGb29kRm9vZENhdGVnb3J5IiByeD0iMi41IiByeT0iMi41IiBzdHlsZT0ic3Ryb2tlOiMxODE4MTg7c3Ryb2tlLXdpZHRoOjAuNTsiIHdpZHRoPSIyMTkiIHg9IjIzNCIgeT0iNzQwLjUiLz48ZWxsaXBzZSBjeD0iMjgzLjI1IiBjeT0iNzU2LjUiIGZpbGw9IiNBREQxQjIiIHJ4PSIxMSIgcnk9IjExIiBzdHlsZT0ic3Ryb2tlOiMxODE4MTg7c3Ryb2tlLXdpZHRoOjEuMDsiLz48cGF0aCBkPSJNMjgwLjg3NSw3NjAuNzUgTDI4MC44NzUsNzYyLjUgTDI4NS44MTI1LDc2Mi41IEwyODUuODEyNSw3NjAuNzUgTDI4MC44NzUsNzYwLjc1IFogTTI4MS41NjI1LDc2MS40Mzc1IFEyODEuNTYyNSw3NjEuNDM3NSAyODEuNTYyNSw3NTIuMjUgTDI3OS44MTI1LDc1Mi4yNSBRMjc5LjgxMjUsNzUyLjI1IDI3OS44MTI1LDc2MS40Mzc1IEwyODEuNTYyNSw3NjEuNDM3NSBaIE0yODUuMTI1LDc2MS40Mzc1IEwyODYuODc1LDc2MS40Mzc1IFEyODYuODc1LDc2MS40Mzc1IDI4Ni44NzUsNzU4LjYyNSBMMjg1LjEyNSw3NTguNjI1IFEyODUuMTI1LDc1OC42MjUgMjg1LjEyNSw3NjEuNDM3NSBaIE0yODUuMTI1LDc1Mi4yNSBRMjg1LjEyNSw3NTIuMjUgMjg1LjEyNSw3NTUuMDYyNSBMMjg2Ljg3NSw3NTUuMDYyNSBRMjg2Ljg3NSw3NTUuMDYyNSAyODYuODc1LDc1Mi4yNSBMMjg1LjEyNSw3NTIuMjUgWiBNMjgwLjg3NSw3NTIuOTM3NSBMMjg1LjgxMjUsNzUyLjkzNzUgTDI4NS44MTI1LDc1MS4xODc1IEwyODAuODc1LDc1MS4xODc1IEwyODAuODc1LDc1Mi45Mzc1IFogIiBmaWxsPSIjMDAwMDAwIi8+PHRleHQgZmlsbD0iIzAwMDAwMCIgZm9udC1mYW1pbHk9InNhbnMtc2VyaWYiIGZvbnQtc2l6ZT0iMTQiIGxlbmd0aEFkanVzdD0ic3BhY2luZyIgdGV4dExlbmd0aD0iMTEyIiB4PSIzMDMuNzUiIHk9Ijc2Mi4yNDIyIj5Gb29kRm9vZENhdGVnb3J5PC90ZXh0PjxsaW5lIHN0eWxlPSJzdHJva2U6IzE4MTgxODtzdHJva2Utd2lkdGg6MC41OyIgeDE9IjIzNSIgeDI9IjQ1MiIgeTE9Ijc3Mi41IiB5Mj0iNzcyLjUiLz48ZWxsaXBzZSBjeD0iMjQ1IiBjeT0iNzg1LjQ5MjIiIGZpbGw9Im5vbmUiIHJ4PSIzIiByeT0iMyIgc3R5bGU9InN0cm9rZTojMDM4MDQ4O3N0cm9rZS13aWR0aDoxLjA7Ii8+PHRleHQgZmlsbD0iIzAwMDAwMCIgZm9udC1mYW1pbHk9InNhbnMtc2VyaWYiIGZvbnQtc2l6ZT0iMTQiIGxlbmd0aEFkanVzdD0ic3BhY2luZyIgdGV4dExlbmd0aD0iODQiIHg9IjI1NCIgeT0iNzg5LjczNDQiPmZvb2RfaWQ6IGludDwvdGV4dD48ZWxsaXBzZSBjeD0iMjQ1IiBjeT0iODAwLjQ3NjYiIGZpbGw9Im5vbmUiIHJ4PSIzIiByeT0iMyIgc3R5bGU9InN0cm9rZTojMDM4MDQ4O3N0cm9rZS13aWR0aDoxLjA7Ii8+PHRleHQgZmlsbD0iIzAwMDAwMCIgZm9udC1mYW1pbHk9InNhbnMtc2VyaWYiIGZvbnQtc2l6ZT0iMTQiIGxlbmd0aEFkanVzdD0ic3BhY2luZyIgdGV4dExlbmd0aD0iMTQ3IiB4PSIyNTQiIHk9IjgwNC43MTg4Ij5mb29kX2NhdGVnb3J5X2lkOiBpbnQ8L3RleHQ+PGxpbmUgc3R5bGU9InN0cm9rZTojMTgxODE4O3N0cm9rZS13aWR0aDowLjU7IiB4MT0iMjM1IiB4Mj0iNDUyIiB5MT0iODEwLjQ2ODgiIHkyPSI4MTAuNDY4OCIvPjxlbGxpcHNlIGN4PSIyNDUiIGN5PSI4MjMuNDYwOSIgZmlsbD0iIzg0QkU4NCIgcng9IjMiIHJ5PSIzIiBzdHlsZT0ic3Ryb2tlOiMwMzgwNDg7c3Ryb2tlLXdpZHRoOjEuMDsiLz48dGV4dCBmaWxsPSIjMDAwMDAwIiBmb250LWZhbWlseT0ic2Fucy1zZXJpZiIgZm9udC1zaXplPSIxNCIgbGVuZ3RoQWRqdXN0PSJzcGFjaW5nIiB0ZXh0TGVuZ3RoPSIxNTYiIHg9IjI1NCIgeT0iODI3LjcwMzEiPmFkZF9mb29kX3RvX2NhdGVnb3J5KCk8L3RleHQ+PGVsbGlwc2UgY3g9IjI0NSIgY3k9IjgzOC40NDUzIiBmaWxsPSIjODRCRTg0IiByeD0iMyIgcnk9IjMiIHN0eWxlPSJzdHJva2U6IzAzODA0ODtzdHJva2Utd2lkdGg6MS4wOyIvPjx0ZXh0IGZpbGw9IiMwMDAwMDAiIGZvbnQtZmFtaWx5PSJzYW5zLXNlcmlmIiBmb250LXNpemU9IjE0IiBsZW5ndGhBZGp1c3Q9InNwYWNpbmciIHRleHRMZW5ndGg9IjE5MyIgeD0iMjU0IiB5PSI4NDIuNjg3NSI+cmVtb3ZlX2Zvb2RfZnJvbV9jYXRlZ29yeSgpPC90ZXh0PjwvZz48IS0tbGluayBVc2VycyB0byBSb2xlcy0tPjxnIGlkPSJsaW5rX1VzZXJzX1JvbGVzIj48cGF0aCBjb2RlTGluZT0iMjQzIiBkPSJNNzg2LjY0LDI0Mi42MyBDNzc3Ljg4LDI1OS43IDc2OS43NywyNzcuNTEgNzYzLjUsMjk1IEM3NDUuOTIsMzQ0LjAyIDczNi43LDQwMi45IDczMi4wMSw0NDQuNTkgIiBmaWxsPSJub25lIiBpZD0iVXNlcnMtUm9sZXMiIHN0eWxlPSJzdHJva2U6IzE4MTgxODtzdHJva2Utd2lkdGg6MS4wOyIvPjx0ZXh0IGZpbGw9IiMwMDAwMDAiIGZvbnQtZmFtaWx5PSJzYW5zLXNlcmlmIiBmb250LXNpemU9IjEzIiBsZW5ndGhBZGp1c3Q9InNwYWNpbmciIHRleHRMZW5ndGg9IjYyIiB4PSI3NjQuNSIgeT0iMzA4LjI4OTEiPlVzZXJSb2xlczwvdGV4dD48dGV4dCBmaWxsPSIjMDAwMDAwIiBmb250LWZhbWlseT0ic2Fucy1zZXJpZiIgZm9udC1zaXplPSIxMyIgbGVuZ3RoQWRqdXN0PSJzcGFjaW5nIiB0ZXh0TGVuZ3RoPSIyNyIgeD0iNzU0LjMwOCIgeT0iMjYyLjU1NjUiPm1hbnk8L3RleHQ+PHRleHQgZmlsbD0iIzAwMDAwMCIgZm9udC1mYW1pbHk9InNhbnMtc2VyaWYiIGZvbnQtc2l6ZT0iMTMiIGxlbmd0aEFkanVzdD0ic3BhY2luZyIgdGV4dExlbmd0aD0iMjciIHg9IjcwMy43NDU4IiB5PSI0MzUuMzgyMyI+bWFueTwvdGV4dD48L2c+PCEtLWxpbmsgVXNlcnMgdG8gVXNlclJvbGVzLS0+PGcgaWQ9ImxpbmtfVXNlcnNfVXNlclJvbGVzIj48cGF0aCBjb2RlTGluZT0iMjQ0IiBkPSJNODQ1Ljg5LDI0Mi44NCBDODM2LjU3LDM5Mi4wOCA4MjAuMDIsNjU3LjEzIDgxMy44OCw3NTUuNDMgIiBmaWxsPSJub25lIiBpZD0iVXNlcnMtVXNlclJvbGVzIiBzdHlsZT0ic3Ryb2tlOiMxODE4MTg7c3Ryb2tlLXdpZHRoOjEuMDsiLz48dGV4dCBmaWxsPSIjMDAwMDAwIiBmb250LWZhbWlseT0ic2Fucy1zZXJpZiIgZm9udC1zaXplPSIxMyIgbGVuZ3RoQWRqdXN0PSJzcGFjaW5nIiB0ZXh0TGVuZ3RoPSIyNyIgeD0iODE3LjUzODkiIHk9IjI2Mi43ODA2Ij5tYW55PC90ZXh0Pjx0ZXh0IGZpbGw9IiMwMDAwMDAiIGZvbnQtZmFtaWx5PSJzYW5zLXNlcmlmIiBmb250LXNpemU9IjEzIiBsZW5ndGhBZGp1c3Q9InNwYWNpbmciIHRleHRMZW5ndGg9IjI3IiB4PSI4MTcuMDA2NCIgeT0iNzQ1Ljg0MDUiPm1hbnk8L3RleHQ+PC9nPjwhLS1saW5rIFJvbGVzIHRvIFVzZXJSb2xlcy0tPjxnIGlkPSJsaW5rX1JvbGVzX1VzZXJSb2xlcyI+PHBhdGggY29kZUxpbmU9IjI0NSIgZD0iTTc0Mi43MSw1NTMuMTUgQzc1OS40LDYxMS40NiA3ODUuNzgsNzAzLjYyIDgwMC41NSw3NTUuMjMgIiBmaWxsPSJub25lIiBpZD0iUm9sZXMtVXNlclJvbGVzIiBzdHlsZT0ic3Ryb2tlOiMxODE4MTg7c3Ryb2tlLXdpZHRoOjEuMDsiLz48dGV4dCBmaWxsPSIjMDAwMDAwIiBmb250LWZhbWlseT0ic2Fucy1zZXJpZiIgZm9udC1zaXplPSIxMyIgbGVuZ3RoQWRqdXN0PSJzcGFjaW5nIiB0ZXh0TGVuZ3RoPSIyNyIgeD0iNzE1LjkyOTEiIHk9IjU3My4yNzI0Ij5tYW55PC90ZXh0Pjx0ZXh0IGZpbGw9IiMwMDAwMDAiIGZvbnQtZmFtaWx5PSJzYW5zLXNlcmlmIiBmb250LXNpemU9IjEzIiBsZW5ndGhBZGp1c3Q9InNwYWNpbmciIHRleHRMZW5ndGg9IjI3IiB4PSI3NjguODg5MiIgeT0iNzQ1Ljg4NDMiPm1hbnk8L3RleHQ+PC9nPjwhLS1saW5rIFJlc3RhdXJhbnQgdG8gQWRkcmVzc2VzLS0+PGcgaWQ9ImxpbmtfUmVzdGF1cmFudF9BZGRyZXNzZXMiPjxwYXRoIGNvZGVMaW5lPSIyNDYiIGQ9Ik0xNDI2LjExLDE3MS42OSBDMTMzOC4zOCwyMDUuMTggMTIxMS41LDI2Mi4yNSAxMTE5LjUsMzQwIEMxMTA2LjQxLDM1MS4wNiAxMDk0LjAyLDM2My45IDEwODIuNTQsMzc3LjQgIiBmaWxsPSJub25lIiBpZD0iUmVzdGF1cmFudC1BZGRyZXNzZXMiIHN0eWxlPSJzdHJva2U6IzE4MTgxODtzdHJva2Utd2lkdGg6MS4wOyIvPjx0ZXh0IGZpbGw9IiMwMDAwMDAiIGZvbnQtZmFtaWx5PSJzYW5zLXNlcmlmIiBmb250LXNpemU9IjEzIiBsZW5ndGhBZGp1c3Q9InNwYWNpbmciIHRleHRMZW5ndGg9Ijc3IiB4PSIxMTgwLjUiIHk9IjMwOC4yODkxIj5oYXMgYWRkcmVzczwvdGV4dD48dGV4dCBmaWxsPSIjMDAwMDAwIiBmb250LWZhbWlseT0ic2Fucy1zZXJpZiIgZm9udC1zaXplPSIxMyIgbGVuZ3RoQWRqdXN0PSJzcGFjaW5nIiB0ZXh0TGVuZ3RoPSIyMSIgeD0iMTM5Ny41OTI0IiB5PSIxNzIuOTc4MyI+b25lPC90ZXh0Pjx0ZXh0IGZpbGw9IiMwMDAwMDAiIGZvbnQtZmFtaWx5PSJzYW5zLXNlcmlmIiBmb250LXNpemU9IjEzIiBsZW5ndGhBZGp1c3Q9InNwYWNpbmciIHRleHRMZW5ndGg9IjIxIiB4PSIxMDY2LjI4ODkiIHk9IjM2Ny43MjEzIj5vbmU8L3RleHQ+PC9nPjwhLS1saW5rIFJlc3RhdXJhbnQgdG8gQ3Vpc2luZVR5cGVzLS0+PGcgaWQ9ImxpbmtfUmVzdGF1cmFudF9DdWlzaW5lVHlwZXMiPjxwYXRoIGNvZGVMaW5lPSIyNDciIGQ9Ik0xNDI2LjI1LDIyMS41OSBDMTQwMS4xMSwyNDQuNCAxMzc0Ljk1LDI2OS43NyAxMzUyLjUsMjk1IEMxMzM2LjE4LDMxMy4zMyAxMzM0LjE4LDMxOS42MiAxMzIwLjUsMzQwIEMxMjk3LjM0LDM3NC41IDEyNzIuMzQsNDE0IDEyNTMuMTMsNDQ0Ljg3ICIgZmlsbD0ibm9uZSIgaWQ9IlJlc3RhdXJhbnQtQ3Vpc2luZVR5cGVzIiBzdHlsZT0ic3Ryb2tlOiMxODE4MTg7c3Ryb2tlLXdpZHRoOjEuMDsiLz48dGV4dCBmaWxsPSIjMDAwMDAwIiBmb250LWZhbWlseT0ic2Fucy1zZXJpZiIgZm9udC1zaXplPSIxMyIgbGVuZ3RoQWRqdXN0PSJzcGFjaW5nIiB0ZXh0TGVuZ3RoPSIxMTUiIHg9IjEzNTMuNSIgeT0iMzA4LjI4OTEiPlJlc3RhdXJhbnRDdWlzaW5lPC90ZXh0Pjx0ZXh0IGZpbGw9IiMwMDAwMDAiIGZvbnQtZmFtaWx5PSJzYW5zLXNlcmlmIiBmb250LXNpemU9IjEzIiBsZW5ndGhBZGp1c3Q9InNwYWNpbmciIHRleHRMZW5ndGg9IjI3IiB4PSIxMzkxLjU0MDIiIHk9IjIyNi4yMzEiPm1hbnk8L3RleHQ+PHRleHQgZmlsbD0iIzAwMDAwMCIgZm9udC1mYW1pbHk9InNhbnMtc2VyaWYiIGZvbnQtc2l6ZT0iMTMiIGxlbmd0aEFkanVzdD0ic3BhY2luZyIgdGV4dExlbmd0aD0iMjciIHg9IjEyMjguOTM5NyIgeT0iNDM1LjMyNTciPm1hbnk8L3RleHQ+PC9nPjwhLS1saW5rIFJlc3RhdXJhbnQgdG8gRm9vZC0tPjxnIGlkPSJsaW5rX1Jlc3RhdXJhbnRfRm9vZCI+PHBhdGggY29kZUxpbmU9IjI0OCIgZD0iTTE2MjguNzksMTY5Ljk4IEMxNzE5LjY3LDIwMyAxODUzLjMxLDI2MC4zNyAxOTUwLjUsMzQwIEMxOTU3LjgxLDM0NS45OCAxOTY0LjkxLDM1Mi41MSAxOTcxLjc4LDM1OS4zOCAiIGZpbGw9Im5vbmUiIGlkPSJSZXN0YXVyYW50LUZvb2QiIHN0eWxlPSJzdHJva2U6IzE4MTgxODtzdHJva2Utd2lkdGg6MS4wOyIvPjx0ZXh0IGZpbGw9IiMwMDAwMDAiIGZvbnQtZmFtaWx5PSJzYW5zLXNlcmlmIiBmb250LXNpemU9IjEzIiBsZW5ndGhBZGp1c3Q9InNwYWNpbmciIHRleHRMZW5ndGg9IjU2IiB4PSIxOTEwLjUiIHk9IjMwOC4yODkxIj5NZW51Rm9vZDwvdGV4dD48dGV4dCBmaWxsPSIjMDAwMDAwIiBmb250LWZhbWlseT0ic2Fucy1zZXJpZiIgZm9udC1zaXplPSIxMyIgbGVuZ3RoQWRqdXN0PSJzcGFjaW5nIiB0ZXh0TGVuZ3RoPSIyNyIgeD0iMTYzNi41MDI1IiB5PSIxNzEuMTUzNCI+bWFueTwvdGV4dD48dGV4dCBmaWxsPSIjMDAwMDAwIiBmb250LWZhbWlseT0ic2Fucy1zZXJpZiIgZm9udC1zaXplPSIxMyIgbGVuZ3RoQWRqdXN0PSJzcGFjaW5nIiB0ZXh0TGVuZ3RoPSIyNyIgeD0iMTkzNi45NTk4IiB5PSIzNDguNDM3Ij5tYW55PC90ZXh0PjwvZz48IS0tbGluayBGb29kIHRvIEZvb2RDYXRlZ29yeS0tPjxnIGlkPSJsaW5rX0Zvb2RfRm9vZENhdGVnb3J5Ij48cGF0aCBjb2RlTGluZT0iMjQ5IiBkPSJNMTk4My4zOCw2NTguMDQgQzE5ODIuMjksNjczLjIxIDE5ODMuOTcsNjg4LjM5IDE5ODkuNSw3MDMgQzE5OTQuNTUsNzE2LjM0IDIwMDIuNTYsNzI4Ljk3IDIwMTEuNiw3NDAuMzQgIiBmaWxsPSJub25lIiBpZD0iRm9vZC1Gb29kQ2F0ZWdvcnkiIHN0eWxlPSJzdHJva2U6IzE4MTgxODtzdHJva2Utd2lkdGg6MS4wOyIvPjx0ZXh0IGZpbGw9IiMwMDAwMDAiIGZvbnQtZmFtaWx5PSJzYW5zLXNlcmlmIiBmb250LXNpemU9IjEzIiBsZW5ndGhBZGp1c3Q9InNwYWNpbmciIHRleHRMZW5ndGg9IjExMSIgeD0iMTk5MC41IiB5PSI3MDEuMjg5MSI+Rm9vZEZvb2RDYXRlZ29yeTwvdGV4dD48dGV4dCBmaWxsPSIjMDAwMDAwIiBmb250LWZhbWlseT0ic2Fucy1zZXJpZiIgZm9udC1zaXplPSIxMyIgbGVuZ3RoQWRqdXN0PSJzcGFjaW5nIiB0ZXh0TGVuZ3RoPSIyNyIgeD0iMTk1MS44NjYiIHk9IjY3Ny44NTcyIj5tYW55PC90ZXh0Pjx0ZXh0IGZpbGw9IiMwMDAwMDAiIGZvbnQtZmFtaWx5PSJzYW5zLXNlcmlmIiBmb250LXNpemU9IjEzIiBsZW5ndGhBZGp1c3Q9InNwYWNpbmciIHRleHRMZW5ndGg9IjI3IiB4PSIxOTc0LjExMzEiIHk9IjczMC43OTEzIj5tYW55PC90ZXh0PjwvZz48IS0tbGluayBGb29kIHRvIEZvb2RDYXRlZ29yeS0tPjxnIGlkPSJsaW5rX0Zvb2RfRm9vZENhdGVnb3J5Ij48cGF0aCBjb2RlTGluZT0iMjUxIiBkPSJNMjEwOS45NCw2NTggQzIxMTAuMzMsNjczLjIyIDIxMDkuMzcsNjg4LjQxIDIxMDYuNSw3MDMgQzIxMDQuMDUsNzE1LjQ5IDIwOTkuODUsNzI4LjQzIDIwOTUuMTUsNzQwLjQ5ICIgZmlsbD0ibm9uZSIgaWQ9IkZvb2QtRm9vZENhdGVnb3J5LTEiIHN0eWxlPSJzdHJva2U6IzE4MTgxODtzdHJva2Utd2lkdGg6MS4wOyIvPjx0ZXh0IGZpbGw9IiMwMDAwMDAiIGZvbnQtZmFtaWx5PSJzYW5zLXNlcmlmIiBmb250LXNpemU9IjEzIiBsZW5ndGhBZGp1c3Q9InNwYWNpbmciIHRleHRMZW5ndGg9IjExMSIgeD0iMjEwOC41IiB5PSI3MDEuMjg5MSI+Rm9vZEZvb2RDYXRlZ29yeTwvdGV4dD48dGV4dCBmaWxsPSIjMDAwMDAwIiBmb250LWZhbWlseT0ic2Fucy1zZXJpZiIgZm9udC1zaXplPSIxMyIgbGVuZ3RoQWRqdXN0PSJzcGFjaW5nIiB0ZXh0TGVuZ3RoPSIyNyIgeD0iMjA4NC4xNjA3IiB5PSI2NzcuODE1NCI+bWFueTwvdGV4dD48dGV4dCBmaWxsPSIjMDAwMDAwIiBmb250LWZhbWlseT0ic2Fucy1zZXJpZiIgZm9udC1zaXplPSIxMyIgbGVuZ3RoQWRqdXN0PSJzcGFjaW5nIiB0ZXh0TGVuZ3RoPSIyNyIgeD0iMjA2OS45MzQ1IiB5PSI3MzAuOTYzNCI+bWFueTwvdGV4dD48L2c+PCEtLWxpbmsgTWVudSB0byBGb29kLS0+PGcgaWQ9ImxpbmtfTWVudV9Gb29kIj48cGF0aCBjb2RlTGluZT0iMjUwIiBkPSJNMjA3MS4wNCwyMjAuMjcgQzIwNzAuODQsMjU1Ljg4IDIwNzAuNiwyOTguNjggMjA3MC4zOCwzMzkuOSAiIGZpbGw9Im5vbmUiIGlkPSJNZW51LUZvb2QiIHN0eWxlPSJzdHJva2U6IzE4MTgxODtzdHJva2Utd2lkdGg6MS4wOyIvPjx0ZXh0IGZpbGw9IiMwMDAwMDAiIGZvbnQtZmFtaWx5PSJzYW5zLXNlcmlmIiBmb250LXNpemU9IjEzIiBsZW5ndGhBZGp1c3Q9InNwYWNpbmciIHRleHRMZW5ndGg9IjU2IiB4PSIyMDcxLjUiIHk9IjMwOC4yODkxIj5NZW51Rm9vZDwvdGV4dD48dGV4dCBmaWxsPSIjMDAwMDAwIiBmb250LWZhbWlseT0ic2Fucy1zZXJpZiIgZm9udC1zaXplPSIxMyIgbGVuZ3RoQWRqdXN0PSJzcGFjaW5nIiB0ZXh0TGVuZ3RoPSIyNyIgeD0iMjA0Mi44ODM5IiB5PSIyNDAuMTE5Ij5tYW55PC90ZXh0Pjx0ZXh0IGZpbGw9IiMwMDAwMDAiIGZvbnQtZmFtaWx5PSJzYW5zLXNlcmlmIiBmb250LXNpemU9IjEzIiBsZW5ndGhBZGp1c3Q9InNwYWNpbmciIHRleHRMZW5ndGg9IjI3IiB4PSIyMDQyLjY4OTgiIHk9IjMzMC4xNjU1Ij5tYW55PC90ZXh0PjwvZz48IS0tbGluayBSZXN0YXVyYW50IHRvIFdvcmtpbmdUaW1lLS0+PGcgaWQ9ImxpbmtfUmVzdGF1cmFudF9Xb3JraW5nVGltZSI+PHBhdGggY29kZUxpbmU9IjI1MiIgZD0iTTE0ODkuMjksMjY1LjAyIEMxNDg2LjMsMjc1LjE2IDE0ODMuMzQsMjg1LjI1IDE0ODAuNSwyOTUgQzE0NjkuNzgsMzMxLjc3IDE0NTguMTUsMzcyLjM1IDE0NDguMTMsNDA3LjUgIiBmaWxsPSJub25lIiBpZD0iUmVzdGF1cmFudC1Xb3JraW5nVGltZSIgc3R5bGU9InN0cm9rZTojMTgxODE4O3N0cm9rZS13aWR0aDoxLjA7Ii8+PHRleHQgZmlsbD0iIzAwMDAwMCIgZm9udC1mYW1pbHk9InNhbnMtc2VyaWYiIGZvbnQtc2l6ZT0iMTMiIGxlbmd0aEFkanVzdD0ic3BhY2luZyIgdGV4dExlbmd0aD0iMTA3IiB4PSIxNDgxLjUiIHk9IjMwOC4yODkxIj5oYXMgd29ya2luZyB0aW1lPC90ZXh0Pjx0ZXh0IGZpbGw9IiMwMDAwMDAiIGZvbnQtZmFtaWx5PSJzYW5zLXNlcmlmIiBmb250LXNpemU9IjEzIiBsZW5ndGhBZGp1c3Q9InNwYWNpbmciIHRleHRMZW5ndGg9IjI3IiB4PSIxNDU5LjMwMDUiIHk9IjI4NS4xNzY2Ij5tYW55PC90ZXh0Pjx0ZXh0IGZpbGw9IiMwMDAwMDAiIGZvbnQtZmFtaWx5PSJzYW5zLXNlcmlmIiBmb250LXNpemU9IjEzIiBsZW5ndGhBZGp1c3Q9InNwYWNpbmciIHRleHRMZW5ndGg9IjI3IiB4PSIxNDIyLjI0ODIiIHk9IjM5Ny44MDMzIj5tYW55PC90ZXh0PjwvZz48IS0tbGluayBSZXN0YXVyYW50IHRvIEJhbmtJbmZvLS0+PGcgaWQ9ImxpbmtfUmVzdGF1cmFudF9CYW5rSW5mbyI+PHBhdGggY29kZUxpbmU9IjI1MyIgZD0iTTE1ODMuNTgsMjY1LjExIEMxNTg3LjE4LDI3NS4xNCAxNTkwLjU0LDI4NS4xOCAxNTkzLjUsMjk1IEMxNjAzLjY1LDMyOC42NyAxNjExLjc0LDM2Ni4zMSAxNjE3Ljg3LDM5OS45NSAiIGZpbGw9Im5vbmUiIGlkPSJSZXN0YXVyYW50LUJhbmtJbmZvIiBzdHlsZT0ic3Ryb2tlOiMxODE4MTg7c3Ryb2tlLXdpZHRoOjEuMDsiLz48dGV4dCBmaWxsPSIjMDAwMDAwIiBmb250LWZhbWlseT0ic2Fucy1zZXJpZiIgZm9udC1zaXplPSIxMyIgbGVuZ3RoQWRqdXN0PSJzcGFjaW5nIiB0ZXh0TGVuZ3RoPSIxMzUiIHg9IjE1OTguNSIgeT0iMzA4LjI4OTEiPmhhcyBiYW5rIGluZm9ybWF0aW9uPC90ZXh0Pjx0ZXh0IGZpbGw9IiMwMDAwMDAiIGZvbnQtZmFtaWx5PSJzYW5zLXNlcmlmIiBmb250LXNpemU9IjEzIiBsZW5ndGhBZGp1c3Q9InNwYWNpbmciIHRleHRMZW5ndGg9IjIxIiB4PSIxNTY1LjIxNTEiIHk9IjI4NS4yNzE4Ij5vbmU8L3RleHQ+PHRleHQgZmlsbD0iIzAwMDAwMCIgZm9udC1mYW1pbHk9InNhbnMtc2VyaWYiIGZvbnQtc2l6ZT0iMTMiIGxlbmd0aEFkanVzdD0ic3BhY2luZyIgdGV4dExlbmd0aD0iMjEiIHg9IjE1OTQuNzEwNCIgeT0iMzkwLjIxNDMiPm9uZTwvdGV4dD48L2c+PCEtLWxpbmsgUmVzdGF1cmFudCB0byBSZXN0YXVyYW50RG9jcy0tPjxnIGlkPSJsaW5rX1Jlc3RhdXJhbnRfUmVzdGF1cmFudERvY3MiPjxwYXRoIGNvZGVMaW5lPSIyNTQiIGQ9Ik0xNjI4LjY0LDE5Ni44NSBDMTY2Ny42MywyMjMuMzkgMTcxMC40NSwyNTcuMiAxNzQyLjUsMjk1IEMxNzcyLjQsMzMwLjI3IDE3OTYuNDksMzc1LjcgMTgxMy44Myw0MTQuNjQgIiBmaWxsPSJub25lIiBpZD0iUmVzdGF1cmFudC1SZXN0YXVyYW50RG9jcyIgc3R5bGU9InN0cm9rZTojMTgxODE4O3N0cm9rZS13aWR0aDoxLjA7Ii8+PHRleHQgZmlsbD0iIzAwMDAwMCIgZm9udC1mYW1pbHk9InNhbnMtc2VyaWYiIGZvbnQtc2l6ZT0iMTMiIGxlbmd0aEFkanVzdD0ic3BhY2luZyIgdGV4dExlbmd0aD0iODkiIHg9IjE3NTQuNSIgeT0iMzA4LjI4OTEiPmhhcyBkb2N1bWVudHM8L3RleHQ+PHRleHQgZmlsbD0iIzAwMDAwMCIgZm9udC1mYW1pbHk9InNhbnMtc2VyaWYiIGZvbnQtc2l6ZT0iMTMiIGxlbmd0aEFkanVzdD0ic3BhY2luZyIgdGV4dExlbmd0aD0iMjciIHg9IjE2MzYuMzQyNCIgeT0iMTk5LjgyODgiPm1hbnk8L3RleHQ+PHRleHQgZmlsbD0iIzAwMDAwMCIgZm9udC1mYW1pbHk9InNhbnMtc2VyaWYiIGZvbnQtc2l6ZT0iMTMiIGxlbmd0aEFkanVzdD0ic3BhY2luZyIgdGV4dExlbmd0aD0iMjciIHg9IjE3ODIuNTI0NyIgeT0iNDA1LjMxODUiPm1hbnk8L3RleHQ+PC9nPjwhLS1TUkM9W2pMWkRaa0djNEJ4dEtyWHpzS0pIbGEzVmFicjVvWTVBRERlZUh5SFd0OENRV25WbVo1Z2psN2tBTnZpb3prbjZvWG42dXctV2c5LWxZYzgtVDR6UVNqaW5JUXF6WFR5OVVQbXctRmNmQ18xNUg3X2ZYNzloSUQ2SE5waGhaNTNOWERFLTlyeHNtdXk5d0JkYVpjVmlkekZmR19UcHRuamtCSmZvR0gtQkJlLVdhbVRYaDJEbUFFU0U3SnY4d2VZUW5zVGthQUpOc2hHYkpCV3hXZ29aM2xpclFLMGJPUmg3YWdsTUx1WjVJMlRCZjUydEhhMkk4b0tjZS14NVNEXzBMLXVzTTBmVlEtZHdPM2c5N0RzX0IzVHJQMkVJZXBoMzVtZmY4dXp5ZjRCWTY4Mm9Ec3R3aE9VREQxYi01UjJDRWc0THdLRDBfTXlkSGZ2TVk5NVVFUGFERllSa3ZBT3VBX0xMZ0Y4ckpydUZjT21VbjhmZGF3SUM0eDBrUjJvSHM1OXhHR3lZS1o0LUFGaXEyb2lLX3RBVmFCdkFhNU1vMjE4N0E1QVRISmw1YXlJTzAwaVNoN2RZR0NWUEtFTmdpYnRXS2hpNUdkT3FsRlI0ZG9xb0lXMnhjMUVsT0VvcHJaOUo2MzhFd1RrYWhYcE1TQV9kYlhhblVLT1dJS1dSQ1ZwaEIwbVZrU0E1bEtTTFBaWG0wR2hDUlRaTFBjS1lKdElxbkRaN1ZUMndCeTJodTYtSEl0T1J5UEptZFMxZHdSbG5GdzM4WVdUYXNSejNZTmY1aUZMbFJNdUdmMnlHWlNoQURQeGpVdWlPeVE3UmJGMkV3SnN6NHBzR0R5dmxzelBmNzdkSENzd3BORktqNkNZYjl3dWdRZGRsbEpOT3RtZ0JCSkd4XzJpYWhfOHEwRGI1ZHJmeVlOWmVrb1h3YUF4VEUwNmlVY2Z3UTVRMm1MNjNyM0pCMGFKaUlBTGkyS1JVWXRiaUlJR3JMd0pod21uZFh0amlFTGlldUdKU01EUGZUZ2k0RXhLcTZKeEhyQXp6ZzFremdRZ0hUOGJMTUNmS1hQTC0zU1BaQzFZdEprOGRHQV9RdDNWOUI4OGdnSW9Ya0JHb2xERFpYdk4yYmtyNVJwUmpUd3hjb2dHMEY0ZWxMRkV0S1lBaV9KeFk3Vk91dVhMWTdvZWl2SWJYblByRG9ISG14TFFaVDFoVURiUXpPdE5PdU5IakFSSC1fUGVvQzFXek9qXzJES0hwWmVJZ3ZTVklIM1dhMno3dU9uWm1uOUlXNzBkakZ2NjM0VkZUMER6YkdWMUF2T29nYjR3SjU4bS1tc0pYRDl2UzZ0NDZDLUV6c0QwTDN1ZFRqWmJTbkdNLXdwUjV0WFJWbXVWTGMwTjdZMTJhMzhWZV80QmpaVFRKSGU5b1Q5eDN2X2xKSFNGN0xrRlFCSHRGNi03dVlGYklPT25BRGFsbFhUQ21pMi11djdIbmJScm1UakRwa0ozX2Y3U19UTEhVUGtuSGZqX21aT25nRWYtTmphQ193amFGRTVMZEpua1EwcldpOVBCTUI3TERwT3JHMnEtSVNWOUx0blMtVXpCS1QweDhlbmdzc1hPWlplVUxKSS1FQkNyMy05QXNmOFd4VTVIT045REhNNFFvbk9WRlNWdE1iSW9lRk9oZ2NveHk5bzlNYnRRZzFOTnhKR3FRTEtDMmJ0ZkdELVduV194TUVvNWlRNXJMWjdjZ2pELWoxa1podnhRY0NFemlqMlMxZnBNa242OHFwaXZNYTJ3UGpHMURvOXlyaXBsWlNIMHpvZ2tTVlZGODJLaVJ0ZFh1RXloQzQtSWlSenktS0tQV3Vyb0xLXzlnV19rTlRXUmpVYkd2NzVWc0h2TzY1TlVjY0ZLem9WMnFpaGFoeVNab242TU92VW9CY0VtZl9XbFdGNTlyRnRTVkYtUV91Wmx1aWhvOXpuT2syLUFNZW1OQjZfSWk1Ty1CbVhfQlZ0V2t0VmM1c2xuNkVyVHhpRVJnVk50UGxoR0VEdVUxdmI5Y2NyRnVSZ3Vnc1JmaTRkV0FxenhfZkZsOC1sTHhCT0tpRlRTd3AtWnBHUW5CTHFoeFZCTHNsYmhENjZYbjc3REtocWI3QU9GcGxtMDBdLS0+PC9nPjwvc3ZnPg==;" vertex="1" parent="1">
            <mxGeometry x="-500" y="-130" width="2227" height="862" as="geometry" />
          </mxCell>
        </UserObject>
      </root>
    </mxGraphModel>
  </diagram>
</mxfile>
